<svg width="70" height="20" viewBox="0 0 70 20" fill="none" xmlns="http://www.w3.org/2000/svg">
<g clip-path="url(#clip0_795_6873)">
<path fill-rule="evenodd" clip-rule="evenodd" d="M10.9684 14.8638H7.95C3.24123 14.8638 6.66215 4.75818 10.6264 4.75818H15.3955C16.1602 4.75818 17.5084 4.90053 18.1725 2.98918L19.1988 0.0205078H12.6588C9.11717 0.0205078 6.36028 1.28118 4.36812 3.39585C0.927081 7.01517 -0.240051 12.6678 0.584993 15.3722C1.36979 17.8732 3.50283 19.5202 6.84323 19.5609L9.43912 19.5812H12.6386L13.4235 17.2022C14.007 15.5145 12.699 14.8638 10.9684 14.8638ZM47.7131 10.6752L48.699 7.44219H38.1747C36.4241 7.44219 35.6393 7.93019 35.3374 8.94683L34.3514 12.1798H44.8757C46.6264 12.1798 47.4112 11.6918 47.7131 10.6752ZM32.7818 16.3685L31.7958 19.6015H42.3201C44.0507 19.6015 44.8556 19.1135 45.1575 18.0969L46.1435 14.8638H35.6192C33.8886 14.8638 33.1038 15.3518 32.7818 16.3685ZM50.168 3.27385L51.1543 0.0408409H40.6298C38.8791 0.0408409 38.0943 0.52884 37.7924 1.54551L36.8064 4.77851H47.3307C49.0615 4.77851 49.846 4.29051 50.168 3.27385ZM34.2709 3.92451C33.8282 0.915177 32.2385 0.0408409 28.3748 0.0408409H21.3318L17.2267 12.1798H19.8226C21.372 12.1798 22.1569 12.2002 22.9819 9.96351L24.6924 4.75818H27.3083C29.542 4.75818 29.0389 7.58453 27.912 10.3295C26.9059 12.7492 25.1552 14.8842 23.0422 14.8842H18.6756C16.9249 14.8842 16.12 15.3722 15.798 16.3889L14.7113 19.6218H17.9109L21.0501 19.6015C23.8271 19.5812 26.101 19.3778 28.7572 16.9582C31.5744 14.3758 34.8343 7.74717 34.2709 3.92451ZM69.6473 0.0205078H63.5501L57.8149 6.18151C57.1506 6.89317 56.4666 7.60483 55.8023 8.43853H55.7419L58.5994 0.0205078H53.6294L46.9283 19.6015H51.8987L54.0315 13.4405L56.245 11.5495L57.9959 17.1209C58.5391 18.8492 59.1029 19.6015 60.3103 19.6015H64.1135L60.2094 8.66219L69.6473 0.0205078Z" fill="#00B33C"/>
</g>
<defs>
<clipPath id="clip0_795_6873">
<rect width="70" height="20" fill="white"/>
</clipPath>
</defs>
</svg>
