<svg width="124" height="61" viewBox="0 0 124 61" fill="none" xmlns="http://www.w3.org/2000/svg">
<g clip-path="url(#clip0_880_7381)">
<path d="M60.0424 0.0424805H0V60.9302H60.0424V0.0424805Z" fill="white"/>
<path d="M122.196 0H63.8428V61H124V0H122.196Z" fill="white"/>
<path d="M120.394 3.66113H67.4531V57.3389H120.394V3.66113Z" fill="#0055A6"/>
<path d="M32.4713 42.9749C31.8108 42.1568 31.4787 41.0862 31.4787 39.7909C31.4787 38.4596 31.7989 37.3889 32.4277 36.607C33.1119 35.7489 34.1243 35.3158 35.4332 35.3158H35.5321V33.0942H35.4332C33.3927 33.0942 31.8187 33.7439 30.751 35.0191C29.7821 36.1739 29.2918 37.786 29.2918 39.807C29.2918 41.7598 29.8257 43.3638 30.8775 44.5789C31.9848 45.854 33.5271 46.5037 35.4649 46.5037H35.5637V44.2822H35.4649C34.1836 44.2822 33.1791 43.8451 32.4713 42.9749ZM24.7005 42.9749C24.0401 42.1568 23.704 41.0862 23.704 39.7909C23.704 38.4596 24.0242 37.3889 24.653 36.607C25.3372 35.7489 26.3496 35.3158 27.6585 35.3158H27.7573V33.0942H27.6585C25.618 33.0942 24.044 33.7439 22.9763 35.0191C22.0074 36.1739 21.5171 37.786 21.5171 39.807C21.5171 41.7598 22.0509 43.3638 23.1028 44.5789C24.2101 45.854 25.7524 46.5037 27.6901 46.5037H27.789V44.2822H27.6901C26.4128 44.2822 25.4044 43.8451 24.7005 42.9749ZM31.8425 21.3651V27.5445H34.1638V14.7526H31.8425V19.2077H30.5809C30.0589 19.2077 29.6714 19.0873 29.4262 18.8507C29.2483 18.6824 29.1613 18.4578 29.1613 18.1651V14.7526H26.8399V18.4056C26.8399 19.2478 27.1682 19.9575 27.8167 20.523C28.4574 21.0803 29.2403 21.3651 30.1499 21.3651H31.8425ZM54.0475 32.7935L53.8854 32.9659C53.8854 32.9659 49.5669 37.5373 49.2466 37.8742V33.403H47.2179V46.1187H49.2466V40.8937C49.298 40.8376 51.8961 38.0506 52.1848 37.7379C52.2007 38.195 52.4775 46.1187 52.4775 46.1187H54.5457L54.0475 32.7935ZM38.8658 27.5404H41.1872V16.8778H43.1447V14.7526H36.9399V16.8778H38.8658V27.5404ZM44.2084 32.9659C44.2084 32.9659 39.8901 37.5373 39.5697 37.8742V33.403H37.541V46.1187H39.5697V40.8937C39.6212 40.8376 42.2193 38.0506 42.508 37.7379C42.5238 38.195 42.8006 46.1187 42.8006 46.1187H44.8688L44.3706 32.7935L44.2084 32.9659ZM48.3845 16.8778H49.2229C49.82 16.8778 50.2313 17.0583 50.4804 17.4352C50.6821 17.748 50.8245 18.3495 50.9154 19.1756H48.3251C48.3331 18.9149 48.3766 17.1224 48.3845 16.8778ZM48.2856 21.2968C48.5387 21.2968 50.9471 21.2968 51.1804 21.2968C51.2081 21.5575 51.8329 27.5404 51.8329 27.5404H54.1701L53.0983 18.1891C53.0983 16.9621 52.7266 16.0398 51.991 15.4543C51.4058 14.9852 50.6031 14.7445 49.6064 14.7445H46.1699L45.7429 27.5364H48.0641C48.0602 27.5404 48.2738 21.5775 48.2856 21.2968ZM7.83417 16.8778H10.7092V27.5404H13.0305V14.7485H5.51679V27.5404H7.83813V16.8778H7.83417ZM8.92169 40.3484C8.7556 40.6731 8.56182 40.8376 8.34432 40.8376C8.13473 40.8376 7.95677 40.6972 7.80649 40.4045C7.64436 40.0957 7.56131 39.6426 7.56131 39.0612V35.3198H7.64832C8.12681 35.3198 8.49459 35.5884 8.76746 36.1378C9.04824 36.7073 9.1906 37.6135 9.1906 38.8405C9.1906 39.4902 9.09965 39.9994 8.92169 40.3484ZM7.65227 33.423H5.50098V46.1147H7.56131V42.4255C7.96073 42.7784 8.39573 42.9909 8.87424 42.9909C9.55838 42.9909 10.1318 42.622 10.5707 41.9002C11.0651 41.0862 11.3142 39.8792 11.3142 38.3152C11.3142 37.2246 11.1125 36.2501 10.7171 35.416C10.0962 34.0927 9.06406 33.423 7.65227 33.423ZM21.4577 24.4126C21.1572 25.2427 20.7301 25.6437 20.1606 25.6437C19.6109 25.6437 19.1997 25.2347 18.8951 24.3966C18.5788 23.5184 18.4167 22.4077 18.4167 21.0883C18.4167 19.737 18.5749 18.6222 18.8832 17.7801C19.1799 16.9741 19.5952 16.5811 20.1566 16.5811C20.7855 16.5811 21.2323 16.9781 21.525 17.7921C21.7939 18.542 21.9323 19.6367 21.9323 21.0483C21.9362 22.4157 21.7741 23.5464 21.4577 24.4126ZM23.2492 25.8603C23.9372 24.6533 24.2852 23.0372 24.2852 21.0522C24.2852 19.0914 23.9254 17.4874 23.2136 16.2804C22.4859 15.0493 21.4577 14.4277 20.1528 14.4277C18.9149 14.4277 17.9342 15.0574 17.2302 16.2924C16.5422 17.4994 16.1942 19.1075 16.1942 21.0723C16.1942 23.1013 16.5263 24.7414 17.1868 25.9444C17.8591 27.1795 18.8596 27.805 20.1528 27.805C21.4696 27.8011 22.5136 27.1475 23.2492 25.8603ZM17.4398 43.055C17.167 43.8932 16.7676 44.3142 16.2535 44.3142C15.7592 44.3142 15.3677 43.8851 15.0988 43.035C14.814 42.1528 14.6716 41.034 14.6716 39.7067C14.6716 38.3474 14.814 37.2285 15.0909 36.3785C15.3558 35.5644 15.7473 35.1514 16.2535 35.1514C16.8269 35.1514 17.2381 35.5564 17.5032 36.3944C17.7444 37.1524 17.8709 38.2551 17.8709 39.6707C17.867 41.0461 17.7246 42.1849 17.4398 43.055ZM18.9742 34.9309C18.3296 33.7158 17.4161 33.0983 16.2574 33.0983C15.162 33.0983 14.2881 33.7198 13.6632 34.9429C13.0503 36.1459 12.7379 37.7418 12.7379 39.6907C12.7379 41.7117 13.0344 43.3398 13.6237 44.5348C14.2208 45.7538 15.1067 46.3713 16.2574 46.3713C17.428 46.3713 18.3494 45.7257 19.0059 44.4465C19.6188 43.2516 19.9313 41.6436 19.9313 39.6707C19.9273 37.7258 19.607 36.1298 18.9742 34.9309Z" fill="#0055A6"/>
<path d="M82.0889 19.7334C82.5318 20.7319 83.2634 21.7504 85.2527 23.1299C85.6955 23.4386 86.1898 24.0802 85.8142 24.9824C85.4385 25.8847 84.7385 27.1679 85.1577 27.6651C85.5808 28.1663 87.0757 28.427 88.2976 27.9258C88.2976 27.9258 88.5547 28.7077 89.0016 29.2089C89.0016 29.2089 88.792 29.6381 88.0881 29.4255C88.0881 29.4255 88.3451 30.0671 87.9932 30.7568C87.9932 30.7568 87.1746 30.6165 86.8225 29.8546C86.8225 29.8546 86.4944 30.448 85.8418 30.6606C85.8418 30.6606 85.3001 30.3759 85.4187 29.2852C85.4187 29.2852 85.0193 30.2596 83.8013 30.4241C83.8013 30.4241 83.0973 29.5218 84.0109 28.3107C84.0109 28.3107 83.3544 28.9042 82.1601 28.6195C82.1601 28.6195 81.9743 28.0019 83.0499 27.1478C83.0499 27.1478 81.8319 27.0998 81.3613 26.0572C81.3613 26.0572 81.8754 25.4155 83.1409 25.5599C83.1409 25.5599 81.9704 25.2992 81.7132 23.8716C81.7132 23.8716 82.5556 23.3263 83.8923 24.2045C83.8923 24.2045 83.6589 23.7514 83.0973 23.3023C82.5358 22.8451 81.8557 21.586 82.0889 19.7334Z" fill="white"/>
<path d="M86.9933 34.0607C86.8154 33.8202 86.6848 33.5836 86.5859 33.355C86.7956 35.0833 86.8707 36.2502 87.7921 37.369C87.7921 37.369 88.3458 36.6192 87.9899 34.7986C87.8357 34.7505 87.6617 34.6784 87.4955 34.566C87.4955 34.566 87.7051 35.3039 87.5747 36.0498C87.5707 36.0457 87.2385 35.8011 86.9933 34.0607Z" fill="white"/>
<path d="M85.3995 33.8806C85.2889 33.7403 85.0792 33.4435 84.9685 33.231C84.8934 34.2335 84.6324 36.8761 85.5024 37.7022C85.5024 37.7022 86.0995 37.2571 86.313 33.4074C86.1865 33.624 85.965 33.8525 85.8583 33.9769C85.8583 33.9769 86.0046 35.1999 85.5696 36.0621C85.5696 36.058 85.1346 35.7252 85.3995 33.8806Z" fill="white"/>
<path d="M83.3191 35.8976C84.0547 35.0074 84.2721 32.3407 84.2721 32.3407C84.3749 32.2726 84.4738 32.1965 84.5766 32.1122C84.6202 32.0761 84.6597 32.0441 84.6993 32.0039C84.6993 32.1002 84.7032 32.2004 84.7112 32.3007C84.6044 33.9047 84.4817 35.5608 83.9875 36.3829C83.501 37.1889 82.6152 37.6099 82.6152 37.6099C81.7808 36.1062 82.7892 34.0812 83.6354 32.6777C83.7383 32.6375 83.845 32.5894 83.9518 32.5333C83.6513 33.62 83.0897 34.9072 83.3191 35.8976Z" fill="white"/>
<path d="M81.2506 31.266C81.2467 31.4386 81.2783 31.5789 81.2981 31.6511C81.306 31.6791 81.3179 31.7192 81.3376 31.7593C80.6377 32.4571 80.1197 33.1187 79.0835 34.5823C78.0435 36.042 76.4023 36.1021 76.4023 36.1021C76.5606 34.9192 76.8769 33.9849 77.7548 32.9743C78.6327 31.9678 79.7598 31.0455 80.5863 30.436C80.7998 30.5363 81.0766 30.5965 81.4286 30.5563C81.4563 30.5523 81.48 30.5483 81.5077 30.5443C81.397 30.6887 81.3298 30.837 81.2942 30.9733C80.6694 31.3382 78.8542 32.2726 78.1187 33.7764C78.1187 33.7804 79.2694 33.4155 81.2506 31.266Z" fill="white"/>
<path d="M79.9503 29.7943L80.0175 29.67C80.0411 29.6299 80.0649 29.5898 80.0886 29.5537C79.4163 29.8224 77.008 30.7407 76.2289 31.1497C75.4499 31.5587 74.3228 32.489 73.7139 34.3777C73.7139 34.3777 75.3352 34.5261 76.6758 33.4033C78.0164 32.2764 79.5746 30.7085 80.2428 30.2073C80.1756 30.1432 80.1242 30.083 80.0886 30.0349C80.0886 30.0349 78.2774 31.663 76.3595 32.3647C76.3595 32.3647 76.7707 31.6108 77.526 31.0614C78.4514 30.3958 79.1395 30.1753 79.9503 29.7943Z" fill="white"/>
<path d="M78.5732 28.6836C78.597 28.6195 78.6247 28.5553 78.6523 28.4951C77.8575 28.6595 75.8762 28.9002 74.9864 29.1769C74.1006 29.4535 72.499 30.1112 71.5459 31.9477C71.5459 31.9477 72.9419 32.3849 75.5757 31.1257C78.2094 29.8706 79.0359 29.6099 79.5382 29.4776C79.1348 29.4455 78.854 29.3092 78.7038 29.217C77.6558 29.6901 76.248 30.2515 74.852 30.2876C74.852 30.2876 75.54 29.7944 76.2637 29.4857C77.0547 29.1568 77.9167 28.8521 78.5732 28.6836Z" fill="white"/>
<path d="M78.6412 27.36C78.8984 27.4844 79.096 27.5445 79.4322 27.5806C79.2503 27.7009 79.0724 27.8532 78.9181 28.0578C77.9888 28.3305 76.407 28.6272 73.7969 28.8157C71.1869 29.0082 69.7949 28.5189 69.7949 28.5189C70.7044 27.9575 72.1557 27.3841 73.1365 27.1916C74.1172 26.9991 76.6917 27.0192 77.8226 26.8628C77.8345 26.8748 77.973 26.9911 78.1944 27.1235C77.2453 27.2076 75.2206 27.3079 74.1765 27.8412C74.1765 27.8452 76.1024 28.1059 78.6412 27.36Z" fill="white"/>
<path d="M78.4433 25.8367C78.5737 25.7564 78.7319 25.6802 78.9257 25.608C77.6049 25.2031 75.7897 24.5534 73.0611 24.373C71.056 24.2406 69.6126 24.3569 68.8652 24.5534C68.8652 24.5534 70.6883 25.8567 72.7724 26.3178C74.8564 26.779 76.549 26.4862 77.7868 26.4942C77.8698 26.3699 77.9608 26.2336 78.1071 26.0933C76.6597 26.1013 74.2513 25.7243 73.3893 25.4316C73.3932 25.4316 75.4931 24.9865 78.4433 25.8367Z" fill="white"/>
<path d="M78.4395 24.2605C78.4474 24.2966 78.6016 25.0546 79.4637 25.4716C77.609 24.6456 73.9549 24.1724 71.9896 23.3464C69.3321 22.2275 68.8496 20.832 68.8496 20.832C71.1472 20.7719 73.0059 21.3413 74.4374 21.7864C76.1142 22.3077 78.6689 23.2742 79.5626 23.6791C79.2265 23.6912 78.8627 23.7915 78.5502 24C77.3006 23.5147 76.7192 23.3103 75.5882 22.9894C74.6945 22.7368 74.034 22.6847 73.4726 22.6326C73.4726 22.6326 74.2595 23.1618 75.5566 23.5829C76.8379 23.9919 77.3955 24.0601 78.4395 24.2605Z" fill="white"/>
<path d="M78.2972 22.2071C78.3723 22.3394 78.5899 22.6602 78.6769 22.7885C75.7426 22.2913 72.5156 20.0377 71.519 18.6462C70.5225 17.2507 70.8072 15.1655 70.8072 15.1655C71.7721 15.366 73.876 17.2026 74.4217 17.756C74.9674 18.3094 76.6125 19.9294 77.7515 20.8396L78.1074 21.8863C77.1306 21.0923 75.9719 20.2021 75.2522 19.6527C74.6985 19.2276 73.8641 18.6262 73.0415 18.3415C73.0415 18.3415 73.8048 19.348 74.4177 19.8372C75.1257 20.4066 75.8493 20.8998 76.4425 21.2286C76.9605 21.5174 77.2294 21.6818 78.2972 22.2071Z" fill="white"/>
<path d="M86.5739 30.5362C86.6649 30.46 86.74 30.3798 86.8032 30.3076C86.9377 30.48 87.3925 31.0574 87.6139 31.6268C87.7839 32.1161 87.9619 32.7777 88.0529 33.1627C88.1438 33.5437 88.4088 34.3297 88.571 34.6023C88.571 34.6023 87.8551 34.6945 87.3292 34.069C86.8112 33.4515 86.6332 32.8338 86.5502 32.2003C86.4868 31.699 86.5066 31.0093 86.5739 30.5362Z" fill="white"/>
<path d="M85.4472 30.6284C85.5817 30.8089 85.7082 30.8811 85.7201 30.8891L85.815 30.9412L85.9178 30.9091C86.0048 30.8811 86.0879 30.845 86.167 30.8089C86.2698 31.1016 86.3133 31.2459 86.337 31.4946C86.3726 31.8234 86.4359 32.3487 86.3133 32.7738C86.163 33.2911 85.8585 33.6079 85.6884 33.8083C85.6884 33.8083 85.2218 33.2871 85.0874 32.854C84.9489 32.4048 84.8975 31.8795 85.0715 31.3422C85.1625 31.0495 85.3127 30.7808 85.4472 30.6284Z" fill="white"/>
<path d="M83.8329 30.6804C84.3115 30.6163 84.6753 30.4399 84.9442 30.2354C85.0036 30.4078 85.0985 30.6363 85.0272 30.9612C84.9561 31.286 84.7347 31.6469 84.4143 31.9076C83.9318 32.2965 83.2872 32.6654 82.5754 32.5532C82.5794 32.5571 82.4133 32.0118 83.8329 30.6804Z" fill="white"/>
<path d="M83.2953 29.7744C83.3546 30.2556 83.5801 30.5604 83.5998 30.5845C83.4337 30.785 82.8326 31.8356 81.575 31.6591C81.575 31.6591 81.235 30.9454 82.0733 30.3799C82.6389 29.991 82.9038 29.9148 83.2953 29.7744Z" fill="white"/>
<path d="M83.4019 28.8797C83.0658 28.964 82.6308 29.0001 82.1009 28.8717L81.9585 28.8356L81.9151 28.6953C81.2705 29.2287 80.5032 29.3169 80.2422 29.7981C80.2422 29.7981 80.5625 30.4036 81.4009 30.3033C82.2353 30.203 82.8641 29.8061 83.311 29.2367C83.3268 29.1445 83.3624 28.988 83.4019 28.8797Z" fill="white"/>
<path d="M81.9552 28.1303C82.0737 27.9538 82.1568 27.6772 82.406 27.3965C81.8523 27.3002 81.354 27.2922 80.7055 27.4165C79.9344 27.5649 79.1474 27.7494 78.7559 28.9364C78.7559 28.9364 79.2502 29.3654 80.1479 29.1769C80.9111 29.0205 81.5795 28.6877 81.9552 28.1303Z" fill="white"/>
<path d="M81.6306 26.8388C81.4368 26.6703 81.2588 26.4457 81.1283 26.1611L81.0611 26.0127C80.3927 25.736 79.6967 25.5957 79.0165 25.8523C78.3364 26.1089 78.1545 26.4096 77.9805 26.6664C77.9805 26.6664 78.7357 27.308 79.6058 27.332C80.4797 27.3561 81.2826 27.1034 81.6306 26.8388Z" fill="white"/>
<path d="M81.8323 25.4472C81.9469 25.4031 82.0775 25.3631 82.2238 25.3309C81.9271 25.0663 81.6346 24.6653 81.4961 24.0638C81.1877 24.1359 80.4561 24.1359 80.1358 24.0117C79.8155 23.8874 79.1827 23.8793 78.6924 24.2122C78.6924 24.2122 78.8584 25.0863 79.9736 25.3831C81.0176 25.6677 81.4052 25.5916 81.8323 25.4472Z" fill="white"/>
<path d="M81.4289 23.7393L81.5752 23.6431C81.595 23.6311 81.8441 23.4746 82.2712 23.4426C81.9113 23.1699 81.0571 22.4441 80.452 22.0992C79.7917 21.7223 78.6963 21.225 78.1387 21.1528C78.1387 21.1528 78.6606 22.5443 79.2696 23.1057C79.9023 23.6872 80.3453 23.9037 81.4289 23.7393Z" fill="white"/>
<path d="M82.5556 23.1015C82.2867 22.7487 82.0771 22.2635 81.9229 21.6941C81.7963 21.2288 81.5116 20.074 81.3376 19.7733C81.1676 19.4726 80.5507 18.4259 79.3445 18.1011C79.3445 18.1011 79.0242 19.4645 79.6292 20.5472C80.1552 21.4735 81.2268 22.456 82.5556 23.1015Z" fill="white"/>
<path d="M89.2348 29.4492C89.3851 29.6016 89.4998 29.6858 89.7687 29.8223C89.7687 29.8223 90.1523 30.5681 89.6896 31.4623C89.2229 32.3606 88.8314 33.2788 88.6416 33.7841C88.6416 33.7841 88.3925 33.748 88.1157 32.3404C87.9258 31.3861 87.6886 31.1495 87.4434 30.8247C87.7124 30.9651 87.9337 31.0052 87.9496 31.0092L88.1355 31.0412L88.2185 30.8728C88.3846 30.5481 88.4321 30.2352 88.4321 29.9786C88.4321 29.8943 88.4242 29.8142 88.4162 29.742C88.8473 29.754 89.0767 29.5295 89.1676 29.4172C89.1755 29.4051 89.1835 29.3972 89.1874 29.3892L89.2348 29.4492Z" fill="white"/>
<path d="M79.0084 18.6707C79.0044 18.799 79.0005 18.9474 79.0044 19.0998L79.0282 19.4326C78.3203 18.5144 77.4661 17.4036 76.6554 16.381C76.0978 15.6793 75.6312 15.2582 75.1052 14.9133C75.5442 16.2126 76.3351 17.2472 76.8927 17.7645C77.4503 18.2818 78.257 19.1519 79.044 19.6853L79.1191 19.9499C79.1824 20.1906 79.2733 20.4391 79.4039 20.6717C79.5858 21.0005 79.8309 21.3254 80.1157 21.6341C79.8864 21.5219 79.6213 21.3975 79.3603 21.2812L79.1152 21.1769C76.9481 20.0141 74.7967 17.6001 73.9268 15.9159C73.0567 14.2356 73.4166 12.2868 73.65 11.2402C74.6307 12.0863 76.0503 13.7505 76.6673 14.6567C77.4265 15.7675 78.3994 17.3434 79.0005 18.6266V18.6707H79.0084Z" fill="white"/>
<path d="M109.404 25.8367C109.273 25.7564 109.115 25.6802 108.917 25.608C110.238 25.2031 112.053 24.5534 114.782 24.373C116.786 24.2406 118.23 24.3569 118.977 24.5534C118.977 24.5534 117.154 25.8567 115.071 26.3178C112.986 26.779 111.293 26.4862 110.056 26.4942C109.973 26.3699 109.882 26.2336 109.736 26.0933C111.183 26.1013 113.591 25.7243 114.454 25.4316C114.454 25.4316 112.353 24.9865 109.404 25.8367Z" fill="white"/>
<path d="M109.408 24.2605C109.4 24.2966 109.249 25.0546 108.384 25.4716C110.238 24.6456 113.893 24.1724 115.857 23.3464C118.516 22.2275 118.997 20.832 118.997 20.832C116.7 20.7719 114.842 21.3413 113.41 21.7864C111.734 22.3077 109.179 23.2742 108.285 23.6791C108.621 23.6912 108.985 23.7915 109.294 24C110.543 23.5147 111.124 23.3103 112.255 22.9894C113.149 22.7368 113.813 22.6847 114.371 22.6326C114.371 22.6326 113.584 23.1618 112.287 23.5829C111.006 23.9919 110.452 24.0601 109.408 24.2605Z" fill="white"/>
<path d="M109.55 22.2071C109.474 22.3394 109.257 22.6602 109.17 22.7885C112.104 22.2913 115.331 20.0377 116.328 18.6462C117.324 17.2507 117.039 15.1655 117.039 15.1655C116.071 15.366 113.971 17.2026 113.425 17.756C112.88 18.3094 111.234 19.9294 110.099 20.8396L109.744 21.8863C110.72 21.0923 111.878 20.2021 112.599 19.6527C113.152 19.2276 113.982 18.6262 114.813 18.3415C114.813 18.3415 114.05 19.348 113.437 19.8372C112.729 20.4066 112.01 20.8998 111.412 21.2286C110.886 21.5174 110.614 21.6818 109.55 22.2071Z" fill="white"/>
<path d="M108.838 18.6707C108.842 18.799 108.846 18.9474 108.838 19.0998L108.815 19.4326C109.526 18.5144 110.376 17.4036 111.191 16.381C111.749 15.6793 112.216 15.2582 112.742 14.9133C112.302 16.2126 111.515 17.2472 110.954 17.7645C110.396 18.2818 109.589 19.1519 108.802 19.6853L108.728 19.9499C108.664 20.1906 108.573 20.4391 108.443 20.6717C108.257 21.0005 108.015 21.3254 107.731 21.6341C107.96 21.5219 108.225 21.3975 108.487 21.2812L108.732 21.1769C110.899 20.0141 113.05 17.6001 113.92 15.9159C114.79 14.2356 114.431 12.2868 114.197 11.2402C113.212 12.0863 111.796 13.7505 111.179 14.6567C110.421 15.7675 109.447 17.3434 108.846 18.6266V18.6707H108.838Z" fill="white"/>
<path d="M81.7769 31.9396C80.8832 32.8459 79.0008 34.879 79.1788 37.0844C79.1788 37.0844 80.9267 36.5311 81.6464 35.2278C82.3662 33.9286 82.813 33.1146 83.1136 32.8178C82.9198 32.8459 82.7221 32.8459 82.5362 32.8138L82.378 32.7858C81.9351 33.6038 81.0532 34.9471 80.2623 35.4163C80.2623 35.4163 80.0606 34.3296 82.386 32.1241C82.4215 32.0359 82.465 31.9316 82.5322 31.8193C82.3188 31.8955 82.0775 31.9437 81.8046 31.9356" fill="white"/>
<path d="M105.757 19.7334C105.311 20.7319 104.579 21.7504 102.594 23.1299C102.147 23.4386 101.656 24.0802 102.032 24.9824C102.408 25.8847 103.107 27.1679 102.688 27.6651C102.265 28.1663 100.767 28.427 99.5526 27.9258C99.5526 27.9258 99.2954 28.7077 98.8486 29.2089C98.8486 29.2089 99.0582 29.6381 99.7621 29.4255C99.7621 29.4255 99.505 30.0671 99.857 30.7568C99.857 30.7568 100.676 30.6165 101.028 29.8546C101.028 29.8546 101.356 30.448 102.012 30.6606C102.012 30.6606 102.55 30.3759 102.435 29.2852C102.435 29.2852 102.835 30.2596 104.049 30.4241C104.049 30.4241 104.753 29.5218 103.839 28.3107C103.839 28.3107 104.496 28.9042 105.69 28.6195C105.69 28.6195 105.876 28.0019 104.8 27.1478C104.8 27.1478 106.018 27.0998 106.489 26.0572C106.489 26.0572 105.971 25.4155 104.709 25.5599C104.709 25.5599 105.879 25.2992 106.137 23.8716C106.137 23.8716 105.294 23.3263 103.958 24.2045C103.958 24.2045 104.192 23.7514 104.753 23.3023C105.311 22.8451 105.99 21.586 105.757 19.7334Z" fill="white"/>
<path d="M100.854 34.0607C101.032 33.8202 101.163 33.5836 101.261 33.355C101.052 35.0833 100.977 36.2502 100.055 37.369C100.055 37.369 99.5017 36.6192 99.8576 34.7986C100.012 34.7505 100.186 34.6784 100.352 34.566C100.352 34.566 100.142 35.3039 100.273 36.0498C100.277 36.0457 100.609 35.8011 100.854 34.0607Z" fill="white"/>
<path d="M102.444 33.8806C102.554 33.7403 102.764 33.4435 102.879 33.231C102.954 34.2335 103.215 36.8761 102.345 37.7022C102.345 37.7022 101.748 37.2571 101.534 33.4074C101.661 33.624 101.882 33.8525 101.989 33.9769C101.989 33.9769 101.843 35.1999 102.278 36.0621C102.278 36.058 102.712 35.7252 102.444 33.8806Z" fill="white"/>
<path d="M104.524 35.8976C103.788 35.0074 103.57 32.3407 103.57 32.3407C103.467 32.2726 103.369 32.1965 103.266 32.1122C103.222 32.0761 103.183 32.0441 103.143 32.0039C103.143 32.1002 103.139 32.2004 103.131 32.3007C103.238 33.9047 103.36 35.5608 103.855 36.3829C104.341 37.1889 105.228 37.6099 105.228 37.6099C106.062 36.1062 105.053 34.0812 104.211 32.6777C104.104 32.6375 104.001 32.5894 103.894 32.5333C104.196 33.62 104.756 34.9072 104.524 35.8976Z" fill="white"/>
<path d="M106.596 31.266C106.6 31.4386 106.568 31.5789 106.549 31.6511C106.541 31.6791 106.528 31.7192 106.509 31.7593C107.205 32.4571 107.727 33.1187 108.763 34.5823C109.799 36.042 111.444 36.1021 111.444 36.1021C111.286 34.9192 110.97 33.9849 110.091 32.9743C109.214 31.9678 108.087 31.0455 107.264 30.436C107.051 30.5363 106.774 30.5965 106.426 30.5563C106.398 30.5523 106.37 30.5483 106.343 30.5443C106.453 30.6887 106.521 30.837 106.56 30.9733C107.185 31.3382 109 32.2726 109.736 33.7764C109.728 33.7804 108.577 33.4155 106.596 31.266Z" fill="white"/>
<path d="M107.898 29.7943L107.83 29.67C107.806 29.6299 107.783 29.5898 107.758 29.5537C108.43 29.8224 110.84 30.7407 111.619 31.1497C112.397 31.5587 113.521 32.489 114.133 34.3777C114.133 34.3777 112.512 34.5261 111.172 33.4033C109.831 32.2764 108.273 30.7085 107.604 30.2073C107.672 30.1432 107.723 30.083 107.758 30.0349C107.758 30.0349 109.57 31.663 111.487 32.3647C111.487 32.3647 111.076 31.6108 110.321 31.0614C109.396 30.3958 108.704 30.1753 107.898 29.7943Z" fill="white"/>
<path d="M109.273 28.6836C109.245 28.6195 109.218 28.5553 109.19 28.4951C109.985 28.6595 111.97 28.9002 112.857 29.1769C113.742 29.4535 115.344 30.1112 116.297 31.9477C116.297 31.9477 114.901 32.3849 112.268 31.1257C109.634 29.8706 108.811 29.6099 108.305 29.4776C108.704 29.4455 108.989 29.3092 109.139 29.217C110.191 29.6901 111.595 30.2515 112.991 30.2876C112.991 30.2876 112.302 29.7944 111.579 29.4857C110.792 29.1568 109.93 28.8521 109.273 28.6836Z" fill="white"/>
<path d="M109.206 27.36C108.949 27.4844 108.747 27.5445 108.411 27.5806C108.594 27.7009 108.771 27.8532 108.926 28.0578C109.855 28.3305 111.436 28.6272 114.046 28.8157C116.657 29.0082 118.048 28.5189 118.048 28.5189C117.139 27.9575 115.688 27.3841 114.707 27.1916C113.727 26.9991 111.148 27.0192 110.021 26.8628C110.009 26.8748 109.87 26.9911 109.649 27.1235C110.598 27.2076 112.623 27.3079 113.667 27.8412C113.671 27.8452 111.745 28.1059 109.206 27.36Z" fill="white"/>
<path d="M101.272 30.5362C101.182 30.46 101.106 30.3798 101.039 30.3076C100.905 30.48 100.454 31.0574 100.229 31.6268C100.059 32.1161 99.8766 32.7777 99.7896 33.1627C99.6986 33.5437 99.4337 34.3297 99.2715 34.6023C99.2715 34.6023 99.9873 34.6945 100.517 34.069C101.039 33.4515 101.213 32.8338 101.296 32.2003C101.36 31.699 101.34 31.0093 101.272 30.5362Z" fill="white"/>
<path d="M102.4 30.6284C102.269 30.8089 102.139 30.8811 102.127 30.8891L102.032 30.9412L101.929 30.9091C101.842 30.8811 101.759 30.845 101.684 30.8089C101.581 31.1016 101.538 31.2459 101.514 31.4946C101.479 31.8234 101.415 32.3487 101.538 32.7738C101.688 33.2911 101.993 33.6079 102.163 33.8083C102.163 33.8083 102.629 33.2871 102.764 32.854C102.902 32.4048 102.954 31.8795 102.78 31.3422C102.685 31.0495 102.535 30.7808 102.4 30.6284Z" fill="white"/>
<path d="M104.014 30.6804C103.535 30.6163 103.171 30.4399 102.899 30.2354C102.839 30.4078 102.744 30.6363 102.816 30.9612C102.882 31.286 103.108 31.6469 103.429 31.9076C103.907 32.2965 104.556 32.6654 105.267 32.5532C105.267 32.5571 105.429 32.0118 104.014 30.6804Z" fill="white"/>
<path d="M104.551 29.7744C104.496 30.2556 104.267 30.5604 104.247 30.5845C104.413 30.785 105.014 31.8356 106.272 31.6591C106.272 31.6591 106.611 30.9454 105.773 30.3799C105.207 29.991 104.939 29.9148 104.551 29.7744Z" fill="white"/>
<path d="M104.44 28.8797C104.777 28.964 105.211 29.0001 105.745 28.8717L105.887 28.8356L105.932 28.6953C106.576 29.2287 107.339 29.3169 107.604 29.7981C107.604 29.7981 107.283 30.4036 106.449 30.3033C105.615 30.203 104.982 29.8061 104.539 29.2367C104.519 29.1445 104.479 28.988 104.44 28.8797Z" fill="white"/>
<path d="M105.892 28.1303C105.769 27.9538 105.69 27.6772 105.437 27.3965C105.99 27.3002 106.493 27.2922 107.138 27.4165C107.908 27.5649 108.695 27.7494 109.087 28.9364C109.087 28.9364 108.593 29.3654 107.695 29.1769C106.932 29.0205 106.268 28.6877 105.892 28.1303Z" fill="white"/>
<path d="M106.216 26.8388C106.411 26.6703 106.588 26.4457 106.715 26.1611L106.782 26.0127C107.45 25.736 108.147 25.5957 108.826 25.8523C109.511 26.1089 109.689 26.4096 109.862 26.6664C109.862 26.6664 109.107 27.308 108.237 27.332C107.367 27.3561 106.564 27.1034 106.216 26.8388Z" fill="white"/>
<path d="M106.015 25.4472C105.901 25.4031 105.773 25.3631 105.628 25.3309C105.924 25.0663 106.213 24.6653 106.356 24.0638C106.667 24.1359 107.395 24.1359 107.715 24.0117C108.036 23.8874 108.664 23.8793 109.159 24.2122C109.159 24.2122 108.996 25.0863 107.881 25.3831C106.83 25.6677 106.439 25.5916 106.015 25.4472Z" fill="white"/>
<path d="M106.414 23.7393L106.268 23.6431C106.248 23.6311 105.999 23.4746 105.571 23.4426C105.932 23.1699 106.786 22.4441 107.391 22.0992C108.051 21.7223 109.147 21.225 109.704 21.1528C109.704 21.1528 109.183 22.5443 108.573 23.1057C107.941 23.6872 107.498 23.9037 106.414 23.7393Z" fill="white"/>
<path d="M105.287 23.1015C105.552 22.7487 105.766 22.2635 105.919 21.6941C106.046 21.2288 106.334 20.074 106.505 19.7733C106.675 19.4726 107.292 18.4259 108.498 18.1011C108.498 18.1011 108.819 19.4645 108.213 20.5472C107.687 21.4735 106.619 22.456 105.287 23.1015Z" fill="white"/>
<path d="M98.6079 29.4492C98.4537 29.6016 98.343 29.6858 98.0741 29.8223C98.0741 29.8223 97.6904 30.5681 98.1531 31.4623C98.6198 32.3606 99.0113 33.2788 99.2011 33.7841C99.2011 33.7841 99.4502 33.748 99.7271 32.3404C99.9169 31.3861 100.154 31.1495 100.399 30.8247C100.13 30.9651 99.909 31.0052 99.8931 31.0092L99.7073 31.0412L99.6203 30.8728C99.4542 30.5481 99.4068 30.2352 99.4068 29.9786C99.4068 29.8943 99.4147 29.8142 99.4226 29.742C98.9915 29.754 98.7622 29.5295 98.6712 29.4172C98.6633 29.4051 98.6554 29.3972 98.6515 29.3892L98.6079 29.4492Z" fill="white"/>
<path d="M106.066 31.9396C106.959 32.8459 108.842 34.879 108.664 37.0844C108.664 37.0844 106.916 36.5311 106.196 35.2278C105.477 33.9286 105.03 33.1146 104.729 32.8178C104.923 32.8459 105.117 32.8459 105.306 32.8138L105.464 32.7858C105.908 33.6038 106.789 34.9471 107.58 35.4163C107.58 35.4163 107.782 34.3296 105.457 32.1241C105.421 32.0359 105.374 31.9316 105.311 31.8193C105.524 31.8955 105.766 31.9437 106.038 31.9356" fill="white"/>
<path d="M92.5576 14.3558C92.5576 14.1954 93.1705 14.0591 93.9259 14.0591C94.6812 14.0591 95.2902 14.1915 95.2902 14.3558C95.2902 14.5202 94.6772 14.6485 93.9259 14.6485C93.1705 14.6526 92.5576 14.5202 92.5576 14.3558Z" fill="white"/>
<path d="M87.918 15.9518C87.918 15.8637 88.3134 15.7915 88.7998 15.7915C89.2862 15.7915 89.6777 15.8637 89.6777 15.9518C89.6777 16.0401 89.2823 16.1123 88.7998 16.1123C88.3134 16.1123 87.918 16.0401 87.918 15.9518Z" fill="white"/>
<path d="M94.1902 15.0056C94.1902 15.158 94.0716 15.2782 93.9212 15.2782C93.771 15.2782 93.6523 15.158 93.6523 15.0056C93.6523 14.8532 93.771 14.7329 93.9212 14.7329C94.0716 14.7329 94.1902 14.8572 94.1902 15.0056Z" fill="white"/>
<path d="M92.4588 14.071C92.004 12.9722 91.6994 12.1622 91.7113 11.8895C91.7192 11.7252 91.913 11.6048 92.091 11.5447C92.2729 11.4886 92.435 11.4765 92.5537 11.5687C92.7909 11.7532 93.0084 13.2369 93.0915 13.8504C92.8621 13.8986 92.7277 13.9306 92.4588 14.071Z" fill="white"/>
<path d="M93.289 13.8304C93.4037 13.8184 93.5224 13.8104 93.641 13.8064C93.5698 13.217 93.3681 12.2345 93.2496 11.8496C93.1309 11.4645 92.9807 11.1838 92.7314 11.1157C92.7314 11.1157 92.9252 11.653 93.032 12.2105C93.1388 12.7678 93.2179 13.3011 93.289 13.8304Z" fill="white"/>
<path d="M91.8488 15.7994C92.347 15.6791 92.8612 15.1338 92.8612 15.1338C92.0545 15.2541 91.8488 15.7994 91.8488 15.7994ZM92.6002 15.7472C91.9041 16.1603 91.1172 16.0962 91.1172 16.0962C91.2674 15.8155 91.4099 15.5589 91.8488 15.238C92.2877 14.9212 92.9995 14.841 93.2803 14.8811C93.2171 15.0977 92.9323 15.5508 92.6002 15.7472Z" fill="white"/>
<path d="M89.9947 16.9142V16.8581C89.3065 16.9462 88.4958 16.9101 88.4958 16.9101C88.5394 17.1708 88.6462 17.3673 88.8281 17.4876C88.8676 16.9222 89.9947 16.9142 89.9947 16.9142ZM87.7129 16.1684C87.7129 16.1684 88.5789 16.4971 89.4489 16.453C90.3189 16.4089 91.9166 16.3889 92.4346 16.1362C92.4346 16.1362 92.3476 16.465 91.9364 16.6576C91.9364 16.6576 92.1538 16.6576 92.3674 16.846C92.3674 16.846 92.2408 17.1186 91.8731 17.263C91.8731 17.263 92.5335 17.9607 93.2413 17.9087C93.2413 17.9087 92.9171 18.3217 92.1895 18.1613C91.4658 18.0049 91.2324 17.5919 91.1099 17.4315C91.1099 17.4315 91.2048 17.8244 91.1613 17.9848C91.1613 17.9848 90.841 17.9648 90.5918 17.648C90.5918 17.648 90.7737 17.9648 90.8093 18.2335C90.8093 18.2335 90.6116 18.2575 90.2517 18.045C90.2517 18.045 90.3268 18.2414 90.3387 18.4701C90.3387 18.4701 89.5003 18.1974 89.093 17.8124C89.093 17.8124 89.0851 18.077 89.1049 18.2294C89.1128 18.2294 87.8117 18.0931 87.7129 16.1684Z" fill="white"/>
<path d="M87.5108 16.3008C87.5425 16.7178 87.6492 17.1308 87.7916 17.4236C87.7916 17.4236 87.2775 17.0306 87.1549 16.7018C87.0284 16.3689 87.0007 16.1444 87.5108 16.3008Z" fill="white"/>
<path d="M86.4866 17.8846C86.6053 17.8846 86.7002 17.7884 86.7002 17.6681C86.7002 17.5478 86.6053 17.4515 86.4866 17.4515C86.3681 17.4515 86.2732 17.5478 86.2732 17.6681C86.2732 17.7884 86.3681 17.8846 86.4866 17.8846ZM87.7364 17.632C88.0804 17.7884 88.3849 18.1654 88.3849 18.1654C87.8668 18.2856 87.6335 18.438 87.6335 18.438C86.6409 17.7283 85.8223 18.4461 85.8223 18.4461C85.2845 18.1373 85.1777 17.3794 85.4467 16.9824C85.7156 16.5814 86.3206 16.6536 86.6093 16.7218C86.7912 17.3032 87.4279 17.4917 87.7364 17.632Z" fill="white"/>
<path d="M88.4995 18.2979C88.4995 18.2979 88.8633 18.7871 89.1244 19.0036C89.1244 19.0036 87.7877 18.9915 87.4476 20.1625C87.4476 20.1625 86.9849 19.4447 87.325 18.9756C87.6888 18.4703 88.0211 18.4061 88.4995 18.2979Z" fill="white"/>
<path d="M89.9668 18.5904C89.9668 18.5904 90.3978 18.7188 90.5402 18.7549C90.5402 18.7549 90.5481 18.5022 90.5362 18.3818C90.6667 18.414 90.8289 18.4581 90.9673 18.4701C90.9673 18.4701 91.3983 19.4446 91.7345 19.8375C91.7345 19.8375 91.7542 20.054 91.5644 20.3828C91.5644 20.3828 91.3192 19.8055 90.8803 19.3443C90.6391 19.0796 90.4808 18.9513 89.9668 18.5904Z" fill="white"/>
<path d="M88.8281 18.3818C88.9666 18.422 89.6546 18.6385 89.9908 18.8832C90.41 19.1878 90.6987 19.5368 90.6512 20.1382C90.6512 20.1382 90.3151 19.6651 89.9394 19.4485C89.6467 19.2761 89.1129 18.7989 88.8281 18.3818Z" fill="white"/>
<path d="M88.8394 13.9668C88.9659 13.9668 89.2152 14.027 89.2152 14.2355C89.2152 14.444 88.8948 14.9452 88.8078 15.1698H88.7999C88.7129 14.9452 88.3926 14.444 88.3926 14.2355C88.3926 14.027 88.6417 13.9668 88.7683 13.9668H88.8394Z" fill="white"/>
<path d="M88.5591 15.5869C88.4998 15.2942 88.3851 14.5323 88.2071 14.3639C88.0371 14.2035 87.788 14.1875 87.6654 14.1955C87.5389 14.2035 87.4083 14.3358 87.4597 14.5043C87.5112 14.6767 88.0648 15.5188 88.136 15.623C88.2665 15.603 88.2428 15.611 88.5591 15.5869Z" fill="white"/>
<path d="M89.0488 15.5869C89.1121 15.2942 89.2228 14.5323 89.4009 14.3639C89.5709 14.2035 89.82 14.1875 89.9426 14.1955C90.0691 14.2035 90.1997 14.3358 90.1482 14.5043C90.0968 14.6767 89.5432 15.5188 89.472 15.623C89.3415 15.603 89.3692 15.611 89.0488 15.5869Z" fill="white"/>
<path d="M89.4055 12.9441H88.9744V12.459H88.6264V12.9441H88.1914V13.2489H88.6264V13.8184H88.9744V13.2489H89.4055V12.9441Z" fill="white"/>
<path d="M84.1734 16.0638C84.1734 15.9716 84.1813 15.8794 84.193 15.7872C84.2247 15.5506 84.2287 15.35 84.2049 15.1816C83.8965 15.3019 83.683 15.3782 83.2559 16.0799C83.2519 16.0799 83.936 15.6548 84.1734 16.0638Z" fill="white"/>
<path d="M84.7702 17.1789C84.7781 17.0065 84.8928 16.4571 85.0312 16.0681C85.2052 15.595 85.1063 14.9053 84.8968 14.4842C84.6951 14.0792 84.5804 13.7023 84.62 13.2812C84.62 13.2812 84.2166 13.4176 83.9833 13.5659C83.9437 14.0512 84.2245 14.5363 84.359 14.8131C84.5171 15.1419 84.4855 15.5629 84.4499 15.8235C84.3866 16.2647 84.4775 16.7338 84.7702 17.1789Z" fill="white"/>
<path d="M84.8141 13.4615C84.7983 13.4094 84.7983 13.253 84.8299 13.1928C84.8299 13.1928 85.4666 12.5633 86.0005 12.455C86.3366 12.3869 86.5462 12.5392 86.6451 12.6235C86.6451 12.6235 86.4552 12.5994 86.1705 12.836C85.8858 13.0726 85.5299 13.3573 85.261 13.4255C85 13.5017 84.9445 13.4776 84.8141 13.4615Z" fill="white"/>
<path d="M86.7008 12.6758C86.9419 12.9204 87.1437 13.177 87.1397 13.3975C87.1357 13.6301 86.8708 14.2076 86.7323 14.4281C86.594 14.6486 86.3923 14.9374 86.416 15.2863C86.4279 15.4627 86.5465 15.6431 86.6889 15.7916C86.6889 15.7916 85.9098 15.6031 85.8149 15.1178C85.7318 14.6807 85.9137 14.376 86.0403 14.1354C86.155 13.9069 86.5149 13.3775 86.6058 13.157C86.6849 12.9524 86.7284 12.7841 86.7008 12.6758Z" fill="white"/>
<path d="M91.252 18.1733C91.4062 18.7307 91.6712 19.256 91.9322 19.6691C92.1655 20.042 92.3158 20.6555 92.292 20.864C92.292 20.864 92.644 20.0781 92.462 19.5206C92.3276 19.0876 91.948 18.446 91.252 18.1733Z" fill="white"/>
<path d="M92.1299 18.3579C92.1299 18.3579 92.6638 18.3659 92.9129 18.5343C93.2332 18.7509 93.5416 19.22 93.6563 19.7814C93.6563 19.7814 93.1146 19.6852 92.8496 19.4165C92.5847 19.1438 92.2564 18.7389 92.1299 18.3579Z" fill="white"/>
<path d="M89.3617 19.3364C89.2589 19.3445 88.986 19.4086 88.8516 19.4487C88.8516 19.4487 89.3064 19.585 89.5357 19.7735C89.7295 19.9339 89.8956 20.1865 89.9747 20.6076C90.0854 21.197 90.4255 21.8306 90.5283 22.0231L90.5718 22.015C90.5085 21.6101 90.7577 20.768 90.821 20.6476C90.821 20.6476 90.4611 20.4191 90.295 20.1785C90.1724 20.002 89.9588 19.7093 89.3617 19.3364Z" fill="white"/>
<path d="M91.7304 20.5991C91.8649 20.9079 92.2169 21.4573 92.0508 22.0307C91.8847 22.6041 91.517 22.8487 91.2915 23.334C91.2915 23.334 91.1096 22.4597 91.1492 21.7821C91.1887 21.1084 91.4339 20.8477 91.7304 20.5991Z" fill="white"/>
<path d="M92.7588 20.6235C92.7588 20.6235 93.2887 21.6661 93.3876 22.0791C93.4825 22.4841 93.3955 22.7528 93.2136 23.0014C93.0317 23.246 92.7271 23.5107 92.4464 24.028C92.4464 24.028 92.1182 23.5909 92.0786 23.3584C92.0391 23.1297 92.1023 22.5804 92.1735 22.3478C92.2407 22.1193 92.5215 21.3774 92.7588 20.6235Z" fill="white"/>
<path d="M93.0313 23.9595C92.9127 24.0878 92.2918 24.8416 92.2088 25.0662C92.1257 25.2867 91.9834 25.7038 92.1772 25.9925C92.371 26.2812 92.8099 26.7465 93.1974 26.9429C93.1974 26.9429 92.7782 26.2773 92.8218 25.7319C92.8494 25.383 93.1143 25.0742 93.1658 24.8618C93.2132 24.6492 93.1816 24.2923 93.0313 23.9595Z" fill="white"/>
<path d="M91.8138 23.5386C91.9086 23.6749 92.0748 23.9997 92.0984 24.3165C92.1222 24.6294 92.0708 24.882 91.9008 25.3391C91.6872 25.9166 91.3589 26.5621 91.2047 26.8509C91.2047 26.8509 90.9121 26.4298 90.7539 26.0529C90.7539 26.0529 91.2126 25.4193 91.4025 24.9701C91.6319 24.4448 91.7267 23.9556 91.8138 23.5386Z" fill="white"/>
<path d="M91.6041 23.2979C91.6041 23.2979 91.4063 24.7856 90.5443 25.8883C89.959 26.6382 89.4844 26.8948 89.172 26.8948C88.6975 26.8948 88.2229 26.4938 88.0608 26.0368C87.8987 25.5796 87.95 24.8658 88.2585 24.6132C88.2585 24.6132 88.5433 25.5074 89.1483 25.5395C89.8363 25.5796 90.7183 24.7976 91.6041 23.2979Z" fill="white"/>
<path d="M90.8963 22.6724C90.9676 22.937 90.9912 23.346 90.8963 23.731C90.8212 24.0237 90.6472 24.4047 90.3111 24.6171C90.0184 24.8017 89.3304 24.8458 89.0693 24.1881C89.0693 24.1922 90.323 24.2884 90.8963 22.6724Z" fill="white"/>
<path d="M92.9525 28.6714C93.1226 29.1165 93.7395 29.6859 93.7355 30.0348C93.7236 30.9611 93.3242 31.5265 93.2293 31.8313C93.2293 31.8313 92.4977 31.2418 92.3673 30.5682C92.304 30.2232 92.3791 29.1847 92.9525 28.6714Z" fill="white"/>
<path d="M92.1341 29.3253C92.2211 29.0846 92.49 28.431 92.7985 28.2025C92.7985 28.2025 93.1979 27.0155 91.9166 26.2856C91.9166 26.2856 91.3907 26.9954 91.2523 27.657C91.1099 28.3227 91.8098 28.7278 92.1341 29.3253Z" fill="white"/>
<path d="M90.5325 26.3296C90.3268 26.5783 90.0381 26.9271 89.8128 27.0354C89.8128 27.0354 89.7377 27.5647 89.7811 27.9176C89.8443 28.4389 90.1766 28.9763 90.3189 29.3653C90.3189 29.3653 90.8765 28.6234 90.9437 28.1903C91.0071 27.7532 90.9952 27.3963 91.0188 27.1878C91.015 27.1918 90.7065 26.6785 90.5325 26.3296Z" fill="white"/>
<path d="M89.061 28.8721C88.9029 28.6275 88.3888 27.7293 88.3809 27.0757C88.3809 27.0757 89.0136 27.4166 89.5396 27.1679C89.5396 27.1679 89.6107 28.018 89.5079 28.3027C89.4249 28.5353 89.3141 28.6757 89.061 28.8721Z" fill="white"/>
<path d="M89.2031 29.0527C89.3059 28.9644 89.559 28.7279 89.6579 28.6035C89.6579 28.6035 90.0771 29.3815 90.1483 29.61C90.1483 29.61 89.9387 29.6661 89.7094 29.4937C89.4839 29.3253 89.4286 29.2812 89.2031 29.0527Z" fill="white"/>
<path d="M91.1451 28.5991C91.0937 28.7955 90.4174 29.75 90.2988 29.8663C90.2988 29.8663 90.3502 30.2111 90.6033 30.7084C90.8524 31.2055 91.2004 31.5504 91.3863 31.7269C91.3863 31.7269 91.8016 30.9891 91.9281 30.6643C92.0705 30.2913 92.0546 29.9264 91.9914 29.79C91.849 29.4652 91.3587 29.0041 91.1451 28.5991Z" fill="white"/>
<path d="M92.1617 31.0894C92.3119 31.3981 92.7627 31.8994 92.83 32.2964C92.8853 32.6092 92.8379 32.8658 92.7549 33.0823C92.6718 33.2989 92.3989 33.7159 92.221 34.0368C92.221 34.0368 91.6041 33.4473 91.4697 33.0262C91.3668 32.7094 91.4063 32.2563 91.5527 31.9756C91.695 31.6909 92.0194 31.3822 92.1617 31.0894Z" fill="white"/>
<path d="M90.4092 31.0054C90.5715 31.3583 90.9511 31.7111 91.0381 32.024C91.141 32.3889 91.1725 32.6254 90.9985 33.0505C90.8443 33.4275 90.6545 33.644 90.5913 33.8726C90.5913 33.8726 90.089 33.2149 90.0059 32.9383C89.9229 32.6656 89.8952 32.2125 89.998 31.9277C90.1048 31.639 90.2867 31.266 90.4092 31.0054Z" fill="white"/>
<path d="M92.8818 33.5117C92.8818 33.5117 92.0196 34.5703 92.0394 35.1317C92.0632 35.8294 92.5219 36.2946 92.5852 36.7237C92.5852 36.7237 93.036 36.2064 93.21 35.8575C93.4038 35.4645 93.55 35.1317 93.4987 34.6906C93.4473 34.2455 93.3326 33.9568 92.8818 33.5117Z" fill="white"/>
<path d="M91.2919 33.4072C91.4264 33.6077 91.8139 34.3015 91.7031 34.7145C91.5964 35.1275 91.1693 35.705 91.027 35.9536C91.027 35.9536 90.6829 35.2398 90.6077 34.915C90.5326 34.5902 90.6039 34.0608 91.2919 33.4072Z" fill="white"/>
<path d="M99.9247 15.9518C99.9247 15.8637 99.5332 15.7915 99.0469 15.7915C98.5604 15.7915 98.1689 15.8637 98.1689 15.9518C98.1689 16.0401 98.5644 16.1123 99.0469 16.1123C99.5293 16.1123 99.9247 16.0401 99.9247 15.9518Z" fill="white"/>
<path d="M93.9293 13.213C93.9847 12.8119 94.4434 11.9619 94.4434 11.5888C94.4434 11.2961 94.2101 11.0596 93.9214 11.0596C93.6327 11.0596 93.3994 11.2961 93.3994 11.5888C93.3994 11.9619 93.8581 12.8119 93.9135 13.213H93.9293Z" fill="white"/>
<path d="M95.3886 14.071C95.8434 12.9722 96.1478 12.1622 96.1359 11.8895C96.1281 11.7252 95.9343 11.6048 95.7564 11.5447C95.5745 11.4886 95.4123 11.4765 95.2937 11.5687C95.0564 11.7532 94.835 13.2369 94.7559 13.8504C94.9812 13.8986 95.1197 13.9306 95.3886 14.071Z" fill="white"/>
<path d="M94.558 13.8304C94.4433 13.8184 94.3247 13.8104 94.2061 13.8064C94.2773 13.217 94.479 12.2345 94.5975 11.8496C94.7162 11.4645 94.8664 11.1838 95.1157 11.1157C95.1157 11.1157 94.9219 11.653 94.8151 12.2105C94.7083 12.7678 94.6252 13.3011 94.558 13.8304Z" fill="white"/>
<path d="M94.9816 15.1336C94.9816 15.1336 95.4918 15.679 95.9939 15.7993C95.9979 15.7993 95.7884 15.254 94.9816 15.1336ZM94.5664 14.885C94.8472 14.845 95.559 14.9251 95.9979 15.2419C96.4369 15.5587 96.5793 15.8193 96.7295 16.1C96.7295 16.1 95.9465 16.1642 95.2466 15.7512C94.9144 15.5506 94.6296 15.0975 94.5664 14.885Z" fill="white"/>
<path d="M99.0228 17.4876C99.2047 17.3673 99.3115 17.1708 99.3511 16.9101C99.3511 16.9101 98.5403 16.9503 97.8522 16.8581V16.9142C97.8522 16.9142 98.9793 16.9222 99.0228 17.4876ZM98.7341 18.2294C98.7539 18.077 98.7459 17.8124 98.7459 17.8124C98.3387 18.1974 97.5003 18.4701 97.5003 18.4701C97.5122 18.2414 97.5873 18.045 97.5873 18.045C97.2314 18.2616 97.0297 18.2335 97.0297 18.2335C97.0693 17.9648 97.2472 17.648 97.2472 17.648C96.998 17.9648 96.6777 17.9848 96.6777 17.9848C96.6342 17.8244 96.7291 17.4315 96.7291 17.4315C96.6026 17.5919 96.3732 18.0009 95.6495 18.1613C94.9258 18.3217 94.5977 17.9087 94.5977 17.9087C95.3055 17.9607 95.9659 17.263 95.9659 17.263C95.5982 17.1186 95.4716 16.846 95.4716 16.846C95.6852 16.6576 95.9026 16.6576 95.9026 16.6576C95.4914 16.465 95.4044 16.1362 95.4044 16.1362C95.9224 16.3889 97.524 16.4089 98.394 16.453C99.2641 16.4971 100.134 16.1684 100.134 16.1684C100.035 18.0931 98.7341 18.2294 98.7341 18.2294Z" fill="white"/>
<path d="M100.335 16.3008C100.304 16.7178 100.197 17.1308 100.055 17.4236C100.055 17.4236 100.565 17.0306 100.691 16.7018C100.814 16.3689 100.846 16.1444 100.335 16.3008Z" fill="white"/>
<path d="M101.574 17.6682C101.574 17.5479 101.479 17.4517 101.36 17.4517C101.246 17.4517 101.147 17.5479 101.147 17.6682C101.147 17.7885 101.242 17.8847 101.36 17.8847C101.475 17.8847 101.574 17.7885 101.574 17.6682ZM101.234 16.7179C101.522 16.6497 102.127 16.5775 102.396 16.9785C102.665 17.3795 102.558 18.1334 102.025 18.4421C102.025 18.4421 101.202 17.7244 100.209 18.4341C100.209 18.4341 99.9761 18.2817 99.458 18.1614C99.458 18.1614 99.7626 17.7885 100.111 17.6281C100.415 17.4918 101.052 17.3033 101.234 16.7179Z" fill="white"/>
<path d="M99.3475 18.2979C99.3475 18.2979 98.9837 18.7871 98.7227 19.0036C98.7227 19.0036 100.059 18.9915 100.399 20.1625C100.399 20.1625 100.862 19.4447 100.522 18.9756C100.158 18.4703 99.822 18.4061 99.3475 18.2979Z" fill="white"/>
<path d="M97.8758 18.5904C97.8758 18.5904 97.4447 18.7188 97.3023 18.7549C97.3023 18.7549 97.2944 18.5022 97.3063 18.3818C97.1757 18.414 97.0136 18.4581 96.8753 18.4701C96.8753 18.4701 96.4442 19.4446 96.108 19.8375C96.108 19.8375 96.0883 20.054 96.2781 20.3828C96.2781 20.3828 96.5233 19.8055 96.9583 19.3443C97.2074 19.0796 97.3656 18.9513 97.8758 18.5904Z" fill="white"/>
<path d="M99.015 18.3818C98.8766 18.422 98.1845 18.6385 97.8523 18.8832C97.4331 19.1878 97.1445 19.5368 97.1879 20.1382C97.1879 20.1382 97.528 19.6651 97.8997 19.4485C98.2003 19.2761 98.7342 18.7989 99.015 18.3818Z" fill="white"/>
<path d="M99.0065 13.9668C98.88 13.9668 98.6309 14.027 98.6309 14.2355C98.6309 14.444 98.9512 14.9452 99.0382 15.1698H99.0461C99.1291 14.9452 99.4535 14.444 99.4535 14.2355C99.4535 14.027 99.2043 13.9668 99.0778 13.9668H99.0065Z" fill="white"/>
<path d="M99.2842 15.5869C99.3435 15.2942 99.4582 14.5323 99.6362 14.3639C99.8062 14.2035 100.055 14.1875 100.178 14.1955C100.304 14.2035 100.435 14.3358 100.384 14.5043C100.332 14.6767 99.7745 15.5188 99.7034 15.623C99.5769 15.603 99.6045 15.611 99.2842 15.5869Z" fill="white"/>
<path d="M98.7933 15.5869C98.7339 15.2942 98.6193 14.5323 98.4413 14.3639C98.2713 14.2035 98.0221 14.1875 97.8995 14.1955C97.7769 14.2035 97.6424 14.3358 97.6939 14.5043C97.7452 14.6767 98.2989 15.5188 98.374 15.623C98.5006 15.603 98.4768 15.611 98.7933 15.5869Z" fill="white"/>
<path d="M98.4375 12.9441H98.8686V12.459H99.2165V12.9441H99.6516V13.2489H99.2165V13.8184H98.8686V13.2489H98.4375V12.9441Z" fill="white"/>
<path d="M93.2529 10.077H93.6841V9.5918H94.0321V10.077H94.4671V10.3818H94.0321V10.9512H93.6841V10.3818H93.2529V10.077Z" fill="white"/>
<path d="M103.673 16.0638C103.673 15.9716 103.665 15.8794 103.653 15.7872C103.622 15.5506 103.617 15.35 103.641 15.1816C103.954 15.3019 104.164 15.3782 104.59 16.0799C104.59 16.0799 103.911 15.6548 103.673 16.0638Z" fill="white"/>
<path d="M103.076 17.1789C103.068 17.0065 102.953 16.4571 102.815 16.0681C102.641 15.595 102.74 14.9053 102.949 14.4842C103.151 14.0792 103.266 13.7023 103.226 13.2812C103.226 13.2812 103.63 13.4176 103.862 13.5659C103.902 14.0512 103.622 14.5363 103.487 14.8131C103.329 15.1419 103.36 15.5629 103.396 15.8235C103.46 16.2647 103.368 16.7338 103.076 17.1789Z" fill="white"/>
<path d="M103.033 13.4615C103.049 13.4094 103.049 13.253 103.018 13.1928C103.018 13.1928 102.381 12.5633 101.847 12.455C101.511 12.3869 101.297 12.5392 101.202 12.6235C101.202 12.6235 101.392 12.5994 101.673 12.836C101.958 13.0726 102.309 13.3573 102.582 13.4255C102.848 13.5017 102.903 13.4776 103.033 13.4615Z" fill="white"/>
<path d="M101.146 12.6758C100.905 12.9204 100.707 13.177 100.711 13.3975C100.715 13.6301 100.976 14.2076 101.118 14.4281C101.257 14.6486 101.458 14.9374 101.435 15.2863C101.423 15.4627 101.304 15.6431 101.162 15.7916C101.162 15.7916 101.941 15.6031 102.036 15.1178C102.119 14.6807 101.937 14.376 101.81 14.1354C101.692 13.9069 101.336 13.3775 101.245 13.157C101.162 12.9524 101.118 12.7841 101.146 12.6758Z" fill="white"/>
<path d="M96.5944 18.1733C96.4363 18.7307 96.1713 19.256 95.9103 19.6691C95.673 20.042 95.5267 20.6555 95.5504 20.864C95.5504 20.864 95.1984 20.0781 95.3764 19.5206C95.5188 19.0876 95.8945 18.446 96.5944 18.1733Z" fill="white"/>
<path d="M95.7169 18.3579C95.7169 18.3579 95.183 18.3659 94.9339 18.5343C94.6136 18.7509 94.3051 19.22 94.1904 19.7814C94.1904 19.7814 94.7322 19.6852 94.9971 19.4165C95.2582 19.1438 95.5903 18.7389 95.7169 18.3579Z" fill="white"/>
<path d="M98.4845 19.3364C98.5874 19.3445 98.8602 19.4086 98.9946 19.4487C98.9946 19.4487 98.5399 19.585 98.3145 19.7735C98.1207 19.9339 97.9546 20.1865 97.8756 20.6076C97.7648 21.197 97.4208 21.8306 97.3179 22.0231L97.2784 22.015C97.3417 21.6101 97.0885 20.768 97.0293 20.6476C97.0293 20.6476 97.3891 20.4191 97.5552 20.1785C97.6699 20.002 97.8874 19.7093 98.4845 19.3364Z" fill="white"/>
<path d="M96.1159 20.5991C95.9814 20.9079 95.6295 21.4573 95.7956 22.0307C95.9616 22.6041 96.3294 22.8487 96.5588 23.334C96.5588 23.334 96.7407 22.4597 96.7011 21.7821C96.6537 21.1084 96.4125 20.8477 96.1159 20.5991Z" fill="white"/>
<path d="M93.9298 22.2035C93.9535 21.8706 94.7167 21.0606 94.6811 20.6236C94.6416 20.1864 94.0682 19.8776 93.9258 19.8135H93.9179C93.7755 19.8776 93.2022 20.1864 93.1626 20.6236C93.1231 21.0606 93.8902 21.8706 93.914 22.2035H93.9298Z" fill="white"/>
<path d="M95.0878 20.6235C95.0878 20.6235 94.5579 21.6661 94.459 22.0791C94.3681 22.4841 94.4511 22.7528 94.633 23.0014C94.811 23.246 95.1195 23.5107 95.4003 24.028C95.4003 24.028 95.7284 23.5909 95.768 23.3584C95.8075 23.1297 95.7443 22.5804 95.673 22.3478C95.6058 22.1193 95.3211 21.3774 95.0878 20.6235Z" fill="white"/>
<path d="M93.9293 24.6652C94.1746 24.4527 94.3881 24.136 94.4554 23.9515C94.5226 23.763 94.5424 23.4904 94.3801 23.2819C94.1865 23.0292 93.9452 22.7525 93.9293 22.5239H93.9176C93.9017 22.7525 93.6604 23.0292 93.4666 23.2819C93.3045 23.4904 93.3243 23.763 93.3915 23.9515C93.4588 24.1399 93.6763 24.4527 93.9176 24.6652H93.9293Z" fill="white"/>
<path d="M94.8155 23.9595C94.9302 24.0878 95.5511 24.8416 95.6381 25.0662C95.7211 25.2867 95.8635 25.7038 95.6697 25.9925C95.476 26.2812 95.037 26.7465 94.6494 26.9429C94.6494 26.9429 95.0687 26.2773 95.0251 25.7319C94.9974 25.383 94.7325 25.0742 94.6811 24.8618C94.6296 24.6492 94.6653 24.2923 94.8155 23.9595Z" fill="white"/>
<path d="M96.0294 23.5386C95.9345 23.6749 95.7684 23.9997 95.7447 24.3165C95.721 24.6294 95.7724 24.882 95.9424 25.3391C96.152 25.9166 96.4802 26.5621 96.6345 26.8509C96.6345 26.8509 96.9271 26.4298 97.0853 26.0529C97.0853 26.0529 96.6266 25.4193 96.4368 24.9701C96.2153 24.4448 96.1204 23.9556 96.0294 23.5386Z" fill="white"/>
<path d="M96.2432 23.2979C96.2432 23.2979 96.441 24.7856 97.303 25.8883C97.8883 26.6382 98.3628 26.8948 98.6752 26.8948C99.1498 26.8948 99.6244 26.4938 99.7865 26.0368C99.9486 25.5796 99.8972 24.8658 99.5887 24.6132C99.5887 24.6132 99.304 25.5074 98.699 25.5395C98.0108 25.5796 97.125 24.7976 96.2432 23.2979Z" fill="white"/>
<path d="M96.9507 22.6724C96.8756 22.937 96.8558 23.346 96.9507 23.731C97.0219 24.0237 97.1998 24.4047 97.5359 24.6171C97.8286 24.8017 98.5168 24.8458 98.7777 24.1881C98.7777 24.1922 97.5202 24.2884 96.9507 22.6724Z" fill="white"/>
<path d="M93.9216 27.0916C94.0995 27.0074 94.2497 26.9393 94.4554 26.6265C94.6136 26.3779 94.7678 25.9207 94.6808 25.5919C94.5741 25.1869 94.3565 25.0265 94.2299 24.7739C94.1233 24.8742 94.0599 24.9503 93.9295 25.0265H93.9216C93.791 24.9503 93.7238 24.8701 93.617 24.7739C93.4865 25.0265 93.273 25.1869 93.1662 25.5919C93.0832 25.9168 93.2334 26.3779 93.3917 26.6265C93.5933 26.9393 93.7436 27.0035 93.9216 27.0916Z" fill="white"/>
<path d="M93.9213 29.5976C94.0083 29.2046 94.819 28.4427 94.7439 28.0297C94.6331 27.4081 94.2376 27.5405 93.9253 27.2759H93.9173C93.6049 27.5365 93.2055 27.4081 93.0948 28.0297C93.0197 28.4427 93.8264 29.2046 93.9134 29.5976H93.9213Z" fill="white"/>
<path d="M94.8984 28.6714C94.7243 29.1165 94.1074 29.6859 94.1153 30.0348C94.1232 30.9611 94.5227 31.5265 94.6176 31.8313C94.6176 31.8313 95.3492 31.2418 95.4757 30.5682C95.5429 30.2232 95.4638 29.1847 94.8984 28.6714Z" fill="white"/>
<path d="M95.7126 29.3253C95.6255 29.0846 95.3566 28.431 95.0482 28.2025C95.0482 28.2025 94.6487 27.0155 95.93 26.2856C95.93 26.2856 96.456 26.9954 96.5984 27.657C96.7328 28.3227 96.0368 28.7278 95.7126 29.3253Z" fill="white"/>
<path d="M97.3145 26.3296C97.5202 26.5783 97.8089 26.9271 98.0342 27.0354C98.0342 27.0354 98.1094 27.5647 98.0659 27.9176C98.0026 28.4389 97.6704 28.9763 97.5281 29.3653C97.5281 29.3653 96.9705 28.6234 96.9032 28.1903C96.8399 27.7532 96.8518 27.3963 96.8281 27.1878C96.8281 27.1918 97.1405 26.6785 97.3145 26.3296Z" fill="white"/>
<path d="M98.7858 28.8721C98.9439 28.6275 99.458 27.7293 99.462 27.0757C99.462 27.0757 98.8292 27.4166 98.3033 27.1679C98.3033 27.1679 98.2321 28.018 98.335 28.3027C98.422 28.5353 98.5287 28.6757 98.7858 28.8721Z" fill="white"/>
<path d="M98.6395 29.0527C98.5367 28.9644 98.2836 28.7279 98.1808 28.6035C98.1808 28.6035 97.7616 29.3815 97.6904 29.61C97.6904 29.61 97.9 29.6661 98.1293 29.4937C98.3627 29.3253 98.414 29.2812 98.6395 29.0527Z" fill="white"/>
<path d="M96.7017 28.5991C96.7532 28.7955 97.4293 29.75 97.544 29.8663C97.544 29.8663 97.4927 30.2111 97.2435 30.7084C96.9944 31.2055 96.6464 31.5504 96.4565 31.7269C96.4565 31.7269 96.0414 30.9891 95.9148 30.6643C95.7725 30.2913 95.7922 29.9264 95.8515 29.79C95.9939 29.4652 96.4843 29.0041 96.7017 28.5991Z" fill="white"/>
<path d="M93.9296 34.2375C93.9928 33.9768 94.3844 33.6681 94.5465 33.2149C94.6414 32.9463 94.6374 32.6335 94.5346 32.4169C94.412 32.1684 93.973 31.5548 93.9256 31.3784H93.9217C93.8702 31.5548 93.4352 32.1684 93.3126 32.4169C93.2059 32.6335 93.202 32.9463 93.3007 33.2149C93.4629 33.6681 93.8545 33.9768 93.9177 34.2375H93.9296Z" fill="white"/>
<path d="M95.6856 31.0894C95.5354 31.3981 95.0845 31.8994 95.0173 32.2964C94.9619 32.6092 95.0134 32.8658 95.0925 33.0823C95.1755 33.2989 95.4484 33.7159 95.6263 34.0368C95.6263 34.0368 96.2432 33.4473 96.3777 33.0262C96.4805 32.7094 96.4449 32.2563 96.2947 31.9756C96.1483 31.6909 95.828 31.3822 95.6856 31.0894Z" fill="white"/>
<path d="M97.4375 31.0054C97.2754 31.3583 96.8918 31.7111 96.8048 32.024C96.7019 32.3889 96.6703 32.6254 96.8443 33.0505C96.9986 33.4275 97.1844 33.644 97.2516 33.8726C97.2516 33.8726 97.7538 33.2149 97.8368 32.9383C97.9239 32.6656 97.9476 32.2125 97.8448 31.9277C97.7381 31.639 97.5601 31.266 97.4375 31.0054Z" fill="white"/>
<path d="M93.9213 39.2898C93.9529 38.9691 94.6094 37.9705 94.641 36.912C94.6569 36.3826 94.1902 35.5526 93.9253 35.2397H93.9134C93.6485 35.5526 93.1858 36.3826 93.2016 36.912C93.2332 37.9705 93.8896 38.9691 93.9213 39.2898Z" fill="white"/>
<path d="M94.9653 33.5117C94.9653 33.5117 95.8274 34.5703 95.8076 35.1317C95.7838 35.8294 95.3251 36.2946 95.2579 36.7237C95.2579 36.7237 94.8071 36.2064 94.6331 35.8575C94.4393 35.4645 94.2929 35.1317 94.3444 34.6906C94.3997 34.2455 94.5144 33.9568 94.9653 33.5117Z" fill="white"/>
<path d="M96.5549 33.4072C96.4205 33.6077 96.0329 34.3015 96.1437 34.7145C96.2544 35.1275 96.6775 35.705 96.8198 35.9536C96.8198 35.9536 97.16 35.2398 97.2391 34.915C97.3142 34.5902 97.243 34.0608 96.5549 33.4072Z" fill="white"/>
<path d="M94.5142 40.9863C94.5656 40.1642 95.0243 39.671 95.1075 39.2459C95.1984 38.7767 95.1667 38.3276 94.8069 37.7822C94.5182 38.7928 94.1939 39.5306 93.9447 40.0398C93.9408 40.0519 93.9329 40.0679 93.9249 40.08C93.9171 40.0639 93.9132 40.0519 93.9052 40.0398C93.6521 39.5306 93.3318 38.7928 93.0431 37.7822C92.6832 38.3236 92.6516 38.7728 92.7425 39.2459C92.8256 39.675 93.2843 40.1642 93.3358 40.9863C93.3871 41.8082 92.4736 42.125 92.4736 42.125C92.7821 42.2374 93.1341 42.2855 93.6917 41.7521C93.7945 41.6519 93.8696 41.5477 93.9289 41.4353C93.9883 41.5477 94.0634 41.6559 94.1662 41.7521C94.7238 42.2855 95.0718 42.2374 95.3803 42.125C95.3764 42.125 94.4629 41.8082 94.5142 40.9863Z" fill="white"/>
<path d="M91.6394 35.5205C91.7343 35.8293 92.0191 36.3947 92.0546 36.5711C92.1218 36.896 92.0308 37.293 91.4456 37.71C91.4456 37.71 91.066 37.4413 90.9157 37.0884C90.7773 36.7557 90.8563 36.523 91.0027 36.3506C91.149 36.1741 91.493 35.7772 91.6394 35.5205Z" fill="white"/>
<path d="M92.8696 36.7354C92.8696 36.8997 92.747 37.8301 92.486 38.2913C92.1222 38.9408 91.5804 39.4221 91.1098 39.4221C90.6708 39.4221 90.5799 39.1574 90.3623 39.0491C90.3623 39.0491 90.4731 38.4877 90.9634 38.3354C91.5725 38.1589 92.4979 37.4251 92.8696 36.7354Z" fill="white"/>
<path d="M91.2994 37.9226C91.1966 37.8425 91.1096 37.7904 90.987 37.646C90.987 37.646 90.5203 37.8224 90.1407 38.0831C89.7571 38.3437 89.3814 38.7888 89.1797 39.0214C89.1797 39.0214 89.7532 39.1737 90.117 39.0054C90.117 39.0054 90.2514 38.4479 90.6588 38.2033C90.7458 38.1432 91.0345 38.059 91.2994 37.9226Z" fill="white"/>
<path d="M90.821 37.4451C90.7341 37.3047 90.5521 37.0481 90.5917 36.6431C90.5917 36.6431 89.7849 37.1603 89.5437 37.3569C89.3025 37.5574 88.8002 38.0827 88.6855 38.2551C88.6855 38.2551 89.2946 38.1227 89.7612 37.9624C90.2753 37.79 90.6312 37.5574 90.821 37.4451Z" fill="white"/>
<path d="M89.4565 38.3315C89.0215 38.488 88.0446 38.6483 87.6374 38.7727C87.2261 38.897 86.9335 39.1095 86.542 39.5426C86.542 39.5426 87.143 39.7111 87.4634 39.8153C87.4634 39.8153 87.9735 39.4624 88.5311 39.2458C88.8909 39.1015 89.0689 38.7125 89.4565 38.3315Z" fill="white"/>
<path d="M88.5509 41.2508C88.6418 41.1464 88.7604 41.0262 88.6694 40.7816C88.6062 40.6011 88.2543 40.4046 88.0407 40.3004C87.6927 40.1319 86.7278 39.8673 86.4114 39.771C86.4114 39.771 86.2533 39.9595 86.1702 40.156C86.1306 40.2322 86.182 40.3124 86.3205 40.3365C86.5894 40.3846 87.2379 40.2602 87.3961 40.3645C87.5661 40.4768 87.5068 40.6292 87.5068 40.7816C87.5068 40.7816 87.8034 40.6011 87.9893 40.6412C88.2424 40.6933 88.4005 40.8177 88.5509 41.2508Z" fill="white"/>
<path d="M87.6846 39.8793C87.7558 39.9034 88.1315 40.0197 88.5032 40.2563C88.5032 40.2563 88.6653 40.1921 88.7483 40.0397C88.8274 39.8954 89.1597 39.3941 89.4641 39.33C89.4641 39.33 89.2031 39.3059 89.0568 39.2578C89.0568 39.2578 88.7404 39.342 88.5151 39.4302C88.2896 39.5264 88.0088 39.6668 87.6846 39.8793Z" fill="white"/>
<path d="M90.1887 39.2539C90.1294 39.282 90.0305 39.3301 89.8051 39.3381C89.8051 39.3381 88.947 39.9395 88.8481 40.537C88.7611 41.0504 89.03 41.295 89.1565 41.3591C89.287 41.4233 89.8841 41.6718 90.2717 40.8619C90.2717 40.8619 89.6113 41.0824 89.4294 40.7576C89.2475 40.4368 89.5401 39.9676 89.722 39.8313C89.9594 39.6508 90.3825 39.5305 90.6395 39.5786C90.6395 39.5827 90.4338 39.3781 90.1887 39.2539Z" fill="white"/>
<path d="M84.5928 46.1271C84.6956 45.6859 84.8102 45.2249 85.0119 44.7957C85.3995 43.9697 86.3447 41.7602 88.318 41.3712C88.5039 41.3351 88.1044 40.87 87.9304 40.8941C87.7525 40.9141 87.4005 41.1467 87.2463 41.2509C87.2463 41.2509 87.2463 40.7817 87.2424 40.6975C87.2384 40.6134 87.1633 40.5812 87.0882 40.5853C87.0129 40.5853 86.5345 40.5812 86.3842 40.7577C85.9334 41.287 85.1741 42.7066 84.747 43.7651C84.316 44.8238 84.0233 45.1446 83.5685 44.9842C83.1138 44.8238 82.8449 44.2945 82.05 44.4549C81.7771 44.5111 81.4726 44.6955 81.2354 44.9722C81.3026 45.1005 81.3856 45.2569 81.7574 45.2569C82.1251 45.2569 82.833 45.4132 83.2245 45.6939C83.6121 45.9707 84.0233 46.0669 84.5928 46.1271Z" fill="white"/>
<path d="M92.474 39.2856C92.5176 39.6265 92.6797 39.9473 92.8616 40.2801C92.8616 40.2801 92.2605 43.0911 90.0856 43.3117C90.0856 43.3117 90.129 42.7303 90.7736 42.2852C91.4182 41.84 92.3792 41.1544 92.3119 40.1077C92.3119 40.1077 92.1419 40.1438 91.8335 40.5369C91.525 40.9298 90.8448 42.0606 89.7969 42.0687C89.7969 42.0687 89.9511 41.5393 90.4138 41.2305C90.8804 40.9257 91.4696 40.5369 91.7386 40.0636C92.0035 39.5904 92.2883 39.3739 92.474 39.2856Z" fill="white"/>
<path d="M91.4502 49.5276L92.7711 51.4042L93.7716 49.5958L93.4156 48.9502C93.1546 49.4273 92.8738 49.9406 92.7157 50.2173C92.593 50.0448 92.2609 49.5677 91.8219 48.9502L91.4502 49.5276Z" fill="white"/>
<path d="M91.1099 47.9393C89.8207 46.1108 88.2309 43.8451 88.0688 43.6166L88.571 43.2517L86.9932 42.6421L87.0248 44.3824L87.5586 43.9935L90.7422 48.5208L91.1099 47.9393Z" fill="white"/>
<path d="M80.2345 37.662C80.6261 37.2329 81.2824 37.6018 81.9508 38.2233C82.6191 38.8449 83.0383 39.4825 82.6469 39.9116C82.2869 40.3086 81.5989 39.9717 80.9305 39.3502C80.2662 38.7286 79.847 38.0911 80.2345 37.662Z" fill="white"/>
<path d="M81.3099 45.3046C81.2901 45.2886 81.2664 45.2685 81.2466 45.2525C80.8907 44.9357 80.6891 44.4545 80.6891 43.9252C80.6891 42.9067 81.5037 42.0806 82.5082 42.0806C83.5087 42.0806 84.3233 42.9067 84.3233 43.9252C84.3233 44.0615 84.2956 44.2861 84.2956 44.2861C84.3786 44.1297 84.6753 43.4279 84.7385 43.2996C84.4696 42.3051 83.568 41.5753 82.5042 41.5753C81.5907 41.5753 80.7958 42.1167 80.4201 42.8986C80.5625 41.9683 81.0173 41.1342 81.3415 40.8215C81.7291 40.4525 82.3855 40.3323 82.3855 40.3323C81.9545 40.4044 81.385 40.1317 80.7484 39.5422C80.1432 38.9808 79.8309 38.4876 79.8151 38.0786C79.8546 38.66 79.8349 38.9849 79.6767 39.4541C79.4552 40.0996 78.8541 41.2825 79.0676 42.6179C79.1863 43.3518 79.7122 44.4465 80.5902 45.3407C80.7761 45.5411 80.8472 45.8379 80.871 45.9943C80.871 45.9943 82.168 45.9943 82.4725 46.0224C82.4725 46.0224 82.781 45.9943 82.7771 45.8018C82.7731 45.6094 82.5991 45.5572 82.4448 45.5572C82.2986 45.5492 81.6579 45.5652 81.3099 45.3046Z" fill="white"/>
<path d="M88.4716 45.75C87.6371 46.0548 86.8067 46.2151 86.0197 46.3395C85.5056 46.4197 85.0034 46.4477 84.5249 46.4236C84.5328 46.5039 84.5328 46.6121 84.4854 46.6923C84.4854 46.6923 84.5802 46.8046 84.5802 46.933C85.0706 46.953 85.5768 46.925 86.0949 46.8407C86.9569 46.7084 87.8626 46.528 88.7721 46.179L88.4716 45.75Z" fill="white"/>
<path d="M89.8405 45.6861C90.9439 45.0725 92.0235 44.1302 92.9964 42.6224L93.1703 42.3257C92.9054 42.446 92.5614 42.3618 92.5614 42.3618C92.5455 42.3859 92.502 42.454 92.4822 42.4901C91.5726 43.8495 90.5721 44.7036 89.5439 45.265L89.8405 45.6861Z" fill="white"/>
<path d="M82.552 46.167C82.3978 46.1429 81.9153 46.1549 81.6227 46.199C81.3064 46.2512 80.9425 46.3153 80.903 46.4958C80.8673 46.6643 80.982 46.8447 81.1441 47.1013C81.243 47.2577 81.4804 47.1694 81.6108 47.1174C81.7413 47.0692 82.4888 46.6602 82.6113 46.5279C82.7339 46.3956 82.7854 46.2071 82.552 46.167Z" fill="white"/>
<path d="M83.3153 46.6684C83.2362 46.6162 83.0385 46.54 82.8368 46.6162C82.6351 46.6924 81.8995 47.1335 81.8481 47.342C81.8007 47.5466 81.8995 47.6548 82.0142 47.6989C82.1289 47.743 82.2673 47.7871 82.3701 47.7991C82.552 47.8152 82.7339 47.7069 82.8288 47.5906C82.9238 47.4744 83.2679 47.0493 83.3192 46.953C83.3627 46.8567 83.3944 46.7164 83.3153 46.6684Z" fill="white"/>
<path d="M83.4063 47.1295C83.2995 47.2499 83.0029 47.6188 82.9674 47.6789C82.9318 47.7391 82.9832 47.8313 83.0782 47.8233C83.1691 47.8153 83.6752 47.7592 83.9679 47.5587C84.2566 47.3582 84.4542 46.9692 84.2526 46.8288C84.0509 46.6844 83.7424 46.7486 83.4063 47.1295Z" fill="white"/>
<path d="M83.568 46.0107C83.4731 45.9866 83.0895 45.8864 83.0065 46.0147C82.9036 46.1751 82.9787 46.3475 83.2754 46.4919C83.572 46.6363 84.1335 46.7526 84.2442 46.5962C84.351 46.4397 84.1968 46.1751 83.568 46.0107Z" fill="white"/>
<path d="M96.2029 35.5205C96.108 35.8293 95.8232 36.3947 95.7836 36.5711C95.7164 36.896 95.8074 37.293 96.3926 37.71C96.3926 37.71 96.7722 37.4413 96.9226 37.0884C97.0609 36.7557 96.9779 36.523 96.8356 36.3506C96.6932 36.1741 96.3491 35.7772 96.2029 35.5205Z" fill="white"/>
<path d="M94.9736 36.7354C94.9736 36.8997 95.0963 37.8301 95.3573 38.2913C95.7211 38.9408 96.2589 39.4221 96.7335 39.4221C97.1724 39.4221 97.2634 39.1574 97.4769 39.0491C97.4769 39.0491 97.3662 38.4877 96.8759 38.3354C96.2708 38.1589 95.3493 37.4251 94.9736 36.7354Z" fill="white"/>
<path d="M96.5469 37.9226C96.6498 37.8425 96.7368 37.7904 96.8593 37.646C96.8593 37.646 97.3259 37.8224 97.7056 38.0831C98.0892 38.3437 98.4649 38.7888 98.6666 39.0214C98.6666 39.0214 98.0932 39.1737 97.7293 39.0054C97.7293 39.0054 97.5948 38.4479 97.1876 38.2033C97.0966 38.1432 96.8079 38.059 96.5469 37.9226Z" fill="white"/>
<path d="M97.0254 37.4451C97.1124 37.3047 97.2943 37.0481 97.2548 36.6431C97.2548 36.6431 98.0616 37.1603 98.3028 37.3569C98.544 37.5574 99.0462 38.0827 99.161 38.2551C99.161 38.2551 98.5519 38.1227 98.0813 37.9624C97.5672 37.79 97.2113 37.5574 97.0254 37.4451Z" fill="white"/>
<path d="M98.3906 38.3315C98.8255 38.488 99.7984 38.6483 100.21 38.7727C100.621 38.897 100.914 39.1095 101.305 39.5426C101.305 39.5426 100.704 39.7111 100.384 39.8153C100.384 39.8153 99.8735 39.4624 99.3159 39.2458C98.9521 39.1015 98.7742 38.7125 98.3906 38.3315Z" fill="white"/>
<path d="M99.2958 41.2508C99.2049 41.1464 99.0862 41.0262 99.1772 40.7816C99.2404 40.6011 99.5963 40.4046 99.8099 40.3004C100.162 40.1319 101.131 39.8673 101.447 39.771C101.447 39.771 101.605 39.9595 101.688 40.156C101.728 40.2322 101.676 40.3124 101.538 40.3365C101.269 40.3846 100.617 40.2602 100.458 40.3645C100.288 40.4768 100.348 40.6292 100.348 40.7816C100.348 40.7816 100.051 40.6011 99.8652 40.6412C99.6042 40.6933 99.4421 40.8177 99.2958 41.2508Z" fill="white"/>
<path d="M100.161 39.8793C100.09 39.9034 99.7105 40.0197 99.3427 40.2563C99.3427 40.2563 99.1806 40.1921 99.1015 40.0397C99.0223 39.8954 98.6902 39.3941 98.3857 39.33C98.3857 39.33 98.6428 39.3059 98.793 39.2578C98.793 39.2578 99.1094 39.342 99.3348 39.4302C99.5563 39.5264 99.8331 39.6668 100.161 39.8793Z" fill="white"/>
<path d="M97.654 39.2539C97.7134 39.282 97.8083 39.3301 98.0376 39.3381C98.0376 39.3381 98.8919 39.9395 98.9947 40.537C99.0817 41.0504 98.8167 41.295 98.6862 41.3591C98.5556 41.4233 97.9586 41.6718 97.571 40.8619C97.571 40.8619 98.2314 41.0824 98.4133 40.7576C98.5952 40.4368 98.3026 39.9676 98.1207 39.8313C97.8834 39.6508 97.4602 39.5305 97.1992 39.5786C97.1992 39.5827 97.4089 39.3781 97.654 39.2539Z" fill="white"/>
<path d="M103.25 46.1271C103.147 45.6859 103.028 45.2249 102.831 44.7957C102.447 43.9697 101.498 41.7602 99.5247 41.3712C99.339 41.3351 99.7383 40.87 99.9123 40.8941C100.09 40.9141 100.442 41.1467 100.596 41.2509C100.596 41.2509 100.596 40.7817 100.6 40.6975C100.604 40.6134 100.679 40.5812 100.755 40.5853C100.83 40.5853 101.308 40.5812 101.459 40.7577C101.909 41.287 102.669 42.7066 103.096 43.7651C103.526 44.8238 103.824 45.1446 104.274 44.9842C104.729 44.8238 105.002 44.2945 105.793 44.4549C106.066 44.5111 106.37 44.6955 106.608 44.9722C106.54 45.1005 106.457 45.2569 106.085 45.2569C105.713 45.2569 105.01 45.4132 104.615 45.6939C104.23 45.9707 103.819 46.0669 103.25 46.1271Z" fill="white"/>
<path d="M95.369 39.2856C95.3256 39.6265 95.1634 39.9473 94.9814 40.2801C94.9814 40.2801 95.5826 43.0911 97.7536 43.3117C97.7536 43.3117 97.7102 42.7303 97.0656 42.2852C96.421 41.84 95.46 41.1544 95.5273 40.1077C95.5273 40.1077 95.6973 40.1438 96.0097 40.5369C96.3182 40.9298 96.9983 42.0606 98.0463 42.0687C98.0463 42.0687 97.8921 41.5393 97.4294 41.2305C96.9667 40.9257 96.3735 40.5369 96.1046 40.0636C95.8396 39.5904 95.5589 39.3739 95.369 39.2856Z" fill="white"/>
<path d="M93.9256 42.0127C94.0522 42.3896 94.8748 43.5645 95.2346 43.9014C95.5945 44.2382 96.4724 45.1244 96.939 45.5695C96.939 45.5695 95.6064 45.2327 94.855 44.543C94.855 44.543 94.3211 44.8598 93.9296 44.8598H93.9098C93.5222 44.8598 92.9884 44.543 92.9884 44.543C92.237 45.2327 90.9043 45.5695 90.9043 45.5695C91.371 45.1244 92.2489 44.2342 92.6087 43.9014C92.9686 43.5645 93.7911 42.3896 93.9177 42.0127H93.9256Z" fill="white"/>
<path d="M93.929 45.1322C94.2217 45.1322 94.5064 45.012 94.6606 44.9438C94.5064 45.2807 94.2058 45.8019 93.9251 46.0185H93.9171C93.6325 45.8019 93.3359 45.2766 93.1816 44.9438C93.3398 45.012 93.6167 45.1322 93.9092 45.1322H93.929Z" fill="white"/>
<path d="M95.0718 51.408L100.292 43.9935L100.826 44.3824L100.857 42.6421L99.2795 43.2517L99.7777 43.6166C99.5207 43.9814 95.6215 49.5273 95.1271 50.225L92.7623 45.8822L92.4696 46.3314L90.3658 49.5553L89.8399 49.1985L89.832 50.9147L91.4257 50.2732L90.8918 49.9123C91.1805 49.4672 92.3234 47.7228 92.703 47.1374L95.0718 51.408Z" fill="white"/>
<path d="M96.0248 48.493C95.6729 47.9556 95.317 47.4143 95.139 47.1336C95.0086 47.3822 94.7396 47.8714 94.4391 48.4087L94.0674 47.7311L95.0837 45.8784L95.3763 46.3276L96.4243 47.9316L96.0248 48.493Z" fill="white"/>
<path d="M97.1011 48.9741L97.4768 49.5516L98.0028 49.1947L98.0107 50.911L96.4131 50.2694L96.9469 49.9085C96.8916 49.8243 96.8086 49.692 96.7058 49.5355L97.1011 48.9741Z" fill="white"/>
<path d="M107.608 37.662C107.217 37.2329 106.556 37.6018 105.892 38.2233C105.223 38.8449 104.804 39.4825 105.196 39.9116C105.556 40.3086 106.247 39.9717 106.912 39.3502C107.576 38.7286 107.996 38.0911 107.608 37.662Z" fill="white"/>
<path d="M106.533 45.3046C106.556 45.2886 106.573 45.2685 106.592 45.2525C106.948 44.9357 107.15 44.4545 107.15 43.9252C107.15 42.9067 106.335 42.0806 105.331 42.0806C104.33 42.0806 103.516 42.9067 103.516 43.9252C103.516 44.0615 103.543 44.2861 103.543 44.2861C103.46 44.1297 103.163 43.4279 103.101 43.2996C103.369 42.3051 104.267 41.5753 105.331 41.5753C106.248 41.5753 107.039 42.1167 107.415 42.8986C107.273 41.9683 106.813 41.1342 106.494 40.8215C106.105 40.4525 105.449 40.3323 105.449 40.3323C105.881 40.4044 106.45 40.1317 107.086 39.5422C107.692 38.9808 108.004 38.4876 108.02 38.0786C107.981 38.66 108 38.9849 108.162 39.4541C108.383 40.0996 108.981 41.2825 108.768 42.6179C108.649 43.3518 108.123 44.4465 107.249 45.3407C107.058 45.5411 106.992 45.8379 106.968 45.9943C106.968 45.9943 105.671 45.9943 105.366 46.0224C105.366 46.0224 105.058 45.9943 105.062 45.8018C105.069 45.6094 105.239 45.5572 105.39 45.5572C105.545 45.5492 106.189 45.5652 106.533 45.3046Z" fill="white"/>
<path d="M98.0026 45.6817C96.8992 45.0681 95.8236 44.1258 94.8508 42.6181L94.6768 42.3213C94.9418 42.4416 95.2858 42.3574 95.2858 42.3574C95.3016 42.3814 95.3451 42.4496 95.3649 42.4857C96.2705 43.8451 97.2749 44.6992 98.3032 45.2606L98.0026 45.6817Z" fill="white"/>
<path d="M99.3669 45.75C100.201 46.0588 101.032 46.2192 101.823 46.3435C102.337 46.4236 102.839 46.4517 103.318 46.4277C103.309 46.5079 103.313 46.6162 103.358 46.6963C103.358 46.6963 103.262 46.8087 103.262 46.937C102.771 46.957 102.266 46.9289 101.748 46.8447C100.889 46.7124 99.9798 46.5319 99.0703 46.1831L99.3669 45.75Z" fill="white"/>
<path d="M105.29 46.167C105.445 46.1429 105.927 46.1549 106.219 46.199C106.536 46.2512 106.9 46.3153 106.94 46.4958C106.979 46.6643 106.86 46.8447 106.698 47.1013C106.6 47.2577 106.362 47.1694 106.232 47.1174C106.102 47.0692 105.353 46.6602 105.232 46.5279C105.109 46.3956 105.061 46.2071 105.29 46.167Z" fill="white"/>
<path d="M104.528 46.6684C104.607 46.6162 104.805 46.54 105.007 46.6162C105.209 46.6924 105.944 47.1335 105.992 47.342C106.039 47.5466 105.939 47.6548 105.826 47.6989C105.711 47.743 105.573 47.7871 105.469 47.7991C105.288 47.8152 105.105 47.7069 105.011 47.5906C104.916 47.4744 104.571 47.0493 104.52 46.953C104.48 46.8567 104.452 46.7164 104.528 46.6684Z" fill="white"/>
<path d="M104.441 47.1295C104.548 47.2499 104.844 47.6188 104.88 47.6789C104.916 47.7391 104.865 47.8313 104.769 47.8233C104.674 47.8153 104.169 47.7592 103.88 47.5587C103.587 47.3582 103.393 46.9692 103.595 46.8288C103.793 46.6844 104.101 46.7486 104.441 47.1295Z" fill="white"/>
<path d="M104.275 46.0107C104.369 45.9866 104.753 45.8864 104.836 46.0147C104.939 46.1751 104.868 46.3475 104.567 46.4919C104.271 46.6363 103.709 46.7526 103.598 46.5962C103.492 46.4397 103.646 46.1751 104.275 46.0107Z" fill="white"/>
</g>
<defs>
<clipPath id="clip0_880_7381">
<rect width="124" height="61" fill="white"/>
</clipPath>
</defs>
</svg>
