<svg width="150" height="43" viewBox="0 0 150 43" fill="none" xmlns="http://www.w3.org/2000/svg">
<g clip-path="url(#clip0_880_7371)">
<path fill-rule="evenodd" clip-rule="evenodd" d="M23.5041 31.9571H17.036C6.94578 31.9571 14.2763 10.2299 22.7711 10.2299H32.9907C34.6293 10.2299 37.5184 10.536 38.9414 6.42658L41.1405 0.0439453H27.1263C19.5371 0.0439453 13.6295 2.75438 9.36055 7.30092C1.9869 15.0825 -0.514099 27.2357 1.25385 33.0501C2.93556 38.4272 7.50636 41.9683 14.6644 42.0557L20.227 42.0994H27.0831L28.7649 36.9846C30.0154 33.3561 27.2125 31.9571 23.5041 31.9571ZM102.243 22.9515L104.355 16.0006H81.8033C78.0519 16.0006 76.3701 17.0498 75.7234 19.2355L73.6104 26.1865H96.1626C99.914 26.1865 101.596 25.1373 102.243 22.9515ZM70.247 35.1922L68.1341 42.1431H90.6862C94.3946 42.1431 96.1194 41.0939 96.7663 38.9081L98.8792 31.9571H76.3271C72.6187 31.9571 70.9369 33.0063 70.247 35.1922ZM107.503 7.03862L109.617 0.0876614H87.0641C83.3126 0.0876614 81.6309 1.13686 80.9841 3.3227L78.8712 10.2737H101.423C105.132 10.2737 106.813 9.22446 107.503 7.03862ZM73.438 8.43756C72.4893 1.96748 69.0827 0.0876614 60.8035 0.0876614H45.7114L36.9147 26.1865H42.4773C45.7975 26.1865 47.4793 26.2303 49.2472 21.4214L52.9125 10.2299H58.5182C63.3046 10.2299 62.2266 16.3066 59.8118 22.2083C57.6558 27.4106 53.9043 32.0009 49.3765 32.0009H40.0194C36.2679 32.0009 34.5431 33.0501 33.8531 35.2359L31.5246 42.1868H38.3808L45.1076 42.1431C51.0583 42.0994 55.9309 41.6622 61.6228 36.46C67.6598 30.9079 74.6453 16.6563 73.438 8.43756ZM149.245 0.0439453H136.179L123.889 13.2901C122.466 14.8202 121 16.3502 119.577 18.1427H119.447L125.57 0.0439453H114.92L100.561 42.1431H111.212L115.782 28.897L120.525 24.8313L124.277 36.8097C125.441 40.5256 126.649 42.1431 129.237 42.1431H137.386L129.02 18.6236L149.245 0.0439453Z" fill="white"/>
</g>
<defs>
<clipPath id="clip0_880_7371">
<rect width="150" height="43" fill="white"/>
</clipPath>
</defs>
</svg>
