<svg width="30" height="28" viewBox="0 0 30 28" fill="none" xmlns="http://www.w3.org/2000/svg">
<g clip-path="url(#clip0_759_466)">
<path d="M12.5391 0.28599C11.7422 0.348848 11.2148 0.440277 10.3301 0.663134C5.44922 1.89171 1.78125 5.93171 1.08984 10.846C0.966797 11.686 0.966797 13.286 1.08984 14.126C1.6582 18.166 4.19531 21.6174 7.95117 23.4517C9.70898 24.3089 11.4551 24.7089 13.4766 24.7089C14.9121 24.7146 16.084 24.5374 17.3906 24.1374L17.877 23.9831L17.8418 23.6631C17.8008 23.2917 17.7539 23.0289 17.7246 23.0289C17.7188 23.0289 17.4375 23.1146 17.1035 23.2231C16.5059 23.4117 15.4219 23.6574 15.1758 23.6574H15.0469L15.0762 21.4403C15.1113 18.8231 15.1055 18.8631 15.8145 17.0117C16.3594 15.606 16.3711 15.5489 16.3242 15.2803C16.2715 15.0117 15.9199 14.646 15.6504 14.5717C15.5332 14.5431 15.0703 14.4746 14.6191 14.4288C13.7344 14.3317 12.9375 14.1717 12.4219 13.9831C12.2461 13.9203 11.4551 13.6003 10.6641 13.2688C9.87305 12.9374 9.12305 12.6574 8.99414 12.646C8.68359 12.6117 8.47852 12.726 7.44727 13.5031C6.94336 13.8746 6.58594 14.1888 6.52734 14.3031C6.4043 14.526 6.39258 14.8803 6.49805 15.126C6.57422 15.3088 8.25586 16.8746 9.28711 17.7203C10.2305 18.4974 10.6641 19.0174 10.9805 19.7603C11.4258 20.7946 11.4609 21.886 11.0801 22.9774C10.8809 23.5489 10.9395 23.5374 9.87305 23.1946C6.20508 22.006 3.38672 19.1031 2.34375 15.4288C2.05664 14.406 1.85742 12.446 1.97461 11.7488L2.02148 11.4688L4.7168 10.9888C6.19922 10.726 7.48242 10.486 7.56445 10.4517C7.65234 10.4174 7.78711 10.3203 7.86914 10.2403C7.95117 10.1546 8.42578 9.26313 8.92383 8.25742C10.0078 6.07456 9.94336 6.14314 10.8457 6.02313C11.1797 5.97742 11.5723 5.90314 11.7188 5.85742C12.416 5.62885 13.0664 5.07456 13.3945 4.42885C13.6289 3.96028 13.6816 3.68599 13.7695 2.60028C13.7988 2.16028 13.8457 1.66313 13.8633 1.49742L13.8984 1.18885L14.3438 1.22885C15 1.28599 15.4805 1.35456 16.1309 1.49742L16.6992 1.61742V2.73742C16.6992 3.92028 16.7402 4.21742 16.916 4.45171C17.1387 4.73742 17.2969 4.80028 18.3633 5.00028C18.9375 5.10885 19.4648 5.23456 19.5352 5.27456C19.6055 5.32028 20.0566 5.70885 20.5371 6.14314C21.0234 6.57171 21.5215 6.97171 21.6504 7.02885C21.8086 7.09742 22.1602 7.15456 22.7051 7.20028C23.8711 7.29171 23.7598 7.24028 24.0469 7.84599C24.3516 8.47456 24.8438 9.93742 24.8438 10.1946C24.8438 10.2117 24.4219 10.2288 23.9063 10.2288C23.2441 10.2288 22.9102 10.206 22.7754 10.1488C22.6699 10.1088 22.0371 9.73742 21.3691 9.32599C20.6953 8.90885 20.0566 8.56028 19.9395 8.53742C19.4766 8.45171 18.9141 8.80599 18.832 9.24028C18.7793 9.52028 19.0723 11.4403 19.2539 12.0003C19.5645 12.9488 20.373 13.7831 21.3633 14.1603L21.6504 14.2746L22.2363 13.9317C22.7637 13.6231 24.457 12.7888 25.6172 12.2688L26.0625 12.0688L26.0391 11.7031C25.8516 9.25742 25.0078 7.04599 23.5195 5.10313C23.0684 4.51456 21.9551 3.40028 21.3281 2.91456C19.6055 1.57742 17.4375 0.663134 15.3164 0.37742C14.4961 0.268848 13.248 0.228848 12.5391 0.28599Z" fill="#24701D"/>
<path d="M29.2734 10.5773C28.8457 11.4573 28.2246 11.8802 25.752 12.9716C23.168 14.1087 21.5332 15.0573 20.6133 15.9487C19.3594 17.1659 18.6738 18.8916 18.5977 21.0287L18.5684 21.8573L18.7852 21.4573C19.2656 20.5659 19.8281 19.8859 20.6016 19.2573C20.8945 19.023 21.4863 18.543 21.9258 18.1887C22.9746 17.343 24.2109 16.1716 24.9023 15.3659C25.9219 14.1773 26.0215 14.1144 26.3789 14.4573C26.6777 14.7544 26.5781 14.9544 25.5469 16.1087C24.6387 17.1316 23.3906 18.2744 21.8672 19.4744C20.8125 20.3087 20.3145 20.783 19.916 21.3316C19.0781 22.4859 18.7031 23.7259 18.6855 25.3602C18.6797 26.0802 18.6855 26.1316 18.8145 26.263C18.9902 26.4459 19.2949 26.4459 19.4766 26.2687C19.5938 26.1544 19.6172 26.0573 19.6523 25.4802C19.6758 25.1202 19.7285 24.6516 19.7695 24.4344C19.8633 23.9659 19.9277 23.903 20.6836 23.5202C21.3691 23.1716 21.6387 23.0802 23.1152 22.663C23.8242 22.463 24.6562 22.2002 24.9609 22.0859C26.6836 21.423 27.8848 20.5544 28.4238 19.5887C29.2559 18.0916 29.6777 16.3659 29.8359 13.823C29.9297 12.2287 29.7891 10.4573 29.543 10.2173C29.502 10.1773 29.4199 10.2859 29.2734 10.5773Z" fill="#55AD4D"/>
<path d="M0.310557 20.2574C0.0937603 20.406 0.087901 20.6346 0.28712 21.0174C0.533213 21.4917 1.27149 22.5603 1.40626 22.6288C1.52931 22.6917 1.75782 22.7031 1.90431 22.6517C2.00392 22.6117 2.16798 22.3431 2.16798 22.2117C2.16798 22.166 1.99806 21.8803 1.78712 21.5717C1.57618 21.2688 1.31251 20.8517 1.19532 20.6517C1.07814 20.446 0.93751 20.2574 0.878917 20.2288C0.720713 20.1431 0.457042 20.1603 0.310557 20.2574Z" fill="#E88A46"/>
<path d="M2.77149 23.2287C2.56055 23.3145 2.4375 23.5887 2.51953 23.7945C2.57813 23.9545 3.20508 24.5087 3.84961 24.9773C4.18946 25.2287 4.35352 25.3145 4.5 25.3145C4.85742 25.3145 5.0918 24.9373 4.92188 24.6287C4.89258 24.5716 4.72852 24.4287 4.5586 24.3087C4.38867 24.183 4.01367 23.8916 3.72071 23.6516C3.4336 23.4173 3.14063 23.2059 3.07032 23.1887C3 23.1716 2.86524 23.1887 2.77149 23.2287Z" fill="#E88A46"/>
<path d="M5.83011 25.5145C5.543 25.7945 5.65433 26.0974 6.14065 26.3374C6.67386 26.6002 7.8223 27.0288 7.9805 27.0288C8.22073 27.0288 8.43753 26.8231 8.43753 26.5945C8.43753 26.2688 8.3555 26.1945 7.75198 25.9717C7.43558 25.8517 6.9844 25.6688 6.74417 25.5602C6.22855 25.3317 6.02347 25.3202 5.83011 25.5145Z" fill="#E88A46"/>
<path d="M15.1289 26.4574C14.9238 26.5145 14.502 26.606 14.1914 26.6574C13.5 26.7717 13.336 26.8688 13.3125 27.1888C13.2774 27.6574 13.5879 27.7488 14.5606 27.5717C15.5801 27.3831 15.9727 27.2403 16.0899 27.0174C16.1953 26.8117 16.1602 26.6174 15.9844 26.4574C15.8262 26.3145 15.6211 26.3145 15.1289 26.4574Z" fill="#E88A46"/>
<path d="M9.62698 26.6345C9.32229 26.7887 9.31643 27.2287 9.6094 27.4345C9.77346 27.5487 10.8282 27.7087 11.5606 27.7316C12 27.743 12.0293 27.7373 12.1641 27.583C12.3399 27.383 12.3457 27.1945 12.1699 26.9945C12.041 26.8516 11.9766 26.8345 11.127 26.7373C10.6289 26.6802 10.1192 26.6173 9.99026 26.6002C9.86135 26.5887 9.69729 26.6002 9.62698 26.6345Z" fill="#E88A46"/>
</g>
<defs>
<clipPath id="clip0_759_466">
<rect width="30" height="28" fill="white"/>
</clipPath>
</defs>
</svg>
