<svg width="94" height="15" viewBox="0 0 94 15" fill="none" xmlns="http://www.w3.org/2000/svg">
<mask id="mask0_795_6891" style="mask-type:luminance" maskUnits="userSpaceOnUse" x="0" y="0" width="94" height="14">
<path d="M93.7889 0.294922H0.21106V13.7511H93.7889V0.294922Z" fill="white"/>
</mask>
<g mask="url(#mask0_795_6891)">
<path d="M7.9614 0.582031V13.5384H5.86824V2.44366H2.30826V13.5384H0.21106V0.582031H7.9614Z" fill="#1928DC"/>
<path d="M10.6042 13.0263C9.9755 12.432 9.51941 11.6692 9.28689 10.8232C8.94626 9.63847 8.7881 8.40599 8.81818 7.17074C8.78911 5.90408 8.94716 4.64019 9.28689 3.42251C9.51763 2.55175 9.97285 1.76164 10.6042 1.13609C11.1576 0.648071 11.862 0.379883 12.5903 0.379883C13.3186 0.379883 14.023 0.648071 14.5764 1.13609C15.207 1.7542 15.66 2.53958 15.8856 3.40585C16.2231 4.62402 16.3811 5.88755 16.3544 7.1541C16.3848 8.3962 16.2266 9.63559 15.8856 10.8273C15.6595 11.6731 15.2056 12.4355 14.5764 13.0263C14.0138 13.4974 13.3111 13.7546 12.5863 13.7546C11.8614 13.7546 11.1587 13.4974 10.5961 13.0263H10.6042ZM11.1215 9.75286C11.2039 10.3081 11.4055 10.8373 11.7114 11.3021C11.8075 11.4529 11.9373 11.5777 12.0899 11.6661C12.2425 11.7545 12.4134 11.8039 12.5883 11.8102C13.1055 11.8102 13.5136 11.4229 13.8005 10.6399C14.155 9.52131 14.3137 8.34664 14.2693 7.17074C14.2819 6.26945 14.2143 5.36889 14.0672 4.48036C13.9779 3.90242 13.7714 3.35041 13.4611 2.86028C13.3685 2.70171 13.2392 2.56927 13.0847 2.4748C12.9303 2.38032 12.7556 2.32675 12.5762 2.31887C12.4 2.32902 12.2289 2.38372 12.0781 2.47815C11.9273 2.57257 11.8014 2.70381 11.7114 2.86028C11.4053 3.35552 11.2042 3.91185 11.1215 4.49285C10.9677 5.37919 10.8973 6.27878 10.9113 7.17909C10.8977 8.04209 10.9681 8.90434 11.1215 9.75286Z" fill="#1928DC"/>
<path d="M22.1045 0.582031V5.55051H20.9973C20.5935 5.56798 20.1912 5.48961 19.8214 5.32146C19.5291 5.16299 19.3055 4.8968 19.1951 4.57598C19.0463 4.13176 18.9791 3.66288 18.9971 3.1933V0.582031H16.9039V3.1933C16.8409 4.32326 17.1672 5.43984 17.8253 6.34599C18.4394 7.10951 19.3567 7.49127 20.577 7.49127H22.1045V13.5384H24.2017V0.582031H22.1045Z" fill="#1928DC"/>
<path d="M32.0889 2.44366H29.624V13.5384H27.5389V2.44366H25.078V0.582031H32.0889V2.44366Z" fill="#1928DC"/>
<path d="M35.0686 0.581892H36.7456C37.4347 0.553937 38.1168 0.736499 38.7056 1.10665C39.2239 1.46579 39.6261 1.97625 39.8612 2.57262C40.1509 3.31148 40.3333 4.09032 40.4025 4.88402L41.3806 13.5383H39.2875L38.6043 7.49114H35.0686V13.5383H32.9756V0.581892H35.0686ZM35.0686 5.62951H38.3985L38.3013 4.88402C38.2646 4.40581 38.1696 3.9343 38.0186 3.48053C37.9117 3.17566 37.7045 2.91917 37.4326 2.75587C37.08 2.58343 36.6911 2.50469 36.3011 2.52681H35.0686V5.62951Z" fill="#1928DC"/>
<path d="M50.059 0.582154C50.7575 0.564896 51.4467 0.751109 52.0473 1.1194C52.6362 1.50566 53.0946 2.07004 53.3605 2.73531C53.696 3.5816 53.8557 4.49102 53.8291 5.40488C53.8487 6.27216 53.6988 7.13466 53.3889 7.94118C53.1575 8.55618 52.7875 9.10574 52.3098 9.54459C51.9789 9.8639 51.5501 10.054 51.0976 10.0818C50.8645 10.0973 50.6307 10.0594 50.4137 9.97079C50.1963 9.88219 50.0007 9.74519 49.841 9.56958V13.5385H47.7478V0.582154H50.059ZM49.9661 7.30814C50.0192 7.53936 50.1258 7.75376 50.2774 7.93286C50.327 7.99452 50.3885 8.04484 50.4581 8.08071C50.5276 8.11654 50.6038 8.13711 50.6814 8.14111C50.8641 8.13055 51.0361 8.04865 51.1622 7.91205C51.3551 7.70057 51.4942 7.44295 51.5662 7.16239C51.6829 6.7315 51.736 6.28509 51.7238 5.838C51.7238 4.62749 51.5812 3.7723 51.2957 3.27255C51.1751 3.04213 50.9948 2.85055 50.7754 2.71899C50.5556 2.58743 50.305 2.52101 50.051 2.52707H49.841V6.2753C49.8371 6.62385 49.8794 6.97129 49.9661 7.30814Z" fill="#1928DC"/>
<path d="M56.1606 13.0266C55.5306 12.4333 55.0742 11.6702 54.8432 10.8234C54.5011 9.63897 54.3414 8.40645 54.3704 7.17098C54.3421 5.90407 54.5015 4.64011 54.8432 3.42275C55.0717 2.55107 55.5274 1.76042 56.1606 1.13632C56.7054 0.637303 57.4116 0.366857 58.1405 0.37835C58.8723 0.365809 59.5823 0.63453 60.1327 1.13216C60.7652 1.75428 61.2198 2.54386 61.4459 3.41442C61.7817 4.63284 61.9386 5.89633 61.9107 7.16266C61.9397 8.39863 61.7842 9.63187 61.4501 10.8193C61.2223 11.6643 60.7687 12.4262 60.1408 13.0182C59.575 13.5054 58.8573 13.7643 58.1203 13.7471C57.4046 13.7546 56.7099 13.4992 56.1606 13.0266ZM56.6736 9.7531C56.7599 10.3073 56.9612 10.8357 57.2638 11.3024C57.3599 11.4529 57.4899 11.5775 57.6422 11.6659C57.7949 11.7543 57.9658 11.8038 58.1405 11.8105C58.6619 11.8105 59.0659 11.4231 59.3528 10.6402C59.7005 9.52026 59.8521 8.34562 59.8014 7.17098C59.8147 6.26948 59.7459 5.3687 59.5953 4.48056C59.5167 3.90626 59.3241 3.35476 59.0295 2.86051C58.9429 2.69716 58.8153 2.56084 58.6598 2.46588C58.5043 2.37092 58.3271 2.32081 58.1465 2.32081C57.9658 2.32081 57.7887 2.37092 57.6332 2.46588C57.478 2.56084 57.3501 2.69716 57.2638 2.86051C56.9605 3.35727 56.7596 3.91296 56.6736 4.49306C56.5237 5.37987 56.4545 6.27921 56.4674 7.1793C56.4548 8.04212 56.524 8.90411 56.6736 9.7531Z" fill="#1928DC"/>
<path d="M63.3616 3.51386C63.8771 2.54434 64.6818 1.7718 65.6568 1.31073C66.7946 0.798287 68.0277 0.549493 69.2693 0.581907V2.52682C67.7821 2.52682 66.6425 2.91553 65.8507 3.69293C65.0424 4.46758 64.6626 5.62954 64.6626 7.17046C64.6626 8.71141 65.0666 9.76507 65.8465 10.5022C66.6265 11.2394 67.774 11.6059 69.2693 11.6059V13.5508C67.1314 13.5508 65.4747 13.0177 64.3111 11.9516C63.1474 10.8854 62.5652 9.29864 62.5652 7.18295C62.5212 5.90981 62.7952 4.64632 63.3616 3.51386Z" fill="#1928DC"/>
<path d="M70.4127 3.51386C70.9281 2.54434 71.7329 1.7718 72.7078 1.31073C73.8456 0.798287 75.0788 0.549493 76.3204 0.581907V2.52682C74.8331 2.52682 73.6936 2.91553 72.9018 3.69293C72.0935 4.46758 71.7137 5.62954 71.7137 7.17046C71.7137 8.71141 72.1176 9.76507 72.8976 10.5022C73.6775 11.2394 74.8251 11.6059 76.3204 11.6059V13.5508C74.1828 13.5508 72.5258 13.0177 71.3621 11.9516C70.1985 10.8854 69.6285 9.28614 69.6285 7.17046C69.5827 5.90261 69.8525 4.64377 70.4127 3.51386Z" fill="#1928DC"/>
<path d="M79.3993 0.581999V5.20897L82.9633 2.11461L85.0484 0.307129V13.5509H82.9633V4.72172L79.4032 7.81609V13.5384H77.3062V0.581999H79.3993Z" fill="#1928DC"/>
<path d="M88.1322 0.581999V5.20897L91.6962 2.11461L93.7813 0.307129V13.5509H91.6881V4.72172L88.1238 7.81609V13.5384H86.0306V0.581999H88.1322Z" fill="#1928DC"/>
</g>
</svg>
