<svg width="42" height="42" viewBox="0 0 42 42" fill="none" xmlns="http://www.w3.org/2000/svg">
<g opacity="0.9">
<path d="M39.002 9.66517V41.9998H3.92188V0H29.337L33.8387 4.50179L39.002 9.66517Z" fill="#B12A27"/>
<path d="M19.8244 2.81348H3V10.3413H19.8244V2.81348Z" fill="#F2F2F2"/>
<path d="M9.03164 5.28086C8.95741 5.10154 8.85848 4.94076 8.72247 4.80475C8.58646 4.66875 8.41945 4.55743 8.22774 4.48319C8.02988 4.4028 7.80725 4.36572 7.55992 4.36572H5.71094V9.13953H6.6447V7.34001H7.55992C7.80725 7.34001 8.02988 7.30293 8.22774 7.22254C8.41945 7.1483 8.58638 7.03707 8.72247 6.90098C8.85856 6.76497 8.95749 6.61034 9.03164 6.42487C9.09965 6.24555 9.13681 6.05384 9.13681 5.85598C9.13673 5.65189 9.09965 5.46018 9.03164 5.28086ZM8.02364 6.32586C7.89994 6.44333 7.72686 6.50518 7.51661 6.50518H6.6447V5.19424H7.51661C7.72686 5.19424 7.90002 5.25609 8.02364 5.37971C8.14111 5.49718 8.20296 5.65796 8.20296 5.85582C8.20305 6.04761 8.1412 6.20839 8.02364 6.32586Z" fill="#B12A27"/>
<path d="M13.4958 6.21463C13.4896 6.04769 13.4834 5.8993 13.4649 5.76321C13.4463 5.62712 13.4154 5.5035 13.3721 5.38603C13.3288 5.27471 13.2731 5.16339 13.1989 5.06446C13.032 4.82329 12.8279 4.64397 12.5991 4.53266C12.3641 4.42134 12.0858 4.36572 11.7581 4.36572H10.0391V9.13953H11.7581C12.0858 9.13953 12.3641 9.08391 12.5991 8.9726C12.8279 8.86128 13.032 8.68196 13.1989 8.44079C13.2731 8.34186 13.3288 8.23054 13.3721 8.11923C13.4154 8.00176 13.4463 7.87805 13.4649 7.74205C13.4834 7.60604 13.4895 7.45756 13.4958 7.29063C13.5019 7.12985 13.5019 6.95053 13.5019 6.75267C13.5019 6.55481 13.5019 6.37541 13.4958 6.21463ZM12.562 7.23501C12.562 7.37725 12.5496 7.48857 12.5372 7.5875C12.5249 7.68028 12.5063 7.76682 12.4816 7.82867C12.4569 7.89668 12.4198 7.95853 12.3765 8.01414C12.2219 8.212 11.987 8.30478 11.6778 8.30478H10.9667V5.19432H11.6778C11.987 5.19432 12.222 5.29325 12.3765 5.49111C12.4199 5.54673 12.4569 5.60243 12.4816 5.67043C12.5063 5.73843 12.5249 5.81882 12.5372 5.91775C12.5496 6.01053 12.562 6.128 12.562 6.26401C12.5682 6.4001 12.5682 6.56703 12.5682 6.7525C12.5683 6.93814 12.5683 7.09892 12.562 7.23501Z" fill="#B12A27"/>
<path d="M17.4835 5.19432V4.36572H14.3359V9.13953H15.2697V7.20409H17.1558V6.36925H15.2697V5.19432H17.4835Z" fill="#B12A27"/>
<path d="M9.03164 5.28086C8.95741 5.10154 8.85848 4.94076 8.72247 4.80475C8.58646 4.66875 8.41945 4.55743 8.22774 4.48319C8.02988 4.4028 7.80725 4.36572 7.55992 4.36572H5.71094V9.13953H6.6447V7.34001H7.55992C7.80725 7.34001 8.02988 7.30293 8.22774 7.22254C8.41945 7.1483 8.58638 7.03707 8.72247 6.90098C8.85856 6.76497 8.95749 6.61034 9.03164 6.42487C9.09965 6.24555 9.13681 6.05384 9.13681 5.85598C9.13673 5.65189 9.09965 5.46018 9.03164 5.28086ZM8.02364 6.32586C7.89994 6.44333 7.72686 6.50518 7.51661 6.50518H6.6447V5.19424H7.51661C7.72686 5.19424 7.90002 5.25609 8.02364 5.37971C8.14111 5.49718 8.20296 5.65796 8.20296 5.85582C8.20305 6.04761 8.1412 6.20839 8.02364 6.32586Z" fill="#B12A27"/>
<path opacity="0.08" d="M39.002 9.66533V42H3.92188V34.4187L20.3211 18.0196L21.2919 17.0487L21.8299 16.5107L22.7266 15.6141L23.7902 14.5505L33.8387 4.50195L39.002 9.66533Z" fill="#040000"/>
<path d="M39.0022 9.66623H29.3359V0L39.0022 9.66623Z" fill="#771B1B"/>
<path d="M33.9908 30.4056C33.7867 30.047 33.5084 29.7069 33.1622 29.3977C32.8778 29.138 32.5438 28.8968 32.1666 28.6742C30.6454 27.7776 28.4749 27.3447 25.5252 27.3447H25.2284C25.0677 27.1963 24.9007 27.0479 24.7276 26.8933C23.6083 25.8854 22.7179 24.7908 22.0253 23.5726C23.3857 20.5735 24.035 17.9022 23.9546 15.6265C23.9422 15.2431 23.8866 14.8845 23.7876 14.5505C23.6392 14.0126 23.3919 13.5364 23.0456 13.1468C23.0394 13.1406 23.0394 13.1406 23.0332 13.1344C22.4829 12.5161 21.7161 12.1636 20.9369 12.1636C20.1515 12.1636 19.4281 12.5037 18.9024 13.1283C18.383 13.7466 18.1048 14.5938 18.0924 15.5894C18.0738 17.1106 18.1975 18.5513 18.4573 19.8808C18.4819 19.986 18.5006 20.0911 18.5253 20.1962C18.785 21.402 19.1684 22.5459 19.663 23.6096C19.0818 24.7906 18.4943 25.8109 18.0861 26.5035C17.777 27.0292 17.4369 27.5795 17.0844 28.1299C15.4952 28.4144 14.1471 28.7606 12.9722 29.1935C11.383 29.7686 10.1092 30.5106 9.19396 31.3949C8.6003 31.9638 8.19834 32.5698 8.00048 33.2006C7.79024 33.8498 7.80262 34.4991 8.03756 35.0804C8.25396 35.6184 8.64353 36.0698 9.16303 36.379C9.28673 36.4532 9.41659 36.515 9.5526 36.5707C9.9484 36.7314 10.3812 36.818 10.8326 36.818C11.8777 36.818 12.9536 36.3666 13.8626 35.5565C15.557 34.0415 17.3069 31.6051 18.3396 30.0653C19.1868 29.9355 20.1081 29.8242 21.1471 29.7128C22.3715 29.5891 23.4536 29.515 24.4368 29.4778C24.7399 29.7499 25.0305 30.0096 25.3087 30.257C26.8547 31.6359 28.0296 32.6315 29.0932 33.3303C29.0932 33.3364 29.0993 33.3364 29.1056 33.3364C29.5261 33.6147 29.928 33.8434 30.33 34.029C30.7814 34.2392 31.239 34.3506 31.7089 34.3506C32.3026 34.3506 32.8591 34.1712 33.3229 33.8435C33.7928 33.5034 34.1329 33.0149 34.2876 32.4646C34.4669 31.8031 34.3618 31.0673 33.9908 30.4056ZM20.3185 18.0196C20.232 17.2528 20.1948 16.4551 20.2072 15.6141C20.2196 14.8165 20.5102 14.2784 20.9369 14.2784C21.2585 14.2784 21.5986 14.5691 21.7531 15.1256C21.7964 15.2925 21.8273 15.4842 21.8335 15.7006C21.8459 15.9603 21.8396 16.2324 21.8273 16.5107C21.7903 17.296 21.6542 18.1308 21.4192 19.0275C21.277 19.6026 21.0915 20.2024 20.8627 20.8269C20.603 19.9489 20.4175 19.0152 20.3185 18.0196ZM10.0041 34.2951C9.89893 34.0354 10.0165 33.5345 10.6596 32.9162C11.6428 31.9763 13.1826 31.2342 15.3283 30.6715C14.9202 31.228 14.5183 31.7351 14.1287 32.1988C13.535 32.9161 12.9662 33.5221 12.4529 33.9797C12.0139 34.3754 11.5315 34.6228 11.0739 34.6847C10.9936 34.6971 10.9132 34.7032 10.8328 34.7032C10.4307 34.7033 10.103 34.5425 10.0041 34.2951ZM19.8857 27.7219L19.929 27.6539L19.861 27.6663C19.8734 27.6353 19.8919 27.6044 19.9104 27.5797C20.1701 27.1407 20.4979 26.5779 20.8504 25.9287L20.8813 25.9967L20.9617 25.8297C21.2214 26.2008 21.5059 26.5656 21.8027 26.918C21.9449 27.085 22.0933 27.2458 22.2417 27.4065L22.1428 27.4127L22.2293 27.4931C21.9757 27.5116 21.7099 27.5364 21.4439 27.5611C21.277 27.5796 21.1038 27.592 20.9307 27.6105C20.5721 27.6476 20.2196 27.6848 19.8857 27.7219ZM30.2929 31.5805C29.557 31.1105 28.7346 30.4488 27.7205 29.5645C29.1613 29.7129 30.2929 30.0283 31.0968 30.4983C31.4493 30.7024 31.7151 30.9126 31.8945 31.1166C32.1913 31.432 32.2964 31.7165 32.2407 31.9082C32.1913 32.0999 31.9749 32.2297 31.7089 32.2297C31.5543 32.2297 31.3936 32.1927 31.2266 32.1123C30.9421 31.9763 30.6453 31.8092 30.33 31.6052C30.3176 31.6052 30.3053 31.5928 30.2929 31.5805Z" fill="#F2F2F2"/>
</g>
</svg>
