<svg width="25" height="22" viewBox="0 0 25 22" fill="none" xmlns="http://www.w3.org/2000/svg">
<path fill-rule="evenodd" clip-rule="evenodd" d="M1.92889 9.58664C8.37002 6.69268 12.658 4.76971 14.8111 3.83679C20.9394 1.19034 22.2276 0.733395 23.0558 0.714355C23.2398 0.714355 23.6447 0.752434 23.9207 0.980905C24.1416 1.1713 24.1968 1.41881 24.2336 1.6092C24.2704 1.79959 24.3072 2.19942 24.2704 2.50404C23.9391 6.1215 22.5037 14.8986 21.7676 18.9349C21.4547 20.6484 20.8474 21.2196 20.2585 21.2767C18.9703 21.391 17.9949 20.4009 16.7619 19.5632C14.8111 18.2495 13.7254 17.4308 11.8298 16.1361C9.63984 14.6511 11.0569 13.8324 12.3083 12.4996C12.6396 12.1569 18.2894 6.82595 18.3998 6.34997C18.4182 6.29285 18.4182 6.06438 18.2894 5.95015C18.1605 5.83591 17.9765 5.87399 17.8293 5.91207C17.6268 5.95015 14.5351 8.08254 8.51724 12.2902C7.63389 12.9185 6.84255 13.2231 6.12483 13.2041C5.33349 13.1851 3.82442 12.7472 2.68343 12.3664C1.30318 11.9094 0.198991 11.6619 0.291007 10.8623C0.346216 10.4434 0.898313 10.0245 1.92889 9.58664Z" fill="#33AADE"/>
</svg>
