<svg width="28" height="28" viewBox="0 0 28 28" fill="none" xmlns="http://www.w3.org/2000/svg">
<path d="M13.9998 22.4468C13.2941 22.4468 12.6324 22.4222 12.0125 22.3728L9.04897 25.8669C8.82393 26.1323 8.38944 25.9735 8.38944 25.6259V21.6386C4.9 20.3284 3.71411 17.3981 3.71411 12.6518C3.71411 5.93704 6.08774 2.85693 13.9998 2.85693C21.9119 2.85693 24.2855 5.93704 24.2855 12.6518C24.2855 19.3666 21.9119 22.4468 13.9998 22.4468Z" fill="white"/>
<path fill-rule="evenodd" clip-rule="evenodd" d="M26 12.6099C26 4.74857 23.2307 1.14258 14 1.14258C4.76923 1.14258 2 4.74857 2 12.6099C2 18.2044 3.40253 21.6439 7.53846 23.1621V25.8089C7.53846 26.7832 8.76088 27.2282 9.39406 26.4845L11.5283 23.9778C12.2954 24.0441 13.1183 24.0771 14 24.0771C23.2307 24.0771 26 20.4711 26 12.6099ZM12.0383 22.1697C12.6501 22.2182 13.3033 22.2423 14 22.2423C21.8106 22.2423 24.1539 19.2133 24.1539 12.6099C24.1539 6.00637 21.8106 2.97734 14 2.97734C6.18935 2.97734 3.84616 6.00637 3.84616 12.6099C3.84616 17.2773 5.01684 20.1591 8.46154 21.4475V25.3688C8.46154 25.7106 8.89049 25.8668 9.11266 25.6058L12.0383 22.1697Z" fill="#9179EE"/>
<path d="M10.1797 10.6865L10.1449 10.7058L10.1142 10.7312C9.87714 10.9273 9.52177 11.4656 9.83308 12.131C10.0925 12.6854 10.6704 13.8176 11.686 14.6706C12.6791 15.5049 13.7397 15.9536 14.4363 16.1006L14.4801 16.1098H14.52C14.5219 16.11 14.5261 16.1104 14.5329 16.1114C14.5494 16.1138 14.5694 16.1172 14.6009 16.1227C14.6063 16.1236 14.6118 16.1246 14.6177 16.1257C14.832 16.1636 15.3459 16.2544 15.7766 15.8252C16.053 15.5498 16.3054 15.2625 16.414 15.1334C16.4903 15.0638 16.7389 14.9196 17.0535 15.026C17.6492 15.2273 18.3575 15.6816 18.6998 15.9119C18.9648 16.0904 19.5647 16.5201 19.8352 16.7154C19.8576 16.7316 19.9106 16.7849 19.9391 16.8587C19.9619 16.9177 19.9741 16.9988 19.9193 17.1161C19.8177 17.3336 19.5083 17.7489 19.0894 18.1122C18.6628 18.4821 18.2189 18.7141 17.8631 18.7141C17.8644 18.7141 17.8631 18.7139 17.8591 18.7134C17.8433 18.7112 17.7844 18.7033 17.6677 18.677C17.5366 18.6476 17.3594 18.6014 17.1429 18.5363C16.7103 18.4061 16.1298 18.2032 15.4595 17.9148C14.1177 17.3376 12.4285 16.4235 10.8471 15.0774C9.85237 14.2307 8.91388 13.06 8.18308 11.9642C7.44617 10.859 6.95322 9.87968 6.81906 9.42736L6.80966 9.39565L6.79554 9.36582C6.76213 9.29528 6.71507 9.1445 6.71413 8.9735C6.71321 8.80836 6.75461 8.65056 6.86381 8.51971C7.22383 8.08827 7.60501 7.6643 8.44596 7.25746C8.52429 7.21957 8.647 7.18616 8.76761 7.18421C8.89125 7.18222 8.95571 7.21293 8.98142 7.23552C9.30319 7.51766 9.80197 8.01571 10.138 8.44133C10.3116 8.6612 10.5214 8.94051 10.6962 9.18316C10.7837 9.30453 10.8607 9.41459 10.9194 9.5021C10.9488 9.54599 10.9723 9.58225 10.9896 9.61019C11.0015 9.62939 11.0078 9.64062 11.0105 9.64542C11.0119 9.65031 11.0185 9.67105 11.0243 9.70885C11.0316 9.75642 11.0351 9.81496 11.0302 9.87616C11.02 10.0013 10.9788 10.1018 10.9049 10.1696C10.6537 10.3996 10.3133 10.6125 10.1797 10.6865ZM14.2369 5.87076C14.2372 5.87052 14.2374 5.87028 14.2377 5.87002C14.2439 5.86424 14.2565 5.85693 14.2763 5.85693C17.698 5.85693 20.427 8.4608 20.4284 11.6195C20.4279 11.6203 20.4269 11.6213 20.4256 11.6227C20.4194 11.6284 20.4067 11.6357 20.3869 11.6357C20.3671 11.6357 20.3544 11.6284 20.3483 11.6227C20.3469 11.6213 20.346 11.6203 20.3454 11.6195C20.3441 8.4279 17.6026 5.88458 14.2763 5.88458C14.2565 5.88458 14.2439 5.87728 14.2377 5.8715C14.2374 5.87124 14.2372 5.87099 14.2369 5.87076ZM14.2377 9.41065C14.2374 9.41039 14.2372 9.41013 14.2369 9.40996C14.2372 9.4097 14.2374 9.40945 14.2377 9.40919C14.2439 9.40345 14.2565 9.39608 14.2763 9.39608C15.6212 9.39608 16.6667 10.4154 16.668 11.6195C16.6675 11.6203 16.6666 11.6213 16.6652 11.6227C16.659 11.6284 16.6464 11.6357 16.6265 11.6357C16.6067 11.6357 16.5941 11.6284 16.5879 11.6227C16.5865 11.6213 16.5857 11.6203 16.5851 11.6195C16.5837 10.3826 15.5258 9.42376 14.2763 9.42376C14.2565 9.42376 14.2439 9.41648 14.2377 9.41065ZM14.2377 7.64108C14.2374 7.64083 14.2372 7.64058 14.2369 7.64035C14.2372 7.64011 14.2374 7.63986 14.2377 7.63961C14.2439 7.63383 14.2565 7.62652 14.2763 7.62652C16.6596 7.62652 18.5468 9.43808 18.5483 11.6195C18.5477 11.6203 18.5468 11.6213 18.5454 11.6227C18.5393 11.6284 18.5266 11.6357 18.5068 11.6357C18.4869 11.6357 18.4742 11.6284 18.4681 11.6227C18.4667 11.6213 18.4658 11.6203 18.4653 11.6195C18.4639 9.40525 16.5641 7.65417 14.2763 7.65417C14.2565 7.65417 14.2439 7.64686 14.2377 7.64108Z" fill="#9179EE"/>
<path d="M14.6009 16.1227C14.5694 16.1172 14.5494 16.1138 14.5329 16.1114C14.5261 16.1104 14.5219 16.11 14.52 16.1098H14.4801L14.4363 16.1006C13.7397 15.9536 12.6791 15.5049 11.686 14.6706C10.6704 13.8176 10.0925 12.6854 9.83308 12.131C9.52177 11.4656 9.87714 10.9273 10.1142 10.7312L10.1449 10.7058L10.1797 10.6865C10.3133 10.6125 10.6537 10.3996 10.9049 10.1696C10.9788 10.1018 11.02 10.0013 11.0302 9.87616C11.0351 9.81496 11.0316 9.75642 11.0243 9.70885C11.0185 9.67105 11.0119 9.65031 11.0105 9.64542C11.0078 9.64062 11.0015 9.62939 10.9896 9.61019C10.9723 9.58225 10.9488 9.54599 10.9194 9.5021C10.8607 9.41459 10.7837 9.30453 10.6962 9.18316C10.5214 8.94051 10.3116 8.6612 10.138 8.44133C9.80197 8.01571 9.30319 7.51766 8.98142 7.23552C8.95571 7.21293 8.89125 7.18222 8.76761 7.18421C8.647 7.18616 8.52429 7.21957 8.44596 7.25746C7.60501 7.6643 7.22383 8.08827 6.86381 8.51971C6.75461 8.65056 6.71321 8.80836 6.71413 8.9735C6.71507 9.1445 6.76213 9.29528 6.79554 9.36582L6.80966 9.39565L6.81906 9.42736C6.95322 9.87968 7.44617 10.859 8.18308 11.9642C8.91388 13.06 9.85237 14.2307 10.8471 15.0774C12.4285 16.4235 14.1177 17.3376 15.4595 17.9148C16.1298 18.2032 16.7103 18.4061 17.1429 18.5363C17.3594 18.6014 17.5366 18.6476 17.6677 18.677C17.7844 18.7033 17.8433 18.7112 17.8591 18.7134C17.8631 18.7139 17.8644 18.7141 17.8631 18.7141C18.2189 18.7141 18.6628 18.4821 19.0894 18.1122C19.5083 17.7489 19.8177 17.3336 19.9193 17.1161C19.9741 16.9988 19.9619 16.9177 19.9391 16.8587C19.9106 16.7849 19.8576 16.7316 19.8352 16.7154C19.5647 16.5201 18.9648 16.0904 18.6998 15.9119C18.3575 15.6816 17.6492 15.2273 17.0535 15.026C16.7389 14.9196 16.4903 15.0638 16.414 15.1334C16.3054 15.2625 16.053 15.5498 15.7766 15.8252C15.3459 16.2544 14.832 16.1636 14.6177 16.1257C14.6118 16.1246 14.6063 16.1236 14.6009 16.1227ZM14.6009 16.1227L14.6747 15.7005M14.2369 5.87076C14.2372 5.87052 14.2374 5.87028 14.2377 5.87002C14.2439 5.86424 14.2565 5.85693 14.2763 5.85693C17.698 5.85693 20.427 8.4608 20.4284 11.6195C20.4279 11.6203 20.4269 11.6213 20.4256 11.6227C20.4194 11.6284 20.4067 11.6357 20.3869 11.6357C20.3671 11.6357 20.3544 11.6284 20.3483 11.6227C20.3469 11.6213 20.346 11.6203 20.3454 11.6195C20.3441 8.4279 17.6026 5.88458 14.2763 5.88458C14.2565 5.88458 14.2439 5.87728 14.2377 5.8715C14.2374 5.87124 14.2372 5.87099 14.2369 5.87076ZM14.2377 9.41065C14.2374 9.41039 14.2372 9.41013 14.2369 9.40996C14.2372 9.4097 14.2374 9.40945 14.2377 9.40919C14.2439 9.40345 14.2565 9.39608 14.2763 9.39608C15.6212 9.39608 16.6667 10.4154 16.668 11.6195C16.6675 11.6203 16.6666 11.6213 16.6652 11.6227C16.659 11.6284 16.6464 11.6357 16.6265 11.6357C16.6067 11.6357 16.5941 11.6284 16.5879 11.6227C16.5865 11.6213 16.5857 11.6203 16.5851 11.6195C16.5837 10.3826 15.5258 9.42376 14.2763 9.42376C14.2565 9.42376 14.2439 9.41648 14.2377 9.41065ZM14.2377 7.64108C14.2374 7.64083 14.2372 7.64058 14.2369 7.64035C14.2372 7.64011 14.2374 7.63986 14.2377 7.63961C14.2439 7.63383 14.2565 7.62652 14.2763 7.62652C16.6596 7.62652 18.5468 9.43808 18.5483 11.6195C18.5477 11.6203 18.5468 11.6213 18.5454 11.6227C18.5393 11.6284 18.5266 11.6357 18.5068 11.6357C18.4869 11.6357 18.4742 11.6284 18.4681 11.6227C18.4667 11.6213 18.4658 11.6203 18.4653 11.6195C18.4639 9.40525 16.5641 7.65417 14.2763 7.65417C14.2565 7.65417 14.2439 7.64686 14.2377 7.64108Z" stroke="#9179EE" stroke-width="0.5625" stroke-linecap="round"/>
</svg>
