<svg width="28" height="28" viewBox="0 0 28 28" fill="none" xmlns="http://www.w3.org/2000/svg">
<path fill-rule="evenodd" clip-rule="evenodd" d="M23.7178 4.27175C21.1393 1.70266 17.7104 0.287214 14.0572 0.285645C6.52965 0.285645 0.403114 6.38249 0.400092 13.8764C0.399172 16.2718 1.02791 18.6099 2.2231 20.6712L0.285645 27.7142L7.52538 25.8242C9.52013 26.907 11.766 27.4778 14.0516 27.4786H14.0573C21.584 27.4786 27.7111 21.3809 27.7142 13.8869C27.7155 10.2555 26.2962 6.84071 23.7178 4.27175ZM14.0573 25.1832H14.0527C12.0159 25.1824 10.0181 24.6377 8.2754 23.6085L7.86084 23.3638L3.56467 24.4853L4.71138 20.3166L4.44148 19.889C3.30529 18.0905 2.70507 16.0117 2.70599 13.877C2.70848 7.64847 7.80053 2.58117 14.0619 2.58117C17.0936 2.58221 19.9438 3.75874 22.0869 5.8942C24.2299 8.02953 25.4094 10.8677 25.4082 13.8863C25.4057 20.1154 20.3136 25.1832 14.0573 25.1832ZM20.2836 16.7223C19.9423 16.5524 18.2648 15.7308 17.9519 15.6174C17.6392 15.5043 17.4116 15.4475 17.1842 15.7875C16.9567 16.1275 16.3026 16.8924 16.1035 17.1192C15.9045 17.3457 15.7054 17.3742 15.3643 17.204C15.0229 17.0342 13.9235 16.6755 12.6201 15.5184C11.6057 14.6179 10.9208 13.5059 10.7218 13.1658C10.5227 12.8258 10.7005 12.642 10.8714 12.4727C11.0249 12.3205 11.2127 12.0759 11.3833 11.8777C11.554 11.6794 11.6108 11.5377 11.7246 11.3111C11.8384 11.0844 11.7815 10.8861 11.6961 10.7162C11.6108 10.5461 10.9283 8.87443 10.644 8.19443C10.367 7.53235 10.0857 7.62193 9.87622 7.61146C9.67741 7.60166 9.4497 7.59943 9.22212 7.59943C8.99467 7.59943 8.62505 7.68443 8.31219 8.02443C7.99947 8.36443 7.11792 9.18606 7.11792 10.8577C7.11792 12.5293 8.34057 14.144 8.51126 14.3708C8.68181 14.5974 10.9175 18.0276 14.3406 19.4988C15.1546 19.8487 15.7903 20.0576 16.2859 20.2142C17.1035 20.4727 17.8473 20.4361 18.4352 20.3488C19.0909 20.2512 20.4541 19.5272 20.7385 18.7339C21.0228 17.9405 21.0228 17.2605 20.9375 17.1189C20.8522 16.9774 20.6248 16.8924 20.2836 16.7223Z" fill="#26D044"/>
</svg>
