<?xml version="1.0"?>
<svg xmlns="http://www.w3.org/2000/svg" xmlns:xlink="http://www.w3.org/1999/xlink" version="1.1" xml:space="preserve">
  <defs>

    <symbol id="logo" width="100%" height="100%" viewBox="0 0 50 47">
      <path d="M20.8536 0.97374C19.5131 1.07914 18.626 1.23244 17.1376 1.60612C8.92692 3.66614 2.75658 10.4403 1.59348 18.6804C1.38648 20.0888 1.38648 22.7717 1.59348 24.1801C2.54958 30.9543 6.81757 36.7415 13.1358 39.8171C16.0928 41.2544 19.0301 41.9251 22.4307 41.9251C24.8456 41.9347 26.817 41.6376 29.015 40.9669L29.8332 40.7082L29.774 40.1717C29.705 39.5489 29.6262 39.1081 29.5769 39.1081C29.567 39.1081 29.0939 39.2518 28.5321 39.4339C27.5267 39.7501 25.7032 40.1621 25.2892 40.1621H25.0723L25.1216 36.4445C25.1808 32.0561 25.1709 32.1232 26.3636 29.0188C27.2803 26.6617 27.3 26.5659 27.2211 26.1156C27.1324 25.6653 26.541 25.052 26.0876 24.9275C25.8904 24.8796 25.1118 24.7646 24.3528 24.688C22.8644 24.5251 21.5239 24.2568 20.6565 23.9406C20.3608 23.8352 19.0301 23.2986 17.6995 22.7429C16.3688 22.1872 15.1071 21.7177 14.8903 21.6985C14.3679 21.641 14.0229 21.8327 12.2881 23.1357C11.4404 23.7585 10.8391 24.2855 10.7406 24.4772C10.5336 24.8508 10.5139 25.4449 10.6913 25.8569C10.8194 26.1635 13.6483 28.7888 15.3831 30.2069C16.9701 31.51 17.6995 32.3819 18.2317 33.6275C18.9808 35.3617 19.04 37.1918 18.3993 39.0219C18.0642 39.98 18.1627 39.9609 16.3688 39.386C10.1984 37.393 5.45733 32.5256 3.70283 26.3647C3.21985 24.6496 2.88472 21.3632 3.08185 20.1942L3.1607 19.7247L7.69483 18.9199C10.1886 18.4791 12.3472 18.0767 12.4852 18.0192C12.6331 17.9617 12.8598 17.7989 12.9978 17.6647C13.1358 17.521 13.9342 16.0263 14.772 14.3399C16.5955 10.6798 16.4871 10.7948 18.005 10.5936C18.5669 10.5169 19.2273 10.3924 19.4737 10.3157C20.6466 9.93244 21.7407 9.00303 22.2927 7.92033C22.687 7.13464 22.7757 6.67473 22.9236 4.85425C22.9728 4.11647 23.0517 3.28288 23.0813 3.00502L23.1404 2.48761L23.8895 2.55469C24.9935 2.65051 25.8017 2.76548 26.8958 3.00502L27.8519 3.20623V5.08421C27.8519 7.06757 27.9209 7.56581 28.2166 7.95865C28.5912 8.43773 28.8573 8.54313 30.6513 8.87848C31.6172 9.06052 32.5043 9.27132 32.6226 9.33839C32.7409 9.41504 33.4999 10.0666 34.3081 10.7948C35.1263 11.5134 35.9641 12.1841 36.1809 12.2799C36.4471 12.3949 37.0385 12.4907 37.9551 12.5674C39.9166 12.7207 39.7294 12.6344 40.2123 13.6501C40.7249 14.704 41.5529 17.1569 41.5529 17.5881C41.5529 17.6168 40.8432 17.6455 39.9758 17.6455C38.862 17.6455 38.3001 17.6072 38.0734 17.5114C37.896 17.4443 36.8315 16.8215 35.7078 16.1317C34.5743 15.4322 33.4999 14.8478 33.3027 14.8094C32.5241 14.6657 31.5778 15.2598 31.4398 15.9879C31.3511 16.4574 31.8439 19.6768 32.1495 20.6158C32.6719 22.2063 34.0321 23.6052 35.6979 24.2376L36.1809 24.4293L37.1666 23.8544C38.0537 23.337 40.9023 21.9381 42.854 21.0661L43.6031 20.7308L43.5637 20.1176C43.2482 16.0167 41.8289 12.3087 39.3252 9.05095C38.5663 8.06405 36.6935 6.19566 35.6388 5.38123C32.7409 3.13916 29.0939 1.60612 25.5257 1.12704C24.1458 0.944996 22.0463 0.877926 20.8536 0.97374Z" fill="currentColor" />
      <path d="M49.0047 18.2298C48.2851 19.7054 47.2403 20.4144 43.0808 22.2445C38.7339 24.1512 35.9839 25.7417 34.4364 27.2364C32.327 29.2773 31.1738 32.1709 31.0456 35.7544L30.9963 37.1437L31.361 36.473C32.1693 34.9783 33.1155 33.8381 34.4166 32.7841C34.9095 32.3913 35.905 31.5864 36.6443 30.9924C38.4086 29.5743 40.4884 27.6101 41.6515 26.2591C43.3666 24.2662 43.5342 24.1608 44.1354 24.7357C44.6381 25.2339 44.4706 25.5693 42.7358 27.5047C41.208 29.2198 39.1085 31.1361 36.5457 33.1482C34.7715 34.5471 33.9337 35.3424 33.2634 36.2622C31.8539 38.1977 31.223 40.2769 31.1935 43.0172C31.1836 44.2244 31.1935 44.3107 31.4103 44.531C31.706 44.8376 32.2186 44.8376 32.5241 44.5406C32.7213 44.349 32.7607 44.1861 32.8198 43.2184C32.8593 42.6147 32.948 41.8291 33.017 41.465C33.1747 40.6793 33.2831 40.5739 34.5546 39.9319C35.7079 39.3474 36.1613 39.1941 38.6452 38.4947C39.8379 38.1593 41.2375 37.7186 41.7501 37.527C44.648 36.4155 46.6686 34.9591 47.5754 33.3398C48.9751 30.8295 49.6848 27.9359 49.9509 23.6721C50.1086 20.9989 49.8721 18.0286 49.4581 17.6262C49.3891 17.5591 49.2511 17.7412 49.0047 18.2298Z" fill="currentColor" />
      <path d="M0.282476 34.4608C-0.0822251 34.7099 -0.0920819 35.0932 0.243049 35.7352C0.657034 36.5304 1.89899 38.3222 2.12569 38.4372C2.33269 38.5425 2.7171 38.5617 2.96352 38.4755C3.13109 38.4084 3.40708 37.9581 3.40708 37.7377C3.40708 37.6611 3.12123 37.182 2.76638 36.6646C2.41154 36.1568 1.96799 35.4573 1.77085 35.122C1.57371 34.777 1.33715 34.4608 1.23858 34.4129C0.97245 34.2692 0.528895 34.2979 0.282476 34.4608Z" fill="currentColor" />
      <path d="M4.42254 39.4437C4.06769 39.5874 3.8607 40.0473 3.9987 40.3922C4.09726 40.6605 5.15194 41.5899 6.23618 42.3756C6.80788 42.7972 7.08387 42.9409 7.33029 42.9409C7.93155 42.9409 8.32582 42.3085 8.03998 41.7911C7.99069 41.6953 7.7147 41.4558 7.42885 41.2546C7.14301 41.0438 6.51217 40.5551 6.01934 40.1527C5.53635 39.7599 5.04351 39.4053 4.92523 39.3766C4.80695 39.3479 4.58025 39.3766 4.42254 39.4437Z" fill="currentColor" />
      <path d="M9.56758 43.2758C9.0846 43.7453 9.27188 44.2532 10.09 44.6556C10.987 45.0963 12.9189 45.8149 13.185 45.8149C13.5892 45.8149 13.9539 45.47 13.9539 45.0867C13.9539 44.5406 13.8159 44.416 12.8006 44.0424C12.2683 43.8412 11.5094 43.5345 11.1052 43.3525C10.2378 42.9692 9.89286 42.9501 9.56758 43.2758Z" fill="currentColor" />
      <path d="M25.2104 44.8568C24.8654 44.9527 24.1558 45.106 23.6334 45.1922C22.4703 45.3838 22.1943 45.5467 22.1548 46.0833C22.0957 46.869 22.6181 47.0223 24.2543 46.7252C25.9694 46.409 26.6298 46.1695 26.8269 45.7958C27.0044 45.4509 26.9452 45.1251 26.6495 44.8568C26.3834 44.6173 26.0384 44.6173 25.2104 44.8568Z" fill="currentColor" />
      <path d="M15.9549 45.1541C15.4424 45.4128 15.4325 46.1505 15.9254 46.4955C16.2014 46.6871 17.9756 46.9554 19.2077 46.9937C19.9469 47.0129 19.9962 47.0033 20.2229 46.7446C20.5186 46.4092 20.5285 46.093 20.2328 45.7577C20.0159 45.5181 19.9075 45.4894 18.4783 45.3265C17.6404 45.2307 16.7829 45.1253 16.5661 45.0966C16.3492 45.0774 16.0732 45.0966 15.9549 45.1541Z" fill="currentColor" />
    </symbol>

    <symbol id="preloader" width="100%" height="100%" viewBox="0 0 24 24">
      <path d="M12.5621 5.61427C14.1125 5.61427 15.3694 4.35747 15.3694 2.80713C15.3694 1.2568 14.1125 0 12.5621 0C11.0117 0 9.75488 1.2568 9.75488 2.80713C9.75488 4.35747 11.0117 5.61427 12.5621 5.61427Z" fill="currentColor" />
      <path d="M12.5621 24C13.4922 24 14.2463 23.246 14.2463 22.3159C14.2463 21.3858 13.4922 20.6318 12.5621 20.6318C11.632 20.6318 10.8779 21.3858 10.8779 22.3159C10.8779 23.246 11.632 24 12.5621 24Z" fill="currentColor" />
      <path d="M5.66439 8.19005C7.05985 8.19005 8.19109 7.05885 8.19109 5.66344C8.19109 4.26804 7.05985 3.13684 5.66439 3.13684C4.26894 3.13684 3.1377 4.26804 3.1377 5.66344C3.1377 7.05885 4.26894 8.19005 5.66439 8.19005Z" fill="currentColor" />
      <path d="M19.4603 20.8613C20.2355 20.8613 20.8639 20.2329 20.8639 19.4578C20.8639 18.6826 20.2355 18.0542 19.4603 18.0542C18.6851 18.0542 18.0566 18.6826 18.0566 19.4578C18.0566 20.2329 18.6851 20.8613 19.4603 20.8613Z" fill="currentColor" />
      <path d="M2.80677 14.8072C4.04679 14.8072 5.05202 13.802 5.05202 12.562C5.05202 11.322 4.04679 10.3168 2.80677 10.3168C1.56675 10.3168 0.561523 11.322 0.561523 12.562C0.561523 13.802 1.56675 14.8072 2.80677 14.8072Z" fill="currentColor" />
      <path d="M22.3165 13.6832C22.9363 13.6832 23.4387 13.1808 23.4387 12.5611C23.4387 11.9414 22.9363 11.439 22.3165 11.439C21.6967 11.439 21.1943 11.9414 21.1943 12.5611C21.1943 13.1808 21.6967 13.6832 22.3165 13.6832Z" fill="currentColor" />
      <path d="M4.2751 18.0706C3.50726 18.8384 3.50726 20.0808 4.2751 20.8486C5.04204 21.6164 6.28626 21.6164 7.0532 20.8486C7.82105 20.0808 7.82105 18.8384 7.0532 18.0706C6.28626 17.3019 5.04295 17.2946 4.2751 18.0706Z" fill="currentColor" />
      <path d="M19.4588 6.50503C19.9236 6.50503 20.3004 6.12823 20.3004 5.66343C20.3004 5.19863 19.9236 4.82184 19.4588 4.82184C18.994 4.82184 18.6172 5.19863 18.6172 5.66343C18.6172 6.12823 18.994 6.50503 19.4588 6.50503Z" fill="currentColor" />
    </symbol>

    <symbol id="loader" width="100%" height="100%" viewBox="22 22 44 44">
      <circle cx="44" cy="44" r="20.2" fill="transparent" stroke="currentColor" stroke-width="4"></circle>
    </symbol>

    <symbol id="search" width="100%" height="100%" viewBox="0 0 25 24">
      <circle cx="11.8334" cy="11.5" r="9.5" fill="transparent" stroke="currentColor" stroke-width="1.5" />
      <path d="M20.3334 20L22.3334 22" fill="transparent" stroke="currentColor" stroke-width="1.5" stroke-linecap="round" />
    </symbol>

    <symbol id="burger" width="100%" height="100%" viewBox="0 0 24 24">
      <path fill-rule="evenodd" clip-rule="evenodd" d="M20.75 7C20.75 7.41421 20.4142 7.75 20 7.75L4 7.75C3.58579 7.75 3.25 7.41421 3.25 7C3.25 6.58579 3.58579 6.25 4 6.25L20 6.25C20.4142 6.25 20.75 6.58579 20.75 7Z" fill="currentColor" stroke="currentColor" />
      <path fill-rule="evenodd" clip-rule="evenodd" d="M20.75 12C20.75 12.4142 20.4142 12.75 20 12.75L4 12.75C3.58579 12.75 3.25 12.4142 3.25 12C3.25 11.5858 3.58579 11.25 4 11.25L20 11.25C20.4142 11.25 20.75 11.5858 20.75 12Z" fill="currentColor" stroke="currentColor" />
      <path fill-rule="evenodd" clip-rule="evenodd" d="M20.75 17C20.75 17.4142 20.4142 17.75 20 17.75L4 17.75C3.58579 17.75 3.25 17.4142 3.25 17C3.25 16.5858 3.58579 16.25 4 16.25L20 16.25C20.4142 16.25 20.75 16.5858 20.75 17Z" fill="currentColor" stroke="currentColor" />
    </symbol>

    <symbol id="close" width="100%" height="100%" viewBox="0 0 24 24">
      <path d="M18 6L6 18M6 6L18 18" fill="currentColor" stroke="currentColor" stroke-width="1.5" stroke-linecap="round" stroke-linejoin="round" />
    </symbol>

    <symbol id="user" width="100%" height="100%" viewBox="0 0 24 24">
      <circle cx="12" cy="6" r="4" fill="currentColor" />
      <ellipse cx="12" cy="17" rx="7" ry="4" fill="currentColor" />
    </symbol>

    <symbol id="user-fade" width="100%" height="100%" viewBox="0 0 30 31">
      <circle cx="15" cy="8" r="5" fill="transparent" stroke="currentColor" stroke-width="2" />
      <path d="M25 22.375C25 25.4816 25 28 15 28C5 28 5 25.4816 5 22.375C5 19.2684 9.47715 16.75 15 16.75C20.5228 16.75 25 19.2684 25 22.375Z" fill="transparent" stroke="currentColor" stroke-width="2" />
    </symbol>

    <symbol id="basket" width="100%" height="100%" viewBox="0 0 24 24">
      <path d="M2.55657 2.07026C2.0589 2.24468 1.84063 2.88169 2.12875 3.35186C2.30337 3.64762 2.43434 3.68554 3.39475 3.73862L4.21547 3.77654L6.14503 9.88123C7.20148 13.2407 8.11824 16.0618 8.17936 16.1528C8.38017 16.4713 8.99135 16.8504 9.45409 16.9339C9.75968 16.9945 11.4797 17.0097 14.9634 16.9945C19.7043 16.9718 20.0448 16.9642 20.333 16.8277C20.7171 16.6533 21.1799 16.2741 21.337 16.0163C21.4069 15.9101 22.0268 14.1659 22.734 12.1411C23.6071 9.59306 24 8.35696 24 8.09912C24 7.62894 23.7381 7.1436 23.319 6.84784C22.6729 6.38525 22.865 6.39284 14.6491 6.39284H7.15783L6.98321 5.87716C6.88717 5.59657 6.65143 4.87614 6.45061 4.26946C6.25853 3.66279 6.04899 3.07886 5.9966 2.96511C5.86564 2.66177 5.21081 2.16884 4.82664 2.07784C4.42501 1.97926 2.8185 1.97167 2.55657 2.07026Z" fill="currentColor" />
      <path d="M9.88287 18.4128C9.08577 18.5613 8.53092 19.1943 8.48403 20.0227C8.43714 20.6791 8.60907 21.1245 9.05451 21.5153C9.64061 22.031 10.3283 22.1326 11.0082 21.8122C11.4771 21.5934 11.6881 21.3746 11.8991 20.9057C12.1882 20.2649 12.0788 19.5381 11.6177 19.0224C11.1332 18.491 10.5628 18.2878 9.88287 18.4128Z" fill="currentColor" />
      <path d="M18.1427 18.413C17.1268 18.6084 16.4391 19.8822 16.8376 20.8512C17.1112 21.4999 17.8536 22 18.5334 22C19.2602 22 20.0417 21.4295 20.2449 20.7575C20.6512 19.3899 19.5494 18.1551 18.1427 18.413Z" fill="currentColor" />
    </symbol>

    <symbol id="basket-fade" width="100%" height="100%" viewBox="0 0 30 31">
      <path d="M2.5 4.25L2.83114 4.36038C4.48119 4.9104 5.30621 5.1854 5.77811 5.84012C6.25 6.49484 6.25 7.36449 6.25 9.1038V12.375C6.25 15.9105 6.25 17.6783 7.34835 18.7767C8.4467 19.875 10.2145 19.875 13.75 19.875H23.75" fill="transparent" stroke="currentColor" stroke-width="2" stroke-linecap="round" />
      <path d="M9.375 23C10.4105 23 11.25 23.8395 11.25 24.875C11.25 25.9105 10.4105 26.75 9.375 26.75C8.33947 26.75 7.5 25.9105 7.5 24.875C7.5 23.8395 8.33947 23 9.375 23Z" fill="transparent" stroke="currentColor" stroke-width="2" />
      <path d="M20.625 23.0001C21.6605 23.0001 22.5 23.8396 22.5 24.8751C22.5 25.9106 21.6605 26.7501 20.625 26.7501C19.5895 26.7501 18.75 25.9106 18.75 24.8751C18.75 23.8396 19.5895 23.0001 20.625 23.0001Z" fill="transparent" stroke="currentColor" stroke-width="2" />
      <path d="M6.25 8H20.563C23.1317 8 24.4161 8 24.9718 8.84283C25.5276 9.68566 25.0216 10.8662 24.0098 13.2272L23.4741 14.4772C23.0016 15.5795 22.7654 16.1307 22.2958 16.4403C21.8262 16.75 21.2265 16.75 20.0273 16.75H6.25" fill="transparent" stroke="currentColor" stroke-width="2" />
    </symbol>

    <symbol id="heart" width="100%" height="100%" viewBox="0 0 31 31">
      <path d="M11.7022 24.1384L12.3212 23.3531L11.7022 24.1384ZM15.5 7.37561L14.7795 8.06908C14.968 8.26494 15.2282 8.37561 15.5 8.37561C15.7718 8.37561 16.032 8.26494 16.2205 8.06908L15.5 7.37561ZM19.2978 24.1384L19.9169 24.9237L19.2978 24.1384ZM12.3212 23.3531C10.423 21.8566 8.35824 20.4032 6.71959 18.558C5.11522 16.7515 4 14.6484 4 11.9212H2C2 15.2726 3.39692 17.8285 5.22416 19.8861C7.01712 21.905 9.30348 23.5208 11.0831 24.9237L12.3212 23.3531ZM4 11.9212C4 9.25599 5.5059 7.0242 7.55643 6.0869C9.54392 5.17841 12.223 5.413 14.7795 8.06908L16.2205 6.68214C13.1522 3.49426 9.58128 2.9623 6.72497 4.26792C3.9317 5.54474 2 8.50772 2 11.9212H4ZM11.0831 24.9237C11.7228 25.428 12.4135 25.9691 13.1145 26.3787C13.8151 26.7881 14.6211 27.1248 15.5 27.1248V25.1248C15.1289 25.1248 14.6849 24.9799 14.1235 24.6519C13.5626 24.3241 12.9794 23.8719 12.3212 23.3531L11.0831 24.9237ZM19.9169 24.9237C21.6965 23.5208 23.9829 21.905 25.7758 19.8861C27.6031 17.8285 29 15.2726 29 11.9212H27C27 14.6484 25.8848 16.7515 24.2804 18.558C22.6418 20.4032 20.577 21.8566 18.6787 23.3531L19.9169 24.9237ZM29 11.9212C29 8.50772 27.0683 5.54474 24.275 4.26792C21.4187 2.9623 17.8478 3.49426 14.7795 6.68214L16.2205 8.06908C18.777 5.413 21.4561 5.17841 23.4436 6.0869C25.4941 7.0242 27 9.25599 27 11.9212H29ZM18.6787 23.3531C18.0206 23.8719 17.4374 24.3241 16.8765 24.6519C16.3151 24.9799 15.8711 25.1248 15.5 25.1248V27.1248C16.3789 27.1248 17.1849 26.7881 17.8855 26.3787C18.5865 25.9691 19.2772 25.428 19.9169 24.9237L18.6787 23.3531Z" fill="currentColor" />
    </symbol>

    <symbol id="like" width="100%" height="100%" viewBox="0 0 32 32">
      <path d="M11.9489 25.2145L10.7108 26.7852L10.7108 26.7852L11.9489 25.2145ZM16 7.33418L14.559 8.72111C14.936 9.11283 15.4563 9.33418 16 9.33418C16.5436 9.33418 17.0639 9.11283 17.4409 8.72111L16 7.33418ZM20.051 25.2145L18.8128 23.6439L20.051 25.2145ZM13.1871 23.6439C11.1069 22.004 9.00795 20.5294 7.33205 18.6423C5.72473 16.8324 4.66663 14.8006 4.66663 12.1828H0.666626C0.666626 16.0489 2.28814 18.9866 4.3412 21.2984C6.3257 23.533 8.8679 25.3324 10.7108 26.7852L13.1871 23.6439ZM4.66663 12.1828C4.66663 9.68911 6.07422 7.64976 7.91483 6.80841C9.62937 6.02469 12.071 6.13614 14.559 8.72111L17.4409 5.94724C13.9292 2.29866 9.7041 1.59246 6.25191 3.17046C2.92581 4.69083 0.666626 8.19257 0.666626 12.1828H4.66663ZM10.7108 26.7852C11.3846 27.3163 12.1715 27.9349 12.9845 28.41C13.7969 28.8847 14.8256 29.3333 16 29.3333V25.3333C15.841 25.3333 15.5363 25.2682 15.0026 24.9564C14.4696 24.6449 13.8977 24.204 13.1871 23.6439L10.7108 26.7852ZM21.2892 26.7852C23.132 25.3324 25.6742 23.533 27.6587 21.2984C29.7118 18.9866 31.3333 16.0489 31.3333 12.1828H27.3333C27.3333 14.8006 26.2752 16.8324 24.6679 18.6423C22.992 20.5294 20.893 22.004 18.8128 23.6439L21.2892 26.7852ZM31.3333 12.1828C31.3333 8.19257 29.0741 4.69083 25.748 3.17046C22.2958 1.59246 18.0707 2.29866 14.559 5.94724L17.4409 8.72111C19.929 6.13614 22.3706 6.02469 24.0851 6.80841C25.9257 7.64976 27.3333 9.68911 27.3333 12.1828H31.3333ZM18.8128 23.6439C18.1022 24.204 17.5303 24.6449 16.9973 24.9564C16.4636 25.2682 16.1589 25.3333 16 25.3333V29.3333C17.1744 29.3333 18.203 28.8847 19.0154 28.41C19.8284 27.9349 20.6154 27.3163 21.2892 26.7852L18.8128 23.6439Z" fill="white" />
      <path d="M2.66663 12.1828C2.66663 18.6667 8.02586 22.1219 11.9489 25.2145C13.3333 26.3058 14.6666 27.3333 16 27.3333C17.3333 27.3333 18.6666 26.3058 20.051 25.2145C23.9741 22.1219 29.3333 18.6667 29.3333 12.1828C29.3333 5.69888 21.9997 1.10062 16 7.33418C10.0002 1.10062 2.66663 5.69888 2.66663 12.1828Z" />
      <path d="M11.9489 25.2145L11.3299 25.9998L11.9489 25.2145ZM16 7.33418L15.2795 8.02764C15.468 8.2235 15.7281 8.33418 16 8.33418C16.2718 8.33418 16.5319 8.2235 16.7204 8.02764L16 7.33418ZM20.051 25.2145L19.4319 24.4292L20.051 25.2145ZM12.568 24.4292C10.5471 22.8361 8.33738 21.2803 6.58434 19.3064C4.86558 17.371 3.66663 15.1127 3.66663 12.1828H1.66663C1.66663 15.7368 3.14729 18.4481 5.08892 20.6344C6.99626 22.7821 9.42765 24.5003 11.3299 25.9998L12.568 24.4292ZM3.66663 12.1828C3.66663 9.31497 5.28712 6.91003 7.4991 5.89892C9.64805 4.91663 12.5355 5.17677 15.2795 8.02764L16.7204 6.64071C13.4646 3.25803 9.68542 2.70052 6.66764 4.07995C3.71291 5.43056 1.66663 8.56671 1.66663 12.1828H3.66663ZM11.3299 25.9998C12.0128 26.5382 12.746 27.1124 13.4891 27.5466C14.2318 27.9806 15.0794 28.3333 16 28.3333V26.3333C15.5872 26.3333 15.1015 26.1723 14.4981 25.8198C13.8951 25.4674 13.2694 24.9821 12.568 24.4292L11.3299 25.9998ZM20.6701 25.9998C22.5723 24.5003 25.0037 22.7821 26.911 20.6344C28.8526 18.4481 30.3333 15.7368 30.3333 12.1828H28.3333C28.3333 15.1127 27.1343 17.371 25.4156 19.3064C23.6625 21.2803 21.4528 22.8361 19.4319 24.4292L20.6701 25.9998ZM30.3333 12.1828C30.3333 8.56671 28.287 5.43056 25.3323 4.07995C22.3145 2.70052 18.5353 3.25803 15.2795 6.64071L16.7204 8.02764C19.4644 5.17677 22.3519 4.91663 24.5008 5.89892C26.7128 6.91003 28.3333 9.31497 28.3333 12.1828H30.3333ZM19.4319 24.4292C18.7305 24.9821 18.1049 25.4674 17.5018 25.8198C16.8984 26.1723 16.4128 26.3333 16 26.3333V28.3333C16.9205 28.3333 17.7681 27.9806 18.5109 27.5466C19.2539 27.1124 19.9871 26.5382 20.6701 25.9998L19.4319 24.4292Z" fill="currentColor" />
    </symbol>

    <symbol id="sale" width="100%" height="100%" viewBox="0 0 24 24">
      <path fill-rule="evenodd" clip-rule="evenodd" d="M9.5924 3.20027C9.34888 3.4078 9.22711 3.51158 9.09706 3.59874C8.79896 3.79854 8.46417 3.93721 8.1121 4.00672C7.95851 4.03705 7.79903 4.04977 7.48008 4.07522C6.6787 4.13918 6.278 4.17115 5.94371 4.28923C5.17051 4.56233 4.56233 5.17051 4.28923 5.94371C4.17115 6.278 4.13918 6.6787 4.07522 7.48008C4.04977 7.79903 4.03705 7.95851 4.00672 8.1121C3.93721 8.46417 3.79854 8.79896 3.59874 9.09706C3.51158 9.22711 3.40781 9.34887 3.20027 9.5924C2.67883 10.2043 2.4181 10.5102 2.26522 10.8301C1.91159 11.57 1.91159 12.43 2.26522 13.1699C2.41811 13.4898 2.67883 13.7957 3.20027 14.4076C3.40778 14.6511 3.51158 14.7729 3.59874 14.9029C3.79854 15.201 3.93721 15.5358 4.00672 15.8879C4.03705 16.0415 4.04977 16.201 4.07522 16.5199C4.13918 17.3213 4.17115 17.722 4.28923 18.0563C4.56233 18.8295 5.17051 19.4377 5.94371 19.7108C6.278 19.8288 6.6787 19.8608 7.48008 19.9248C7.79903 19.9502 7.95851 19.963 8.1121 19.9933C8.46417 20.0628 8.79896 20.2015 9.09706 20.4013C9.22711 20.4884 9.34887 20.5922 9.5924 20.7997C10.2043 21.3212 10.5102 21.5819 10.8301 21.7348C11.57 22.0884 12.43 22.0884 13.1699 21.7348C13.4898 21.5819 13.7957 21.3212 14.4076 20.7997C14.6511 20.5922 14.7729 20.4884 14.9029 20.4013C15.201 20.2015 15.5358 20.0628 15.8879 19.9933C16.0415 19.963 16.201 19.9502 16.5199 19.9248C17.3213 19.8608 17.722 19.8288 18.0563 19.7108C18.8295 19.4377 19.4377 18.8295 19.7108 18.0563C19.8288 17.722 19.8608 17.3213 19.9248 16.5199C19.9502 16.201 19.963 16.0415 19.9933 15.8879C20.0628 15.5358 20.2015 15.201 20.4013 14.9029C20.4884 14.7729 20.5922 14.6511 20.7997 14.4076C21.3212 13.7957 21.5819 13.4898 21.7348 13.1699C22.0884 12.43 22.0884 11.57 21.7348 10.8301C21.5819 10.5102 21.3212 10.2043 20.7997 9.5924C20.5922 9.34887 20.4884 9.22711 20.4013 9.09706C20.2015 8.79896 20.0628 8.46417 19.9933 8.1121C19.963 7.95851 19.9502 7.79903 19.9248 7.48008C19.8608 6.6787 19.8288 6.278 19.7108 5.94371C19.4377 5.17051 18.8295 4.56233 18.0563 4.28923C17.722 4.17115 17.3213 4.13918 16.5199 4.07522C16.201 4.04977 16.0415 4.03705 15.8879 4.00672C15.5358 3.93721 15.201 3.79854 14.9029 3.59874C14.7729 3.51158 14.6511 3.40781 14.4076 3.20027C13.7957 2.67883 13.4898 2.41811 13.1699 2.26522C12.43 1.91159 11.57 1.91159 10.8301 2.26522C10.5102 2.4181 10.2043 2.67883 9.5924 3.20027ZM15.8309 8.16959C16.1487 8.48742 16.1487 9.00273 15.8309 9.32056L9.32003 15.8314C9.0022 16.1493 8.48689 16.1493 8.16906 15.8314C7.85123 15.5136 7.85123 14.9983 8.16906 14.6805L14.6799 8.16959C14.9978 7.85176 15.5131 7.85176 15.8309 8.16959ZM15.798 14.7134C15.798 15.3127 15.3122 15.7985 14.7129 15.7985C14.1135 15.7985 13.6277 15.3127 13.6277 14.7134C13.6277 14.1141 14.1135 13.6282 14.7129 13.6282C15.3122 13.6282 15.798 14.1141 15.798 14.7134ZM9.28712 10.3728C9.88643 10.3728 10.3723 9.88696 10.3723 9.28765C10.3723 8.68834 9.88643 8.2025 9.28712 8.2025C8.68781 8.2025 8.20197 8.68834 8.20197 9.28765C8.20197 9.88696 8.68781 10.3728 9.28712 10.3728Z" fill="currentColor" />
    </symbol>

    <symbol id="arrow-left" width="100%" height="100%" viewBox="0 0 24 24">
      <path d="M9.76777 12L15.8839 5.88388C16.372 5.39573 16.372 4.60427 15.8839 4.11612C15.3957 3.62796 14.6043 3.62796 14.1161 4.11612L7.11612 11.1161C6.62796 11.6043 6.62796 12.3957 7.11612 12.8839L14.1161 19.8839C14.6043 20.372 15.3957 20.372 15.8839 19.8839C16.372 19.3957 16.372 18.6043 15.8839 18.1161L9.76777 12Z" fill="currentColor" />
    </symbol>

    <symbol id="arrow-right" width="100%" height="100%" viewBox="0 0 24 24">
      <path d="M14.2322 12L8.11612 5.88388C7.62796 5.39573 7.62796 4.60427 8.11612 4.11612C8.60427 3.62796 9.39573 3.62796 9.88388 4.11612L16.8839 11.1161C17.372 11.6043 17.372 12.3957 16.8839 12.8839L9.88388 19.8839C9.39573 20.372 8.60427 20.372 8.11612 19.8839C7.62796 19.3957 7.62796 18.6043 8.11612 18.1161L14.2322 12Z" fill="currentColor" />
    </symbol>

    <symbol id="arrow-back" width="100%" height="100%" viewBox="0 0 24 24">
      <path d="M20 12H4M4 12L10 6M4 12L10 18" fill="transparent" stroke="currentColor" stroke-width="1.5" stroke-linecap="round" stroke-linejoin="round" />
    </symbol>

    <symbol id="clock" width="100%" height="100%" viewBox="0 0 24 24">
      <circle cx="12" cy="12" r="10" fill="transparent" stroke="currentColor" stroke-width="2" />
      <path d="M12 8V12L14.5 14.5" fill="transparent" stroke="currentColor" stroke-width="2" stroke-linecap="round" stroke-linejoin="round" />
    </symbol>

    <symbol id="alert" width="100%" height="100%" viewBox="0 0 20 21">
      <path fill-rule="evenodd" clip-rule="evenodd" d="M18.3346 10.4998C18.3346 5.89746 14.6037 2.1665 10.0013 2.1665C5.39893 2.1665 1.66797 5.89746 1.66797 10.4998C1.66797 15.1022 5.39893 18.8332 10.0013 18.8332C14.6037 18.8332 18.3346 15.1022 18.3346 10.4998ZM10.0013 5.70817C10.3465 5.70817 10.6263 5.98799 10.6263 6.33317V11.3332C10.6263 11.6783 10.3465 11.9582 10.0013 11.9582C9.65612 11.9582 9.3763 11.6783 9.3763 11.3332V6.33317C9.3763 5.98799 9.65612 5.70817 10.0013 5.70817ZM10.0013 14.6665C10.4615 14.6665 10.8346 14.2934 10.8346 13.8332C10.8346 13.3729 10.4615 12.9998 10.0013 12.9998C9.54107 12.9998 9.16797 13.3729 9.16797 13.8332C9.16797 14.2934 9.54107 14.6665 10.0013 14.6665Z" fill="currentColor" />
    </symbol>

    <symbol id="alert-fade" width="100%" height="100%" viewBox="0 0 24 24">
      <path d="M12 21C16.9706 21 21 16.9706 21 12C21 7.02944 16.9706 3 12 3C7.02944 3 3 7.02944 3 12C3 16.9706 7.02944 21 12 21Z" fill="transparent" stroke="currentColor" stroke-width="2" stroke-linecap="round" stroke-linejoin="round" />
      <path d="M12 8V12" fill="transparent" stroke="currentColor" stroke-width="2" stroke-linecap="round" stroke-linejoin="round" />
      <path d="M12 16H12.01" fill="transparent" stroke="currentColor" stroke-width="2" stroke-linecap="round" stroke-linejoin="round" />
    </symbol>

    <symbol id="question" width="100%" height="100%" viewBox="0 0 24 24">
      <path fill-rule="evenodd" clip-rule="evenodd" d="M12 1C5.925 1 1 5.925 1 12C1 18.075 5.925 23 12 23C18.075 23 23 18.075 23 12C23 5.925 18.075 1 12 1ZM10.892 8.935C11.122 8.482 11.292 8.267 11.433 8.155C11.539 8.071 11.683 8 12 8C12.625 8 13 8.47 13 8.978C13 9.256 12.946 9.394 12.798 9.57C12.591 9.816 12.208 10.115 11.45 10.616C11.1691 10.8008 11 11.1144 11 11.4506V13C11 13.2652 11.1054 13.5196 11.2929 13.7071C11.4804 13.8946 11.7348 14 12 14C12.2652 14 12.5196 13.8946 12.7071 13.7071C12.8946 13.5196 13 13.2652 13 13C13 12.3632 13.3272 11.7842 13.8112 11.3703C14.006 11.2037 14.179 11.0348 14.327 10.859C14.804 10.293 15 9.689 15 8.978C15 7.508 13.867 6 12 6C11.316 6 10.711 6.176 10.192 6.587C9.708 6.97 9.378 7.497 9.108 8.032C9.04526 8.14947 9.00661 8.27828 8.99433 8.41089C8.98205 8.54349 8.99637 8.67722 9.03647 8.80421C9.07657 8.9312 9.14163 9.04891 9.22783 9.15042C9.31403 9.25193 9.41964 9.3352 9.53846 9.39534C9.65728 9.45548 9.78691 9.49128 9.91975 9.50065C10.0526 9.51001 10.186 9.49275 10.3121 9.44987C10.4381 9.40699 10.5544 9.33936 10.654 9.25094C10.7536 9.16253 10.8345 9.05511 10.892 8.935ZM13 16.5C13 16.2348 12.8946 15.9804 12.7071 15.7929C12.5196 15.6054 12.2652 15.5 12 15.5C11.7348 15.5 11.4804 15.6054 11.2929 15.7929C11.1054 15.9804 11 16.2348 11 16.5V17C11 17.2652 11.1054 17.5196 11.2929 17.7071C11.4804 17.8946 11.7348 18 12 18C12.2652 18 12.5196 17.8946 12.7071 17.7071C12.8946 17.5196 13 17.2652 13 17V16.5Z" fill="currentColor" />
    </symbol>

    <symbol id="eye-visible" width="100%" height="100%" viewBox="0 0 24 24">
      <path fill-rule="evenodd" clip-rule="evenodd" d="M20.771 12C20.771 11.6412 20.5769 11.4056 20.1888 10.9343C18.7687 9.21014 15.6365 6 12.0007 6C8.36501 6 5.2328 9.21014 3.81271 10.9343C3.42455 11.4056 3.23047 11.6412 3.23047 12C3.23047 12.3588 3.42455 12.5944 3.81271 13.0657C5.2328 14.7899 8.36501 18 12.0007 18C15.6365 18 18.7687 14.7899 20.1888 13.0657C20.5769 12.5944 20.771 12.3588 20.771 12ZM12.0007 15C13.6576 15 15.0007 13.6569 15.0007 12C15.0007 10.3431 13.6576 9 12.0007 9C10.3439 9 9.00075 10.3431 9.00075 12C9.00075 13.6569 10.3439 15 12.0007 15Z" fill="currentColor" />
    </symbol>

    <symbol id="eye-hidden" width="100%" height="100%" viewBox="0 0 24 24">
      <path fill-rule="evenodd" clip-rule="evenodd" d="M18.2378 15.1157C19.0491 14.3833 19.7144 13.6416 20.1888 13.0657C20.5769 12.5944 20.771 12.3588 20.771 12C20.771 11.6412 20.5769 11.4056 20.1888 10.9343C18.7687 9.21014 15.6365 6 12.0007 6C11.1613 6 10.3486 6.17115 9.57769 6.45563L12.1246 9.00251C13.6829 9.06577 14.935 10.3178 14.9982 11.8762L18.2378 15.1157ZM9.39381 10.5144C9.14368 10.9524 9.00074 11.4595 9.00074 12C9.00074 13.6569 10.3439 15 12.0007 15C12.5412 15 13.0484 14.8571 13.4863 14.6069L15.7879 16.9085C14.6368 17.5555 13.3536 18 12.0007 18C8.36501 18 5.2328 14.7899 3.81271 13.0657C3.42455 12.5944 3.23047 12.3588 3.23047 12C3.23047 11.6412 3.42455 11.4056 3.81271 10.9343C4.48614 10.1167 5.54458 8.96489 6.85916 7.97974L9.39381 10.5144Z" fill="currentColor" />
      <path d="M5 2L21 18" fill="transparent" stroke="currentColor" stroke-width="2" />
    </symbol>

    <symbol id="box" width="100%" height="100%" viewBox="0 0 24 24">
      <path d="M17.5777 4.43152L15.5777 3.38197C13.8221 2.46066 12.9443 2 12 2C11.0557 2 10.1779 2.46066 8.42229 3.38197L8.10057 3.5508L17.0236 8.64967L21.0403 6.64132C20.3941 5.90949 19.3515 5.36234 17.5777 4.43152Z" fill="currentColor" />
      <path d="M21.7484 7.96434L17.75 9.96353V13C17.75 13.4142 17.4142 13.75 17 13.75C16.5858 13.75 16.25 13.4142 16.25 13V10.7135L12.75 12.4635V21.904C13.4679 21.7252 14.2848 21.2965 15.5777 20.618L17.5777 19.5685C19.7294 18.4393 20.8052 17.8748 21.4026 16.8603C22 15.8458 22 14.5833 22 12.0585V11.9415C22 10.0489 22 8.86557 21.7484 7.96434Z" fill="currentColor" />
      <path d="M11.25 21.904V12.4635L2.25164 7.96434C2 8.86557 2 10.0489 2 11.9415V12.0585C2 14.5833 2 15.8458 2.5974 16.8603C3.19479 17.8748 4.27062 18.4393 6.42228 19.5685L8.42229 20.618C9.71524 21.2965 10.5321 21.7252 11.25 21.904Z" fill="currentColor" />
      <path d="M2.95969 6.64132L12 11.1615L15.4112 9.4559L6.52456 4.37785L6.42229 4.43152C4.64855 5.36234 3.6059 5.90949 2.95969 6.64132Z" fill="currentColor" />
    </symbol>

    <symbol id="calendar" width="100%" height="100%" viewBox="0 0 24 24">
      <path d="M7.75 2.5C7.75 2.08579 7.41421 1.75 7 1.75C6.58579 1.75 6.25 2.08579 6.25 2.5V4.07926C4.81067 4.19451 3.86577 4.47737 3.17157 5.17157C2.47737 5.86577 2.19451 6.81067 2.07926 8.25H21.9207C21.8055 6.81067 21.5226 5.86577 20.8284 5.17157C20.1342 4.47737 19.1893 4.19451 17.75 4.07926V2.5C17.75 2.08579 17.4142 1.75 17 1.75C16.5858 1.75 16.25 2.08579 16.25 2.5V4.0129C15.5847 4 14.839 4 14 4H10C9.16097 4 8.41527 4 7.75 4.0129V2.5Z" fill="currentColor" />
      <path fill-rule="evenodd" clip-rule="evenodd" d="M22 12V14C22 17.7712 22 19.6569 20.8284 20.8284C19.6569 22 17.7712 22 14 22H10C6.22876 22 4.34315 22 3.17157 20.8284C2 19.6569 2 17.7712 2 14V12C2 11.161 2 10.4153 2.0129 9.75H21.9871C22 10.4153 22 11.161 22 12ZM16.5 18C17.3284 18 18 17.3284 18 16.5C18 15.6716 17.3284 15 16.5 15C15.6716 15 15 15.6716 15 16.5C15 17.3284 15.6716 18 16.5 18Z" fill="currentColor" />
    </symbol>

    <symbol id="checkbox" width="100%" height="100%" viewBox="0 0 24 24">
      <path d="M12 21C16.9706 21 21 16.9706 21 12C21 7.02944 16.9706 3 12 3C7.02944 3 3 7.02944 3 12C3 16.9706 7.02944 21 12 21Z" fill="currentColor" />
      <path d="M9 12L11 14L15 10" fill="transparent" stroke="white" stroke-width="2" stroke-linecap="round" stroke-linejoin="round" />
    </symbol>

    <symbol id="dots" width="100%" height="100%" viewBox="0 0 24 24">
      <path fill-rule="evenodd" clip-rule="evenodd" d="M22 12C22 17.5228 17.5228 22 12 22C6.47715 22 2 17.5228 2 12C2 6.47715 6.47715 2 12 2C17.5228 2 22 6.47715 22 12ZM8 13C8.55228 13 9 12.5523 9 12C9 11.4477 8.55228 11 8 11C7.44772 11 7 11.4477 7 12C7 12.5523 7.44772 13 8 13ZM12 13C12.5523 13 13 12.5523 13 12C13 11.4477 12.5523 11 12 11C11.4477 11 11 11.4477 11 12C11 12.5523 11.4477 13 12 13ZM16 13C16.5523 13 17 12.5523 17 12C17 11.4477 16.5523 11 16 11C15.4477 11 15 11.4477 15 12C15 12.5523 15.4477 13 16 13Z" fill="currentColor" />
    </symbol>

    <symbol id="error" width="100%" height="100%" viewBox="0 0 24 24">
      <path fill-rule="evenodd" clip-rule="evenodd" d="M22 12C22 17.5228 17.5228 22 12 22C6.47715 22 2 17.5228 2 12C2 6.47715 6.47715 2 12 2C17.5228 2 22 6.47715 22 12ZM8.96963 8.96965C9.26252 8.67676 9.73739 8.67676 10.0303 8.96965L12 10.9393L13.9696 8.96967C14.2625 8.67678 14.7374 8.67678 15.0303 8.96967C15.3232 9.26256 15.3232 9.73744 15.0303 10.0303L13.0606 12L15.0303 13.9696C15.3232 14.2625 15.3232 14.7374 15.0303 15.0303C14.7374 15.3232 14.2625 15.3232 13.9696 15.0303L12 13.0607L10.0303 15.0303C9.73742 15.3232 9.26254 15.3232 8.96965 15.0303C8.67676 14.7374 8.67676 14.2625 8.96965 13.9697L10.9393 12L8.96963 10.0303C8.67673 9.73742 8.67673 9.26254 8.96963 8.96965Z" fill="currentColor" />
    </symbol>

    <symbol id="cube" width="100%" height="100%" viewBox="0 0 100 100">
      <path d="M35.0926 85.9084C42.4077 89.7472 46.0652 91.6666 49.9997 91.6666V49.9999L10.9914 29.4692C10.934 29.5615 10.8776 29.6547 10.8222 29.7488C8.33301 33.9759 8.33301 39.236 8.33301 49.7562V50.2436C8.33301 60.7638 8.33301 66.0239 10.8222 70.251C13.3113 74.4781 17.794 76.8305 26.7592 81.5353L35.0926 85.9084Z" fill="currentColor" />
      <path opacity="0.7" d="M73.239 18.4648L64.9056 14.0917C57.5905 10.2529 53.933 8.3335 49.9985 8.3335C46.064 8.3335 42.4065 10.2529 35.0914 14.0917L26.7581 18.4648C17.9924 23.0648 13.512 25.4161 10.9902 29.4695L49.9985 50.0002L89.0068 29.4695C86.485 25.4161 82.0046 23.0648 73.239 18.4648Z" fill="currentColor" />
      <path opacity="0.5" d="M89.1775 29.7493C89.1221 29.6552 89.0657 29.562 89.0083 29.4697L50 50.0004V91.6671C53.9345 91.6671 57.592 89.7477 64.9071 85.9089L73.2405 81.5357C82.2057 76.831 86.6884 74.4786 89.1775 70.2515C91.6667 66.0244 91.6667 60.7643 91.6667 50.2441V49.7567C91.6667 39.2365 91.6667 33.9764 89.1775 29.7493Z" fill="currentColor" />
    </symbol>

    <symbol id="database" width="100%" height="100%" viewBox="0 0 100 100">
      <path d="M50.0003 41.6668C68.4098 41.6668 83.3337 34.2049 83.3337 25.0002C83.3337 15.7954 68.4098 8.3335 50.0003 8.3335C31.5908 8.3335 16.667 15.7954 16.667 25.0002C16.667 34.2049 31.5908 41.6668 50.0003 41.6668Z" fill="currentColor" />
      <path opacity="0.5" d="M16.667 50V75C16.667 84.2047 31.5908 91.6667 50.0003 91.6667C68.4098 91.6667 83.3337 84.2047 83.3337 75V50C83.3337 59.2047 68.4098 66.6667 50.0003 66.6667C31.5908 66.6667 16.667 59.2047 16.667 50Z" fill="currentColor" />
      <path opacity="0.5" d="M16.667 25V50C16.667 59.2047 31.5908 66.6667 50.0003 66.6667C68.4098 66.6667 83.3337 59.2047 83.3337 50V25C83.3337 34.2047 68.4098 41.6667 50.0003 41.6667C31.5908 41.6667 16.667 34.2047 16.667 25Z" fill="currentColor" />
    </symbol>

    <symbol id="filter" width="100%" height="100%" viewBox="0 0 21 20">
      <path d="M9.66602 6.6665L17.166 6.6665" fill="transparent" stroke="currentColor" stroke-width="2" stroke-linecap="round" />
      <path d="M3.83398 13.3335L12.1673 13.3335" fill="transparent" stroke="currentColor" stroke-width="2" stroke-linecap="round" />
      <ellipse cx="6.33398" cy="6.6665" rx="2.5" ry="2.5" transform="rotate(90 6.33398 6.6665)" fill="transparent" stroke="currentColor" stroke-width="2" stroke-linecap="round" />
      <ellipse cx="14.666" cy="13.3335" rx="2.5" ry="2.5" transform="rotate(90 14.666 13.3335)" fill="transparent" stroke="currentColor" stroke-width="2" stroke-linecap="round" />
    </symbol>

    <symbol id="phone" width="100%" height="100%" viewBox="0 0 24 24">
      <path d="M14.5562 15.5477L14.1007 16.0272C14.1007 16.0272 13.0181 17.167 10.0631 14.0559C7.10812 10.9448 8.1907 9.80507 8.1907 9.80507L8.47752 9.50311C9.18407 8.75924 9.25068 7.56497 8.63424 6.6931L7.37326 4.90961C6.61028 3.8305 5.13596 3.68795 4.26145 4.60864L2.69185 6.26114C2.25823 6.71766 1.96765 7.30945 2.00289 7.96594C2.09304 9.64546 2.81071 13.259 6.81536 17.4752C11.0621 21.9462 15.0468 22.1239 16.6763 21.9631C17.1917 21.9122 17.6399 21.6343 18.0011 21.254L19.4217 19.7584C20.3806 18.7489 20.1102 17.0182 18.8833 16.312L16.9728 15.2123C16.1672 14.7486 15.1858 14.8848 14.5562 15.5477Z" fill="currentColor" />
      <path opacity="0.6" d="M17 12C19.7614 12 22 9.76142 22 7C22 4.23858 19.7614 2 17 2C14.2386 2 12 4.23858 12 7C12 7.79984 12.1878 8.55582 12.5217 9.22624C12.6105 9.4044 12.64 9.60803 12.5886 9.80031L12.2908 10.9133C12.1615 11.3965 12.6035 11.8385 13.0867 11.7092L14.1997 11.4114C14.392 11.36 14.5956 11.3895 14.7738 11.4783C15.4442 11.8122 16.2002 12 17 12Z" fill="currentColor" />
    </symbol>

    <symbol id="sale" width="100%" height="100%" viewBox="0 0 24 24">
      <path fill-rule="evenodd" clip-rule="evenodd" d="M9.5924 3.20027C9.34888 3.4078 9.22711 3.51158 9.09706 3.59874C8.79896 3.79854 8.46417 3.93721 8.1121 4.00672C7.95851 4.03705 7.79903 4.04977 7.48008 4.07522C6.6787 4.13918 6.278 4.17115 5.94371 4.28923C5.17051 4.56233 4.56233 5.17051 4.28923 5.94371C4.17115 6.278 4.13918 6.6787 4.07522 7.48008C4.04977 7.79903 4.03705 7.95851 4.00672 8.1121C3.93721 8.46417 3.79854 8.79896 3.59874 9.09706C3.51158 9.22711 3.40781 9.34887 3.20027 9.5924C2.67883 10.2043 2.4181 10.5102 2.26522 10.8301C1.91159 11.57 1.91159 12.43 2.26522 13.1699C2.41811 13.4898 2.67883 13.7957 3.20027 14.4076C3.40778 14.6511 3.51158 14.7729 3.59874 14.9029C3.79854 15.201 3.93721 15.5358 4.00672 15.8879C4.03705 16.0415 4.04977 16.201 4.07522 16.5199C4.13918 17.3213 4.17115 17.722 4.28923 18.0563C4.56233 18.8295 5.17051 19.4377 5.94371 19.7108C6.278 19.8288 6.6787 19.8608 7.48008 19.9248C7.79903 19.9502 7.95851 19.963 8.1121 19.9933C8.46417 20.0628 8.79896 20.2015 9.09706 20.4013C9.22711 20.4884 9.34887 20.5922 9.5924 20.7997C10.2043 21.3212 10.5102 21.5819 10.8301 21.7348C11.57 22.0884 12.43 22.0884 13.1699 21.7348C13.4898 21.5819 13.7957 21.3212 14.4076 20.7997C14.6511 20.5922 14.7729 20.4884 14.9029 20.4013C15.201 20.2015 15.5358 20.0628 15.8879 19.9933C16.0415 19.963 16.201 19.9502 16.5199 19.9248C17.3213 19.8608 17.722 19.8288 18.0563 19.7108C18.8295 19.4377 19.4377 18.8295 19.7108 18.0563C19.8288 17.722 19.8608 17.3213 19.9248 16.5199C19.9502 16.201 19.963 16.0415 19.9933 15.8879C20.0628 15.5358 20.2015 15.201 20.4013 14.9029C20.4884 14.7729 20.5922 14.6511 20.7997 14.4076C21.3212 13.7957 21.5819 13.4898 21.7348 13.1699C22.0884 12.43 22.0884 11.57 21.7348 10.8301C21.5819 10.5102 21.3212 10.2043 20.7997 9.5924C20.5922 9.34887 20.4884 9.22711 20.4013 9.09706C20.2015 8.79896 20.0628 8.46417 19.9933 8.1121C19.963 7.95851 19.9502 7.79903 19.9248 7.48008C19.8608 6.6787 19.8288 6.278 19.7108 5.94371C19.4377 5.17051 18.8295 4.56233 18.0563 4.28923C17.722 4.17115 17.3213 4.13918 16.5199 4.07522C16.201 4.04977 16.0415 4.03705 15.8879 4.00672C15.5358 3.93721 15.201 3.79854 14.9029 3.59874C14.7729 3.51158 14.6511 3.40781 14.4076 3.20027C13.7957 2.67883 13.4898 2.41811 13.1699 2.26522C12.43 1.91159 11.57 1.91159 10.8301 2.26522C10.5102 2.4181 10.2043 2.67883 9.5924 3.20027ZM15.8309 8.16959C16.1487 8.48742 16.1487 9.00273 15.8309 9.32056L9.32003 15.8314C9.0022 16.1493 8.48689 16.1493 8.16906 15.8314C7.85123 15.5136 7.85123 14.9983 8.16906 14.6805L14.6799 8.16959C14.9978 7.85176 15.5131 7.85176 15.8309 8.16959ZM15.798 14.7134C15.798 15.3127 15.3122 15.7985 14.7129 15.7985C14.1135 15.7985 13.6277 15.3127 13.6277 14.7134C13.6277 14.1141 14.1135 13.6282 14.7129 13.6282C15.3122 13.6282 15.798 14.1141 15.798 14.7134ZM9.28712 10.3728C9.88643 10.3728 10.3723 9.88696 10.3723 9.28765C10.3723 8.68834 9.88643 8.2025 9.28712 8.2025C8.68781 8.2025 8.20197 8.68834 8.20197 9.28765C8.20197 9.88696 8.68781 10.3728 9.28712 10.3728Z" fill="currentColor" />
    </symbol>

    <symbol id="document" width="100%" height="100%" viewBox="0 0 24 24">
      <path fill-rule="evenodd" clip-rule="evenodd" d="M4.17157 3.17157C3 4.34315 3 6.22876 3 10V14C3 17.7712 3 19.6569 4.17157 20.8284C5.34315 22 7.22876 22 11 22H13C16.7712 22 18.6569 22 19.8284 20.8284C21 19.6569 21 17.7712 21 14V10C21 6.22876 21 4.34315 19.8284 3.17157C18.6569 2 16.7712 2 13 2H11C7.22876 2 5.34315 2 4.17157 3.17157ZM8 9.25C7.58579 9.25 7.25 9.58579 7.25 10C7.25 10.4142 7.58579 10.75 8 10.75H16C16.4142 10.75 16.75 10.4142 16.75 10C16.75 9.58579 16.4142 9.25 16 9.25H8ZM8 13.25C7.58579 13.25 7.25 13.5858 7.25 14C7.25 14.4142 7.58579 14.75 8 14.75H13C13.4142 14.75 13.75 14.4142 13.75 14C13.75 13.5858 13.4142 13.25 13 13.25H8Z" fill="currentColor" />
    </symbol>

    <symbol id="archive" width="100%" height="100%" viewBox="0 0 24 24">
      <path fill-rule="evenodd" clip-rule="evenodd" d="M2.54497 8.73005C2 9.79961 2 11.1997 2 14C2 16.8003 2 18.2004 2.54497 19.27C3.02433 20.2108 3.78924 20.9757 4.73005 21.455C5.79961 22 7.19974 22 10 22H14C16.8003 22 18.2004 22 19.27 21.455C20.2108 20.9757 20.9757 20.2108 21.455 19.27C22 18.2004 22 16.8003 22 14C22 11.1997 22 9.79961 21.455 8.73005C20.9757 7.78924 20.2108 7.02433 19.27 6.54497C18.2004 6 16.8003 6 14 6H10C7.19974 6 5.79961 6 4.73005 6.54497C3.78924 7.02433 3.02433 7.78924 2.54497 8.73005ZM15.0595 12.4995C15.3353 12.1905 15.3085 11.7164 14.9995 11.4406C14.6905 11.1647 14.2164 11.1915 13.9406 11.5005L10.9286 14.8739L10.0595 13.9005C9.78359 13.5915 9.30947 13.5647 9.0005 13.8406C8.69152 14.1164 8.66468 14.5905 8.94055 14.8995L10.3691 16.4995C10.5114 16.6589 10.7149 16.75 10.9286 16.75C11.1422 16.75 11.3457 16.6589 11.488 16.4995L15.0595 12.4995Z" fill="currentColor" />
      <path d="M20.5348 3.46447C19.0704 2 16.7133 2 11.9993 2C7.28525 2 4.92823 2 3.46377 3.46447C2.70628 4.22195 2.3406 5.21824 2.16406 6.65598C2.69473 6.06532 3.33236 5.57328 4.04836 5.20846C4.82984 4.81027 5.66664 4.6488 6.59316 4.5731C7.48829 4.49997 8.58971 4.49998 9.93646 4.5H14.0621C15.4089 4.49998 16.5103 4.49997 17.4054 4.5731C18.332 4.6488 19.1688 4.81027 19.9502 5.20846C20.6662 5.57328 21.3039 6.06532 21.8345 6.65598C21.658 5.21824 21.2923 4.22195 20.5348 3.46447Z" fill="currentColor" />
    </symbol>

    <symbol id="diploma" width="100%" height="100%" viewBox="0 0 24 24">
      <path fill-rule="evenodd" clip-rule="evenodd" d="M2 12V8C2 5.17157 2 3.75736 2.87868 2.87868C3.75736 2 5.17157 2 8 2H16C18.8284 2 20.2426 2 21.1213 2.87868C22 3.75736 22 5.17157 22 8V12C22 14.8284 22 16.2426 21.1213 17.1213C20.4749 17.7677 19.5388 17.9386 17.963 17.9838C17.9593 17.248 17.7037 16.5132 17.1961 15.9176C17.1674 15.8839 17.1501 15.842 17.1465 15.7979C17.0211 14.2264 15.7733 12.9785 14.2018 12.8531C14.1577 12.8496 14.1158 12.8322 14.0821 12.8035C12.8822 11.781 11.1174 11.781 9.91755 12.8035C9.88386 12.8322 9.84198 12.8496 9.79786 12.8531C8.22638 12.9785 6.9785 14.2264 6.85309 15.7979C6.84957 15.842 6.83222 15.8839 6.80352 15.9176C6.29595 16.5132 6.04033 17.248 6.03666 17.9838C4.4611 17.9386 3.52501 17.7677 2.87868 17.1213C2 16.2426 2 14.8284 2 12ZM8.25 6C8.25 5.58579 8.58579 5.25 9 5.25H15C15.4142 5.25 15.75 5.58579 15.75 6C15.75 6.41421 15.4142 6.75 15 6.75H9C8.58579 6.75 8.25 6.41421 8.25 6ZM7 8.75C6.58579 8.75 6.25 9.08579 6.25 9.5C6.25 9.91421 6.58579 10.25 7 10.25H17C17.4142 10.25 17.75 9.91421 17.75 9.5C17.75 9.08579 17.4142 8.75 17 8.75H7Z" fill="currentColor" />
      <path fill-rule="evenodd" clip-rule="evenodd" d="M13.1092 13.9452C12.4699 13.4004 11.5297 13.4004 10.8905 13.9452C10.6165 14.1786 10.276 14.3197 9.91719 14.3483C9.07997 14.4152 8.41515 15.08 8.34834 15.9172C8.31971 16.276 8.17863 16.6165 7.94519 16.8905C7.40043 17.5297 7.40043 18.4699 7.94519 19.1092C8.17863 19.3831 8.31971 19.7237 8.34834 20.0824C8.41515 20.9197 9.07997 21.5845 9.91719 21.6513C10.276 21.6799 10.6165 21.821 10.8905 22.0544C11.5297 22.5992 12.4699 22.5992 13.1092 22.0544C13.3831 21.821 13.7237 21.6799 14.0824 21.6513C14.9197 21.5845 15.5845 20.9197 15.6513 20.0824C15.6799 19.7237 15.821 19.3831 16.0544 19.1092C16.5992 18.4699 16.5992 17.5297 16.0544 16.8905C15.821 16.6165 15.6799 16.276 15.6513 15.9172C15.5845 15.08 14.9197 14.4152 14.0824 14.3483C13.7237 14.3197 13.3831 14.1786 13.1092 13.9452ZM14.0117 17.5483C14.3146 17.2657 14.3309 16.7911 14.0483 16.4883C13.7657 16.1855 13.2911 16.1691 12.9883 16.4517L11.3571 17.9741L11.0117 17.6517C10.7089 17.3691 10.2343 17.3855 9.95171 17.6883C9.66909 17.9911 9.68545 18.4657 9.98826 18.7483L10.8454 19.5483C11.1336 19.8172 11.5807 19.8172 11.8689 19.5483L14.0117 17.5483Z" fill="currentColor" />
    </symbol>

    <symbol id="leaf" width="100%" height="100%" viewBox="0 0 24 24">
      <path d="M11.25 2.08252C11.0066 2.13678 10.7675 2.21776 10.5371 2.32548C6.55332 4.18752 4 9.39446 4 13.8566C4 18.0966 7.18341 21.5797 11.25 21.9646V2.08252Z" fill="currentColor" />
      <path d="M12.75 21.9646C16.8166 21.5797 20 18.0966 20 13.8566C20 13.4506 19.9789 13.0384 19.9374 12.6232L12.75 19.8106V21.9646Z" fill="currentColor" />
      <path d="M18.2597 7.17958C17.8707 6.45476 17.4222 5.76809 16.92 5.14062L12.75 9.31059V12.6893L18.2597 7.17958Z" fill="currentColor" />
      <path d="M15.9084 4.03082C15.1732 3.32559 14.3538 2.74189 13.4629 2.32548C13.2325 2.21776 12.9934 2.13678 12.75 2.08252V7.18927L15.9084 4.03082Z" fill="currentColor" />
      <path d="M18.9364 8.62415L12.75 14.8106V17.6893L19.5 10.9393L19.6319 10.8073C19.458 10.0697 19.2246 9.33627 18.9364 8.62415Z" fill="currentColor" />
    </symbol>

    <symbol id="yandex" width="100%" height="100%" viewBox="0 0 16 16">
      <path d="M13.6356 16H10.8506V2.16393H9.60719C7.32786 2.16393 6.13075 3.31476 6.13075 5.01868C6.13075 6.95233 6.95985 7.85057 8.66323 9.0014L10.0677 9.94536L6.01589 16H3L6.63758 10.5899C4.54224 9.0934 3.368 7.64316 3.368 5.17982C3.368 2.09479 5.50907 0 9.58433 0H13.6362V16H13.6356Z" fill="currentColor" />
    </symbol>

    <symbol id="google" width="100%" height="100%" viewBox="0 0 16 16">
      <path d="M8.32782 9.50987V7.32404H15.8879C15.9619 7.70499 16 8.15563 16 8.64344C16 10.2834 15.5399 12.3113 14.0569 13.7561C12.6145 15.2195 10.7716 16 8.3302 16C3.8051 16 0 12.4088 0 8C0 3.59117 3.8051 0 8.3302 0C10.8336 0 12.6169 0.957027 13.9568 2.20441L12.3737 3.74681C11.4129 2.86876 10.1112 2.18583 8.32782 2.18583C5.02339 2.18583 2.43898 4.78049 2.43898 8C2.43898 11.2195 5.02339 13.8142 8.32782 13.8142C10.4712 13.8142 11.6918 12.9756 12.4738 12.2137C13.108 11.5958 13.5253 10.7131 13.6898 9.50755L8.32782 9.50987Z" fill="currentColor" />
    </symbol>

    <symbol id="2gis" width="100%" height="100%" viewBox="0 0 16 16">
      <path d="M11.8796 9.52084C8.99113 9.535 8.52388 11.275 8.36816 12.7463L8.29737 13.397H7.71679L7.64601 12.7463C7.49028 11.275 7.00887 9.53499 4.21946 9.52084C3.75221 8.55881 3.55398 7.78074 3.55398 6.90365C3.55398 4.71094 5.35223 2.65959 8.01413 2.65959C10.6761 2.65959 12.446 4.69671 12.446 6.91786C12.446 7.78074 12.3611 8.55881 11.8796 9.52084ZM7.98586 0C3.5965 0 0 3.59331 0 7.99289C0 12.4067 3.5965 16 7.98586 16C12.4177 16 16 12.4067 16 7.99289C16 3.59332 12.4177 0 7.98586 0Z" fill="currentColor" />
    </symbol>

    <symbol id="trash" width="100%" height="100%" viewBox="0 0 32 32">
      <path d="M27.3387 8H4.67188" fill="transparent" stroke="currentColor" stroke-width="2" stroke-linecap="round" />
      <path d="M25.1168 11.3335L24.5035 20.5323C24.2675 24.0722 24.1495 25.8421 22.9962 26.9211C21.8428 28.0002 20.069 28.0002 16.5212 28.0002H15.4901C11.9423 28.0002 10.1685 28.0002 9.01512 26.9211C7.86177 25.8421 7.74378 24.0722 7.50779 20.5323L6.89453 11.3335" fill="transparent" stroke="currentColor" stroke-width="2" stroke-linecap="round" />
      <path d="M12.6719 14.6665L13.3385 21.3332" fill="transparent" stroke="currentColor" stroke-width="2" stroke-linecap="round" />
      <path d="M19.3385 14.6665L18.6719 21.3332" fill="transparent" stroke="currentColor" stroke-width="2" stroke-linecap="round" />
      <path d="M8.67188 8C8.74638 8 8.78363 8 8.81741 7.99914C9.91533 7.97132 10.8839 7.27321 11.2575 6.24043C11.269 6.20866 11.2808 6.17332 11.3043 6.10263L11.4338 5.71429C11.5443 5.38277 11.5995 5.21701 11.6728 5.07627C11.9652 4.51476 12.5062 4.12485 13.1314 4.02502C13.288 4 13.4628 4 13.8122 4H18.1982C18.5476 4 18.7224 4 18.8791 4.02502C19.5042 4.12485 20.0452 4.51476 20.3376 5.07627C20.4109 5.21701 20.4661 5.38277 20.5766 5.71429L20.7061 6.10263C20.7296 6.17322 20.7414 6.20868 20.7529 6.24043C21.1265 7.27321 22.0951 7.97132 23.193 7.99914C23.2268 8 23.264 8 23.3385 8" fill="transparent" stroke="currentColor" stroke-width="2" />
    </symbol>

    <symbol id="settings" width="100%" height="100%" viewBox="0 0 24 24">
      <path fill-rule="evenodd" clip-rule="evenodd" d="M13.7855 3.80503C13.3307 1.93153 10.6662 1.93153 10.2114 3.80503C9.91756 5.01529 8.53098 5.58964 7.46744 4.94161C5.82105 3.93845 3.93699 5.82252 4.94014 7.4689C5.58817 8.53244 5.01383 9.91902 3.80357 10.2128C1.93006 10.6677 1.93006 13.3321 3.80357 13.787C5.01383 14.0808 5.58817 15.4674 4.94014 16.5309C3.93699 18.1773 5.82106 20.0614 7.46744 19.0582C8.53098 18.4102 9.91756 18.9845 10.2114 20.1948C10.6662 22.0683 13.3307 22.0683 13.7855 20.1948C14.0793 18.9845 15.4659 18.4102 16.5294 19.0582C18.1758 20.0614 20.0599 18.1773 19.0567 16.5309C18.4087 15.4674 18.983 14.0808 20.1933 13.787C22.0668 13.3321 22.0668 10.6677 20.1933 10.2128C18.983 9.91902 18.4087 8.53244 19.0567 7.4689C20.0599 5.82252 18.1758 3.93845 16.5294 4.94161C15.4659 5.58964 14.0793 5.01529 13.7855 3.80503ZM11.9984 15.5999C13.9867 15.5999 15.5984 13.9881 15.5984 11.9999C15.5984 10.0117 13.9867 8.3999 11.9984 8.3999C10.0102 8.3999 8.39844 10.0117 8.39844 11.9999C8.39844 13.9881 10.0102 15.5999 11.9984 15.5999Z" fill="currentColor" />
    </symbol>

    <symbol id="lock-open" width="100%" height="100%" viewBox="0 0 24 24">
      <path d="M12.0016 2.3999C8.68785 2.3999 6.00156 5.08619 6.00156 8.3999V10.7999C4.67608 10.7999 3.60156 11.8744 3.60156 13.1999V19.1999C3.60156 20.5254 4.67608 21.5999 6.00156 21.5999H18.0016C19.327 21.5999 20.4016 20.5254 20.4016 19.1999V13.1999C20.4016 11.8744 19.327 10.7999 18.0016 10.7999H8.40156V8.3999C8.40156 6.41168 10.0133 4.7999 12.0016 4.7999C13.6774 4.7999 15.0885 5.94605 15.4882 7.49901C15.6534 8.14084 16.3076 8.52722 16.9495 8.36203C17.5913 8.19683 17.9777 7.54262 17.8125 6.90079C17.1465 4.31321 14.799 2.3999 12.0016 2.3999Z" fill="currentColor" />
    </symbol>

    <symbol id="exit" width="100%" height="100%" viewBox="0 0 24 24">
      <path opacity="0.6" d="M15 2H14C11.1716 2 9.75736 2 8.87868 2.87868C8 3.75736 8 5.17157 8 8V16C8 18.8284 8 20.2426 8.87868 21.1213C9.75736 22 11.1716 22 14 22H15C17.8284 22 19.2426 22 20.1213 21.1213C21 20.2426 21 18.8284 21 16V8C21 5.17157 21 3.75736 20.1213 2.87868C19.2426 2 17.8284 2 15 2Z" fill="currentColor" />
      <path opacity="0.4" d="M8 8C8 6.46249 8 5.34287 8.14114 4.5H8C5.64298 4.5 4.46447 4.5 3.73223 5.23223C3 5.96447 3 7.14298 3 9.5V14.5C3 16.857 3 18.0355 3.73223 18.7678C4.46447 19.5 5.64298 19.5 8 19.5H8.14114C8 18.6571 8 17.5375 8 16V12.75V11.25V8Z" fill="currentColor" />
      <path fill-rule="evenodd" clip-rule="evenodd" d="M4.46967 11.4697C4.17678 11.7626 4.17678 12.2374 4.46967 12.5303L6.46967 14.5303C6.76256 14.8232 7.23744 14.8232 7.53033 14.5303C7.82322 14.2374 7.82322 13.7626 7.53033 13.4697L6.81066 12.75L14 12.75C14.4142 12.75 14.75 12.4142 14.75 12C14.75 11.5858 14.4142 11.25 14 11.25L6.81066 11.25L7.53033 10.5303C7.82322 10.2374 7.82322 9.76256 7.53033 9.46967C7.23744 9.17678 6.76256 9.17678 6.46967 9.46967L4.46967 11.4697Z" fill="currentColor" />
    </symbol>

    <symbol id="hourglass" width="100%" height="100%" viewBox="0 0 24 24">
      <path d="M21 24H3V21C3.0598 19.2706 3.4868 17.5738 4.25265 16.0221C5.0185 14.4704 6.10567 13.0993 7.442 12C6.10567 10.9007 5.0185 9.52964 4.25265 7.97794C3.4868 6.42624 3.0598 4.72937 3 3C3 2.20435 3.31607 1.44129 3.87868 0.87868C4.44129 0.31607 5.20435 0 6 0L18 0C18.7956 0 19.5587 0.31607 20.1213 0.87868C20.6839 1.44129 21 2.20435 21 3C20.941 4.72779 20.516 6.4234 19.7532 7.97482C18.9905 9.52624 17.9072 10.8982 16.575 12C17.9072 13.1018 18.9905 14.4738 19.7532 16.0252C20.516 17.5766 20.941 19.2722 21 21V24ZM5 22H19V21C19 17.226 16.5 14.448 14.408 12.783L13.424 12L14.408 11.217C16.5 9.552 19 6.774 19 3C19 2.73478 18.8946 2.48043 18.7071 2.29289C18.5196 2.10536 18.2652 2 18 2H6C5.73478 2 5.48043 2.10536 5.29289 2.29289C5.10536 2.48043 5 2.73478 5 3C5 6.774 7.508 9.551 9.612 11.216L10.6 12L9.609 12.784C7.508 14.449 5 17.226 5 21V22ZM12.018 15.982C12.7566 16.5608 13.4106 17.24 13.961 18H10.068L12.018 15.982ZM12.014 13.513C10.377 14.586 7.585 16.843 7.08 20H16.922C16.422 16.816 13.634 14.57 12.014 13.513Z" fill="currentColor" />
    </symbol>

    <symbol id="case" width="100%" height="100%" viewBox="0 0 24 24">
      <path d="M21 0H3C2.20435 0 1.44129 0.31607 0.87868 0.87868C0.31607 1.44129 0 2.20435 0 3L0 24H24V3C24 2.20435 23.6839 1.44129 23.1213 0.87868C22.5587 0.31607 21.7956 0 21 0V0ZM22 3V5H15V2H21C21.2652 2 21.5196 2.10536 21.7071 2.29289C21.8946 2.48043 22 2.73478 22 3ZM11 2H13V8H11V2ZM3 2H9V5H2V3C2 2.73478 2.10536 2.48043 2.29289 2.29289C2.48043 2.10536 2.73478 2 3 2ZM2 22V7H9V10H15V7H22V22H2ZM15 18H20V20H15V18Z" fill="currentColor" />
    </symbol>

    <symbol id="time" width="100%" height="100%" viewBox="0 0 24 24">
      <path d="M12 0C14.9541 0.00893639 17.8017 1.10454 20 3.078V0H22V5.143C21.9995 5.63535 21.8037 6.10737 21.4555 6.45551C21.1074 6.80365 20.6353 6.99947 20.143 7H15V5H19.121C17.4957 3.35357 15.3492 2.3226 13.0481 2.08323C10.7471 1.84386 8.43428 2.41095 6.50494 3.68762C4.57561 4.96428 3.14945 6.87128 2.47015 9.08278C1.79085 11.2943 1.90057 13.6731 2.78055 15.8126C3.66053 17.9522 5.25617 19.7199 7.29483 20.8135C9.33349 21.9072 11.6887 22.259 13.9579 21.8088C16.2272 21.3586 18.2697 20.1344 19.7365 18.3454C21.2033 16.5564 22.0034 14.3135 22 12H24C24 14.3734 23.2962 16.6935 21.9776 18.6668C20.6591 20.6402 18.7849 22.1783 16.5922 23.0866C14.3995 23.9948 11.9867 24.2324 9.65892 23.7694C7.33115 23.3064 5.19295 22.1635 3.51472 20.4853C1.83649 18.8071 0.693605 16.6689 0.230582 14.3411C-0.232441 12.0133 0.00519943 9.60051 0.913451 7.4078C1.8217 5.21509 3.35977 3.34094 5.33316 2.02236C7.30655 0.703788 9.62663 0 12 0V0Z" fill="currentColor" />
      <path d="M11 6.99951V12.4135L14.293 15.7065L15.707 14.2925L13 11.5855V6.99951H11Z" fill="currentColor" />
    </symbol>

    <symbol id="truck" width="100%" height="100%" viewBox="0 0 24 24">
      <path d="M19 4.99951H17V3.99951C17 3.20386 16.6839 2.4408 16.1213 1.87819C15.5587 1.31558 14.7956 0.999512 14 0.999512H3C2.20435 0.999512 1.44129 1.31558 0.87868 1.87819C0.31607 2.4408 0 3.20386 0 3.99951L0 18.9995H2.041C2.01527 19.165 2.00157 19.3321 2 19.4995C2 20.4278 2.36875 21.318 3.02513 21.9744C3.6815 22.6308 4.57174 22.9995 5.5 22.9995C6.42826 22.9995 7.3185 22.6308 7.97487 21.9744C8.63125 21.318 9 20.4278 9 19.4995C8.99843 19.3321 8.98473 19.165 8.959 18.9995H15.041C15.0153 19.165 15.0016 19.3321 15 19.4995C15 20.4278 15.3687 21.318 16.0251 21.9744C16.6815 22.6308 17.5717 22.9995 18.5 22.9995C19.4283 22.9995 20.3185 22.6308 20.9749 21.9744C21.6313 21.318 22 20.4278 22 19.4995C21.9984 19.3321 21.9847 19.165 21.959 18.9995H24V9.99951C23.9984 8.67392 23.4711 7.40307 22.5338 6.46573C21.5964 5.52839 20.3256 5.0011 19 4.99951ZM19 6.99951C19.7956 6.99951 20.5587 7.31558 21.1213 7.87819C21.6839 8.4408 22 9.20386 22 9.99951V10.9995H17V6.99951H19ZM7 19.4995C7 19.8973 6.84196 20.2789 6.56066 20.5602C6.27936 20.8415 5.89782 20.9995 5.5 20.9995C5.10218 20.9995 4.72064 20.8415 4.43934 20.5602C4.15804 20.2789 4 19.8973 4 19.4995C4.00061 19.3286 4.03212 19.1592 4.093 18.9995H6.907C6.96788 19.1592 6.99939 19.3286 7 19.4995ZM15 16.9995H2V3.99951C2 3.7343 2.10536 3.47994 2.29289 3.2924C2.48043 3.10487 2.73478 2.99951 3 2.99951H14C14.2652 2.99951 14.5196 3.10487 14.7071 3.2924C14.8946 3.47994 15 3.7343 15 3.99951V16.9995ZM20 19.4995C20 19.8973 19.842 20.2789 19.5607 20.5602C19.2794 20.8415 18.8978 20.9995 18.5 20.9995C18.1022 20.9995 17.7206 20.8415 17.4393 20.5602C17.158 20.2789 17 19.8973 17 19.4995C17.0004 19.3286 17.0319 19.1592 17.093 18.9995H19.907C19.9681 19.1592 19.9996 19.3286 20 19.4995ZM17 16.9995V12.9995H22V16.9995H17Z" fill="currentColor" />
    </symbol>

    <symbol id="location" width="100%" height="100%" viewBox="0 0 24 24">
      <path d="M11.9989 0.00683594C10.0203 0.00705927 8.0863 0.594205 6.44156 1.69397C4.79682 2.79374 3.51528 4.35669 2.75912 6.18505C2.00296 8.0134 1.80617 10.025 2.19364 11.9652C2.58112 13.9055 3.53546 15.6871 4.93588 17.0848L9.96088 21.9998H4.99888V23.9998H18.9989V21.9998H14.0369L19.0699 17.0768C20.468 15.6782 21.4201 13.8965 21.8058 11.9569C22.1914 10.0173 21.9933 8.00686 21.2365 6.17982C20.4796 4.35278 19.1981 2.79117 17.5538 1.6924C15.9096 0.593636 13.9765 0.00706047 11.9989 0.00683594ZM17.6639 15.6548L11.9989 21.1998L6.34188 15.6628C5.22344 14.5443 4.46167 13.1194 4.15284 11.5681C3.84402 10.0168 4.00199 8.40872 4.60681 6.94717C5.21162 5.48562 6.23612 4.23616 7.55084 3.3567C8.86556 2.47724 10.4115 2.00725 11.9932 2.00613C13.575 2.00502 15.1216 2.47282 16.4375 3.35042C17.7535 4.22802 18.7798 5.47603 19.3866 6.93673C19.9935 8.39742 20.1538 10.0052 19.8471 11.557C19.5405 13.1087 18.7807 14.5347 17.6639 15.6548ZM6.99888 6.38183V12.6178L11.9989 15.1178L16.9989 12.6178V6.38183L11.9989 3.88183L6.99888 6.38183ZM14.9989 11.3818L11.9989 12.8818L8.99888 11.3818V7.61783L9.11688 7.55883L11.9989 8.99983L14.8809 7.55883L14.9989 7.61783V11.3818Z" fill="currentColor" />
    </symbol>

    <symbol id="check" width="100%" height="100%" viewBox="0 0 24 24">
      <path d="M24 24H0V3C0 2.20435 0.31607 1.44129 0.87868 0.87868C1.44129 0.31607 2.20435 0 3 0L21 0C21.7956 0 22.5587 0.31607 23.1213 0.87868C23.6839 1.44129 24 2.20435 24 3V24ZM2 22H22V3C22 2.73478 21.8946 2.48043 21.7071 2.29289C21.5196 2.10536 21.2652 2 21 2H3C2.73478 2 2.48043 2.10536 2.29289 2.29289C2.10536 2.48043 2 2.73478 2 3V22Z" fill="currentColor" />
      <path d="M9.33297 17.9189C9.07022 17.9197 8.80994 17.8683 8.56721 17.7677C8.32449 17.6671 8.10415 17.5193 7.91897 17.3329L3.29297 12.707L4.70697 11.293L9.33297 15.9189L19.293 5.95996L20.707 7.37396L10.748 17.3329C10.5626 17.5194 10.3421 17.6672 10.0992 17.7678C9.8563 17.8683 9.59586 17.9197 9.33297 17.9189Z" fill="currentColor" />
    </symbol>

    <symbol id="card" width="100%" height="100%" viewBox="0 0 24 24">
      <path d="M5.5 17C6.32843 17 7 16.3284 7 15.5C7 14.6716 6.32843 14 5.5 14C4.67157 14 4 14.6716 4 15.5C4 16.3284 4.67157 17 5.5 17Z" fill="currentColor" />
      <path d="M21 3H3C2.20435 3 1.44129 3.31607 0.87868 3.87868C0.31607 4.44129 0 5.20435 0 6L0 21H24V6C24 5.20435 23.6839 4.44129 23.1213 3.87868C22.5587 3.31607 21.7956 3 21 3ZM3 5H21C21.2652 5 21.5196 5.10536 21.7071 5.29289C21.8946 5.48043 22 5.73478 22 6V8H2V6C2 5.73478 2.10536 5.48043 2.29289 5.29289C2.48043 5.10536 2.73478 5 3 5ZM2 19V10H22V19H2Z" fill="currentColor" />
    </symbol>

    <symbol id="winter-hat" width="100%" height="100%" viewBox="0 0 30 31">
      <path fill-rule="evenodd" clip-rule="evenodd" d="M27.5 20.5V23H27H24H21H18H15H12H9H6H3H2.5V20.5C2.5 18.975 2.775 17.365 3.275 15.785L3.29 15.79L5.5 18L7.5 16L9.5 18L11.5 16L13.5 18L15.5 16L17.5 18L19.5 16L21.5 18L23.5 16L25.5 18L26.92 16.58L26.955 16.57C27.31 17.895 27.5 19.225 27.5 20.5ZM17.5 3.5C17.5 4.16 17.24 4.755 16.82 5.2C16.075 5.01 15 5 15 5C14.32 5 13.655 5.085 13.005 5.24C13.005 5.24 12.5 4.895 12.5 3.5C12.5 2.105 13.62 1 15 1C16.38 1 17.5 2.12 17.5 3.5Z" fill="#CCEEFF" />
      <path fill-rule="evenodd" clip-rule="evenodd" d="M26.9551 16.57L26.9201 16.58L25.5001 18L23.5001 16L21.5001 18L19.5001 16L17.5001 18L15.5001 16L13.5001 18L11.5001 16L9.50009 18L7.50009 16L5.50009 18L3.29009 15.79L3.27509 15.785C4.81509 10.92 8.51009 6.325 13.0051 5.24C13.6551 5.085 14.3201 5 15.0001 5C15.0001 5 16.0751 5.01 16.8201 5.2C21.6601 6.235 25.5751 11.345 26.9551 16.57Z" fill="#FF5959" />
      <path fill-rule="evenodd" clip-rule="evenodd" d="M29.5 24V29C29.5 29.55 29.05 30 28.5 30H1.5C0.95 30 0.5 29.55 0.5 29V24C0.5 23.45 0.95 23 1.5 23H28.5C29.05 23 29.5 23.45 29.5 24Z" fill="#CCEEFF" />
      <path d="M3.289 15.789L5.5 18L7.5 16L9.5 18L11.5 16L13.5 18L15.5 16L17.5 18L19.5 16L21.5 18L23.5 16L25 17.5M6 25V30M3 25V30M12 25V30M9 25V30M27 25V30M24 25V30M21 25V30M18 25V30M15 25V30M27.5 23V20.5C27.5 14.197 22.887 6.4975 16.8215 5.2025C17.239 4.7555 17.5 4.16 17.5 3.5C17.5 2.1195 16.381 1 15 1C13.6195 1 12.5 2.1195 12.5 3.5M4.5 23H28.5C29.052 23 29.5 23.4475 29.5 24V29C29.5 29.552 29.052 30 28.5 30H1.5C0.9475 30 0.5 29.552 0.5 29V24C0.5 23.4475 0.9475 23 1.5 23H2.5V20.5C2.5 13.5965 8.0965 5 15 5" fill="transparent" stroke="#12131A" stroke-linecap="round" stroke-linejoin="round" />
    </symbol>

    <symbol id="crystal-ball" width="100%" height="100%" viewBox="0 0 30 31">
      <path fill-rule="evenodd" clip-rule="evenodd" d="M21.5937 15.9687H20.1875V17.914V17.9328C20.6375 17.8765 21.1063 17.8437 21.5938 17.8437C22.0016 17.8437 22.4844 17.8765 23 17.9421V17.9234V17.9422C24.4578 18.1203 26.1781 18.5563 27.2188 19.25L27.2563 19.2641C27.8375 17.8109 28.1562 16.2219 28.1562 14.5625C28.1562 7.57344 22.4891 1.90625 15.5 1.90625C8.51094 1.90625 2.84375 7.57344 2.84375 14.5625C2.84375 16.7797 3.41562 18.8656 4.41875 20.675L4.44688 20.6563C4.44688 20.6563 5.47344 20.0328 7.0625 19.5031C8.22969 19.1188 9.69219 18.7813 11.2812 18.7813V11.75L11.0469 11.5156L15.5 7.0625L20.4219 11.9844L20.1875 12.2188L21.5937 15.9687ZM23 16.9461V17.9234V17.9234V16.9461Z" fill="#CCEEFF" />
      <path fill-rule="evenodd" clip-rule="evenodd" d="M16.9062 14.0938V18.7812C16.2312 19.0531 15.7109 19.325 15.3922 19.5031C14.975 19.3578 14.5156 19.2219 14.0187 19.1047L14.0937 18.7812V14.0938H16.9062Z" fill="white" />
      <path fill-rule="evenodd" clip-rule="evenodd" d="M20.2814 26.2812L22.0626 29.0938H8.93762L10.7095 26.2812H10.7189H20.1876H20.2814Z" fill="#FF5959" />
      <path fill-rule="evenodd" clip-rule="evenodd" d="M7.0625 13.1562L8.46875 16.9062H7.0625H5.65625L7.0625 13.1562ZM20.1875 12.2188L21.5938 15.9688H20.1875H18.7812L20.1875 12.2188ZM23 12.2188L24.4062 15.9688H23H21.5938L23 12.2188Z" fill="#29CC5F" />
      <path fill-rule="evenodd" clip-rule="evenodd" d="M15.3922 19.5031C15.7109 19.325 16.2313 19.0531 16.9063 18.7812C17.7734 18.4344 18.8984 18.0875 20.1875 17.9328C20.6375 17.8766 21.1063 17.8438 21.5938 17.8438C22.0016 17.8438 22.4844 17.8766 23 17.9422C24.4578 18.1203 26.1781 18.5562 27.2188 19.25L27.2563 19.2641C25.9813 22.4422 23.45 24.9875 20.2813 26.2812H20.1875H10.7188C8.03282 25.1844 5.81095 23.1922 4.41876 20.675L4.44689 20.6562C4.44689 20.6562 5.47345 20.0328 7.06251 19.5031C8.2297 19.1188 9.6922 18.7812 11.2813 18.7812C12.2703 18.7812 13.1938 18.9125 14.0188 19.1047C14.5156 19.2219 14.975 19.3578 15.3922 19.5031Z" fill="white" />
      <path fill-rule="evenodd" clip-rule="evenodd" d="M20.4219 11.9844L20.1875 12.2188L18.7812 15.9688H20.1875V17.9141V17.9328C18.8984 18.0875 17.7734 18.4344 16.9062 18.7812V14.0938H14.0938V18.7812L14.0188 19.1047C13.1938 18.9125 12.2703 18.7812 11.2812 18.7812V11.75L11.0469 11.5156L15.5 7.0625L20.4219 11.9844Z" fill="#FF5959" />
      <path d="M16.9062 16.9062V14.0938H14.0938V17.375M19.25 10.8125L15.5 7.0625L9.875 12.6875M20.7341 13.625L20.1875 12.2188L18.7812 15.9688H20.1875V17.9122M25.6114 18.5516C24.5347 18.1705 23.1641 17.8438 21.5938 17.8438C18.6364 17.8438 16.2617 19.0095 15.3898 19.5027M17.8438 20.6562C17.8438 20.6562 15.0312 18.7812 11.2812 18.7812C7.53125 18.7812 4.44734 20.6562 4.44734 20.6562M11.2812 16.9062V11.75V16.9062ZM23 17.922V15.9688V17.922ZM21.5938 15.9688H24.4062L23 12.2188L21.5938 15.9688ZM7.0625 19.5041V16.9062V19.5041ZM5.65625 16.9062H8.46875L7.0625 13.1562L5.65625 16.9062ZM10.7178 26.2812C6.09922 24.3945 2.84375 19.8598 2.84375 14.5625C2.84375 7.5725 8.50953 1.90625 15.5 1.90625C22.49 1.90625 28.1562 7.5725 28.1562 14.5625C28.1562 19.8598 24.9003 24.3945 20.2817 26.2812L22.0625 29.0938H8.9375L10.7098 26.2812H18.3125H10.7178Z" fill="transparent" stroke="#12131A" stroke-linecap="round" stroke-linejoin="round" />
    </symbol>

    <symbol id="christmas-gift" width="100%" height="100%" viewBox="0 0 30 31">
      <path fill-rule="evenodd" clip-rule="evenodd" d="M5.85938 7.53125H2.34375C1.82812 7.53125 1.40625 7.95312 1.40625 8.46875V14.0938C1.40625 14.6094 1.82812 15.0312 2.34375 15.0312H3.28125H12.6562V7.53125H12.4219L5.85938 7.53125V7.53125ZM12.6562 15.0312V29.0938H5.15625C4.12031 29.0938 3.28125 28.2547 3.28125 27.2188V15.0312H12.6562ZM17.8125 7.53125H20.625H27.6562C28.1719 7.53125 28.5938 7.95312 28.5938 8.46875V14.0938C28.5938 14.6094 28.1719 15.0312 27.6562 15.0312H26.7188H17.3438V7.53125H17.8125ZM26.7188 15.0312V27.2188C26.7188 28.2547 25.8797 29.0938 24.8438 29.0938H17.3438V15.0312H26.7188Z" fill="#CCEEFF" />
      <path fill-rule="evenodd" clip-rule="evenodd" d="M12.6562 29.0938H17.3438V7.53125H12.6562V29.0938Z" fill="#FF5959" />
      <path d="M6.5625 4.71875C6.5625 6.27172 7.82203 7.53125 9.375 7.53125M20.625 7.53125C22.178 7.53125 23.4375 6.27172 23.4375 4.71875M26.7188 16.9062V27.2188C26.7188 28.2542 25.8792 29.0938 24.8438 29.0938H5.15625C4.12078 29.0938 3.28125 28.2542 3.28125 27.2188V16.9062M21.5625 27.2188L20.8589 26L21.5625 27.2188ZM21.5625 27.2188L22.2656 26.0005L21.5625 27.2188ZM20.1562 27.2188H22.9688H20.1562ZM3.93844 11.5156L6.375 10.1094L3.93844 11.5156ZM3.93844 10.1094L6.37453 11.5156L3.93844 10.1094ZM5.15625 9.40625V12.2188V9.40625ZM22.5 13.1562L21.7964 11.9375L22.5 13.1562ZM22.5 13.1562L23.2031 11.938L22.5 13.1562ZM21.0938 13.1562H23.9062H21.0938ZM5.15625 20.1875L6.375 19.4844L5.15625 20.1875ZM5.15625 20.1875L6.37453 20.8906L5.15625 20.1875ZM5.15625 18.7812V21.5938V18.7812ZM8.62594 25.5781L11.0625 24.1719L8.62594 25.5781ZM8.62594 24.1719L11.062 25.5781L8.62594 24.1719ZM9.84375 23.4688V26.2812V23.4688ZM21.7509 21.8281L24.1875 20.4219L21.7509 21.8281ZM21.7509 20.4219L24.187 21.8281L21.7509 20.4219ZM22.9688 19.7188V22.5312V19.7188ZM15 4.71875C15 3.16578 13.7405 1.90625 12.1875 1.90625C10.6345 1.90625 9.375 3.16578 9.375 4.71875C9.375 6.27172 10.6345 7.53125 12.1875 7.53125C13.7405 7.53125 15 6.27172 15 4.71875ZM20.625 4.71875C20.625 3.16578 19.3655 1.90625 17.8125 1.90625C16.2595 1.90625 15 3.16578 15 4.71875C15 6.27172 16.2595 7.53125 17.8125 7.53125C19.3655 7.53125 20.625 6.27172 20.625 4.71875ZM17.3438 9.40625V15.0312V9.40625ZM12.6562 9.40625V15.0312V9.40625ZM17.3438 16.9062V29.0938V16.9062ZM12.6562 16.9062V29.0938V16.9062ZM28.5938 8.46875C28.5938 7.95125 28.1737 7.53125 27.6562 7.53125H2.34375C1.82625 7.53125 1.40625 7.95125 1.40625 8.46875V14.0938C1.40625 14.6112 1.82625 15.0312 2.34375 15.0312H27.6562C28.1737 15.0312 28.5938 14.6112 28.5938 14.0938V8.46875Z" fill="transparent" stroke="#12131A" stroke-linecap="round" stroke-linejoin="round" />
    </symbol>

  </defs>
</svg>