<?xml version="1.0"?>
<svg xmlns="http://www.w3.org/2000/svg" xmlns:xlink="http://www.w3.org/1999/xlink" version="1.1" xml:space="preserve">
  <defs>

    <symbol id="preloader" width="100%" height="100%" viewBox="0 0 24 24">
      <path d="M12.5621 5.61427C14.1125 5.61427 15.3694 4.35747 15.3694 2.80713C15.3694 1.2568 14.1125 0 12.5621 0C11.0117 0 9.75488 1.2568 9.75488 2.80713C9.75488 4.35747 11.0117 5.61427 12.5621 5.61427Z" fill="currentColor" />
      <path d="M12.5621 24C13.4922 24 14.2463 23.246 14.2463 22.3159C14.2463 21.3858 13.4922 20.6318 12.5621 20.6318C11.632 20.6318 10.8779 21.3858 10.8779 22.3159C10.8779 23.246 11.632 24 12.5621 24Z" fill="currentColor" />
      <path d="M5.66439 8.19005C7.05985 8.19005 8.19109 7.05885 8.19109 5.66344C8.19109 4.26804 7.05985 3.13684 5.66439 3.13684C4.26894 3.13684 3.1377 4.26804 3.1377 5.66344C3.1377 7.05885 4.26894 8.19005 5.66439 8.19005Z" fill="currentColor" />
      <path d="M19.4603 20.8613C20.2355 20.8613 20.8639 20.2329 20.8639 19.4578C20.8639 18.6826 20.2355 18.0542 19.4603 18.0542C18.6851 18.0542 18.0566 18.6826 18.0566 19.4578C18.0566 20.2329 18.6851 20.8613 19.4603 20.8613Z" fill="currentColor" />
      <path d="M2.80677 14.8072C4.04679 14.8072 5.05202 13.802 5.05202 12.562C5.05202 11.322 4.04679 10.3168 2.80677 10.3168C1.56675 10.3168 0.561523 11.322 0.561523 12.562C0.561523 13.802 1.56675 14.8072 2.80677 14.8072Z" fill="currentColor" />
      <path d="M22.3165 13.6832C22.9363 13.6832 23.4387 13.1808 23.4387 12.5611C23.4387 11.9414 22.9363 11.439 22.3165 11.439C21.6967 11.439 21.1943 11.9414 21.1943 12.5611C21.1943 13.1808 21.6967 13.6832 22.3165 13.6832Z" fill="currentColor" />
      <path d="M4.2751 18.0706C3.50726 18.8384 3.50726 20.0808 4.2751 20.8486C5.04204 21.6164 6.28626 21.6164 7.0532 20.8486C7.82105 20.0808 7.82105 18.8384 7.0532 18.0706C6.28626 17.3019 5.04295 17.2946 4.2751 18.0706Z" fill="currentColor" />
      <path d="M19.4588 6.50503C19.9236 6.50503 20.3004 6.12823 20.3004 5.66343C20.3004 5.19863 19.9236 4.82184 19.4588 4.82184C18.994 4.82184 18.6172 5.19863 18.6172 5.66343C18.6172 6.12823 18.994 6.50503 19.4588 6.50503Z" fill="currentColor" />
    </symbol>

    <symbol id="loader" width="100%" height="100%" viewBox="22 22 44 44">
      <circle cx="44" cy="44" r="20.2" fill="transparent" stroke="currentColor" stroke-width="4"></circle>
    </symbol>

    <symbol id="search" width="100%" height="100%" viewBox="0 0 25 24">
      <circle cx="11.8334" cy="11.5" r="9.5" fill="transparent" stroke="currentColor" stroke-width="1.5" />
      <path d="M20.3334 20L22.3334 22" fill="transparent" stroke="currentColor" stroke-width="1.5" stroke-linecap="round" />
    </symbol>

    <symbol id="burger" width="100%" height="100%" viewBox="0 0 24 24">
      <path fill-rule="evenodd" clip-rule="evenodd" d="M20.75 7C20.75 7.41421 20.4142 7.75 20 7.75L4 7.75C3.58579 7.75 3.25 7.41421 3.25 7C3.25 6.58579 3.58579 6.25 4 6.25L20 6.25C20.4142 6.25 20.75 6.58579 20.75 7Z" fill="currentColor" stroke="currentColor" />
      <path fill-rule="evenodd" clip-rule="evenodd" d="M20.75 12C20.75 12.4142 20.4142 12.75 20 12.75L4 12.75C3.58579 12.75 3.25 12.4142 3.25 12C3.25 11.5858 3.58579 11.25 4 11.25L20 11.25C20.4142 11.25 20.75 11.5858 20.75 12Z" fill="currentColor" stroke="currentColor" />
      <path fill-rule="evenodd" clip-rule="evenodd" d="M20.75 17C20.75 17.4142 20.4142 17.75 20 17.75L4 17.75C3.58579 17.75 3.25 17.4142 3.25 17C3.25 16.5858 3.58579 16.25 4 16.25L20 16.25C20.4142 16.25 20.75 16.5858 20.75 17Z" fill="currentColor" stroke="currentColor" />
    </symbol>

    <symbol id="close" width="100%" height="100%" viewBox="0 0 24 24">
      <path d="M18 6L6 18M6 6L18 18" fill="currentColor" stroke="currentColor" stroke-width="1.5" stroke-linecap="round" stroke-linejoin="round" />
    </symbol>

    <symbol id="user-fade" width="100%" height="100%" viewBox="0 0 30 31">
      <circle cx="15" cy="8" r="5" fill="transparent" stroke="currentColor" stroke-width="2" />
      <path d="M25 22.375C25 25.4816 25 28 15 28C5 28 5 25.4816 5 22.375C5 19.2684 9.47715 16.75 15 16.75C20.5228 16.75 25 19.2684 25 22.375Z" fill="transparent" stroke="currentColor" stroke-width="2" />
    </symbol>

    <symbol id="basket" width="100%" height="100%" viewBox="0 0 24 24">
      <path d="M2.55657 2.07026C2.0589 2.24468 1.84063 2.88169 2.12875 3.35186C2.30337 3.64762 2.43434 3.68554 3.39475 3.73862L4.21547 3.77654L6.14503 9.88123C7.20148 13.2407 8.11824 16.0618 8.17936 16.1528C8.38017 16.4713 8.99135 16.8504 9.45409 16.9339C9.75968 16.9945 11.4797 17.0097 14.9634 16.9945C19.7043 16.9718 20.0448 16.9642 20.333 16.8277C20.7171 16.6533 21.1799 16.2741 21.337 16.0163C21.4069 15.9101 22.0268 14.1659 22.734 12.1411C23.6071 9.59306 24 8.35696 24 8.09912C24 7.62894 23.7381 7.1436 23.319 6.84784C22.6729 6.38525 22.865 6.39284 14.6491 6.39284H7.15783L6.98321 5.87716C6.88717 5.59657 6.65143 4.87614 6.45061 4.26946C6.25853 3.66279 6.04899 3.07886 5.9966 2.96511C5.86564 2.66177 5.21081 2.16884 4.82664 2.07784C4.42501 1.97926 2.8185 1.97167 2.55657 2.07026Z" fill="currentColor" />
      <path d="M9.88287 18.4128C9.08577 18.5613 8.53092 19.1943 8.48403 20.0227C8.43714 20.6791 8.60907 21.1245 9.05451 21.5153C9.64061 22.031 10.3283 22.1326 11.0082 21.8122C11.4771 21.5934 11.6881 21.3746 11.8991 20.9057C12.1882 20.2649 12.0788 19.5381 11.6177 19.0224C11.1332 18.491 10.5628 18.2878 9.88287 18.4128Z" fill="currentColor" />
      <path d="M18.1427 18.413C17.1268 18.6084 16.4391 19.8822 16.8376 20.8512C17.1112 21.4999 17.8536 22 18.5334 22C19.2602 22 20.0417 21.4295 20.2449 20.7575C20.6512 19.3899 19.5494 18.1551 18.1427 18.413Z" fill="currentColor" />
    </symbol>

    <symbol id="basket-fade" width="100%" height="100%" viewBox="0 0 30 31">
      <path d="M2.5 4.25L2.83114 4.36038C4.48119 4.9104 5.30621 5.1854 5.77811 5.84012C6.25 6.49484 6.25 7.36449 6.25 9.1038V12.375C6.25 15.9105 6.25 17.6783 7.34835 18.7767C8.4467 19.875 10.2145 19.875 13.75 19.875H23.75" fill="transparent" stroke="currentColor" stroke-width="2" stroke-linecap="round" />
      <path d="M9.375 23C10.4105 23 11.25 23.8395 11.25 24.875C11.25 25.9105 10.4105 26.75 9.375 26.75C8.33947 26.75 7.5 25.9105 7.5 24.875C7.5 23.8395 8.33947 23 9.375 23Z" fill="transparent" stroke="currentColor" stroke-width="2" />
      <path d="M20.625 23.0001C21.6605 23.0001 22.5 23.8396 22.5 24.8751C22.5 25.9106 21.6605 26.7501 20.625 26.7501C19.5895 26.7501 18.75 25.9106 18.75 24.8751C18.75 23.8396 19.5895 23.0001 20.625 23.0001Z" fill="transparent" stroke="currentColor" stroke-width="2" />
      <path d="M6.25 8H20.563C23.1317 8 24.4161 8 24.9718 8.84283C25.5276 9.68566 25.0216 10.8662 24.0098 13.2272L23.4741 14.4772C23.0016 15.5795 22.7654 16.1307 22.2958 16.4403C21.8262 16.75 21.2265 16.75 20.0273 16.75H6.25" fill="transparent" stroke="currentColor" stroke-width="2" />
    </symbol>

    <symbol id="heart" width="100%" height="100%" viewBox="0 0 31 31">
      <path d="M11.7022 24.1384L12.3212 23.3531L11.7022 24.1384ZM15.5 7.37561L14.7795 8.06908C14.968 8.26494 15.2282 8.37561 15.5 8.37561C15.7718 8.37561 16.032 8.26494 16.2205 8.06908L15.5 7.37561ZM19.2978 24.1384L19.9169 24.9237L19.2978 24.1384ZM12.3212 23.3531C10.423 21.8566 8.35824 20.4032 6.71959 18.558C5.11522 16.7515 4 14.6484 4 11.9212H2C2 15.2726 3.39692 17.8285 5.22416 19.8861C7.01712 21.905 9.30348 23.5208 11.0831 24.9237L12.3212 23.3531ZM4 11.9212C4 9.25599 5.5059 7.0242 7.55643 6.0869C9.54392 5.17841 12.223 5.413 14.7795 8.06908L16.2205 6.68214C13.1522 3.49426 9.58128 2.9623 6.72497 4.26792C3.9317 5.54474 2 8.50772 2 11.9212H4ZM11.0831 24.9237C11.7228 25.428 12.4135 25.9691 13.1145 26.3787C13.8151 26.7881 14.6211 27.1248 15.5 27.1248V25.1248C15.1289 25.1248 14.6849 24.9799 14.1235 24.6519C13.5626 24.3241 12.9794 23.8719 12.3212 23.3531L11.0831 24.9237ZM19.9169 24.9237C21.6965 23.5208 23.9829 21.905 25.7758 19.8861C27.6031 17.8285 29 15.2726 29 11.9212H27C27 14.6484 25.8848 16.7515 24.2804 18.558C22.6418 20.4032 20.577 21.8566 18.6787 23.3531L19.9169 24.9237ZM29 11.9212C29 8.50772 27.0683 5.54474 24.275 4.26792C21.4187 2.9623 17.8478 3.49426 14.7795 6.68214L16.2205 8.06908C18.777 5.413 21.4561 5.17841 23.4436 6.0869C25.4941 7.0242 27 9.25599 27 11.9212H29ZM18.6787 23.3531C18.0206 23.8719 17.4374 24.3241 16.8765 24.6519C16.3151 24.9799 15.8711 25.1248 15.5 25.1248V27.1248C16.3789 27.1248 17.1849 26.7881 17.8855 26.3787C18.5865 25.9691 19.2772 25.428 19.9169 24.9237L18.6787 23.3531Z" fill="currentColor" />
    </symbol>

    <symbol id="like" width="100%" height="100%" viewBox="0 0 32 32">
      <path d="M11.9489 25.2145L10.7108 26.7852L10.7108 26.7852L11.9489 25.2145ZM16 7.33418L14.559 8.72111C14.936 9.11283 15.4563 9.33418 16 9.33418C16.5436 9.33418 17.0639 9.11283 17.4409 8.72111L16 7.33418ZM20.051 25.2145L18.8128 23.6439L20.051 25.2145ZM13.1871 23.6439C11.1069 22.004 9.00795 20.5294 7.33205 18.6423C5.72473 16.8324 4.66663 14.8006 4.66663 12.1828H0.666626C0.666626 16.0489 2.28814 18.9866 4.3412 21.2984C6.3257 23.533 8.8679 25.3324 10.7108 26.7852L13.1871 23.6439ZM4.66663 12.1828C4.66663 9.68911 6.07422 7.64976 7.91483 6.80841C9.62937 6.02469 12.071 6.13614 14.559 8.72111L17.4409 5.94724C13.9292 2.29866 9.7041 1.59246 6.25191 3.17046C2.92581 4.69083 0.666626 8.19257 0.666626 12.1828H4.66663ZM10.7108 26.7852C11.3846 27.3163 12.1715 27.9349 12.9845 28.41C13.7969 28.8847 14.8256 29.3333 16 29.3333V25.3333C15.841 25.3333 15.5363 25.2682 15.0026 24.9564C14.4696 24.6449 13.8977 24.204 13.1871 23.6439L10.7108 26.7852ZM21.2892 26.7852C23.132 25.3324 25.6742 23.533 27.6587 21.2984C29.7118 18.9866 31.3333 16.0489 31.3333 12.1828H27.3333C27.3333 14.8006 26.2752 16.8324 24.6679 18.6423C22.992 20.5294 20.893 22.004 18.8128 23.6439L21.2892 26.7852ZM31.3333 12.1828C31.3333 8.19257 29.0741 4.69083 25.748 3.17046C22.2958 1.59246 18.0707 2.29866 14.559 5.94724L17.4409 8.72111C19.929 6.13614 22.3706 6.02469 24.0851 6.80841C25.9257 7.64976 27.3333 9.68911 27.3333 12.1828H31.3333ZM18.8128 23.6439C18.1022 24.204 17.5303 24.6449 16.9973 24.9564C16.4636 25.2682 16.1589 25.3333 16 25.3333V29.3333C17.1744 29.3333 18.203 28.8847 19.0154 28.41C19.8284 27.9349 20.6154 27.3163 21.2892 26.7852L18.8128 23.6439Z" fill="white" />
      <path d="M2.66663 12.1828C2.66663 18.6667 8.02586 22.1219 11.9489 25.2145C13.3333 26.3058 14.6666 27.3333 16 27.3333C17.3333 27.3333 18.6666 26.3058 20.051 25.2145C23.9741 22.1219 29.3333 18.6667 29.3333 12.1828C29.3333 5.69888 21.9997 1.10062 16 7.33418C10.0002 1.10062 2.66663 5.69888 2.66663 12.1828Z" />
      <path d="M11.9489 25.2145L11.3299 25.9998L11.9489 25.2145ZM16 7.33418L15.2795 8.02764C15.468 8.2235 15.7281 8.33418 16 8.33418C16.2718 8.33418 16.5319 8.2235 16.7204 8.02764L16 7.33418ZM20.051 25.2145L19.4319 24.4292L20.051 25.2145ZM12.568 24.4292C10.5471 22.8361 8.33738 21.2803 6.58434 19.3064C4.86558 17.371 3.66663 15.1127 3.66663 12.1828H1.66663C1.66663 15.7368 3.14729 18.4481 5.08892 20.6344C6.99626 22.7821 9.42765 24.5003 11.3299 25.9998L12.568 24.4292ZM3.66663 12.1828C3.66663 9.31497 5.28712 6.91003 7.4991 5.89892C9.64805 4.91663 12.5355 5.17677 15.2795 8.02764L16.7204 6.64071C13.4646 3.25803 9.68542 2.70052 6.66764 4.07995C3.71291 5.43056 1.66663 8.56671 1.66663 12.1828H3.66663ZM11.3299 25.9998C12.0128 26.5382 12.746 27.1124 13.4891 27.5466C14.2318 27.9806 15.0794 28.3333 16 28.3333V26.3333C15.5872 26.3333 15.1015 26.1723 14.4981 25.8198C13.8951 25.4674 13.2694 24.9821 12.568 24.4292L11.3299 25.9998ZM20.6701 25.9998C22.5723 24.5003 25.0037 22.7821 26.911 20.6344C28.8526 18.4481 30.3333 15.7368 30.3333 12.1828H28.3333C28.3333 15.1127 27.1343 17.371 25.4156 19.3064C23.6625 21.2803 21.4528 22.8361 19.4319 24.4292L20.6701 25.9998ZM30.3333 12.1828C30.3333 8.56671 28.287 5.43056 25.3323 4.07995C22.3145 2.70052 18.5353 3.25803 15.2795 6.64071L16.7204 8.02764C19.4644 5.17677 22.3519 4.91663 24.5008 5.89892C26.7128 6.91003 28.3333 9.31497 28.3333 12.1828H30.3333ZM19.4319 24.4292C18.7305 24.9821 18.1049 25.4674 17.5018 25.8198C16.8984 26.1723 16.4128 26.3333 16 26.3333V28.3333C16.9205 28.3333 17.7681 27.9806 18.5109 27.5466C19.2539 27.1124 19.9871 26.5382 20.6701 25.9998L19.4319 24.4292Z" fill="currentColor" />
    </symbol>

    <symbol id="sale" width="100%" height="100%" viewBox="0 0 24 24">
      <path fill-rule="evenodd" clip-rule="evenodd" d="M9.5924 3.20027C9.34888 3.4078 9.22711 3.51158 9.09706 3.59874C8.79896 3.79854 8.46417 3.93721 8.1121 4.00672C7.95851 4.03705 7.79903 4.04977 7.48008 4.07522C6.6787 4.13918 6.278 4.17115 5.94371 4.28923C5.17051 4.56233 4.56233 5.17051 4.28923 5.94371C4.17115 6.278 4.13918 6.6787 4.07522 7.48008C4.04977 7.79903 4.03705 7.95851 4.00672 8.1121C3.93721 8.46417 3.79854 8.79896 3.59874 9.09706C3.51158 9.22711 3.40781 9.34887 3.20027 9.5924C2.67883 10.2043 2.4181 10.5102 2.26522 10.8301C1.91159 11.57 1.91159 12.43 2.26522 13.1699C2.41811 13.4898 2.67883 13.7957 3.20027 14.4076C3.40778 14.6511 3.51158 14.7729 3.59874 14.9029C3.79854 15.201 3.93721 15.5358 4.00672 15.8879C4.03705 16.0415 4.04977 16.201 4.07522 16.5199C4.13918 17.3213 4.17115 17.722 4.28923 18.0563C4.56233 18.8295 5.17051 19.4377 5.94371 19.7108C6.278 19.8288 6.6787 19.8608 7.48008 19.9248C7.79903 19.9502 7.95851 19.963 8.1121 19.9933C8.46417 20.0628 8.79896 20.2015 9.09706 20.4013C9.22711 20.4884 9.34887 20.5922 9.5924 20.7997C10.2043 21.3212 10.5102 21.5819 10.8301 21.7348C11.57 22.0884 12.43 22.0884 13.1699 21.7348C13.4898 21.5819 13.7957 21.3212 14.4076 20.7997C14.6511 20.5922 14.7729 20.4884 14.9029 20.4013C15.201 20.2015 15.5358 20.0628 15.8879 19.9933C16.0415 19.963 16.201 19.9502 16.5199 19.9248C17.3213 19.8608 17.722 19.8288 18.0563 19.7108C18.8295 19.4377 19.4377 18.8295 19.7108 18.0563C19.8288 17.722 19.8608 17.3213 19.9248 16.5199C19.9502 16.201 19.963 16.0415 19.9933 15.8879C20.0628 15.5358 20.2015 15.201 20.4013 14.9029C20.4884 14.7729 20.5922 14.6511 20.7997 14.4076C21.3212 13.7957 21.5819 13.4898 21.7348 13.1699C22.0884 12.43 22.0884 11.57 21.7348 10.8301C21.5819 10.5102 21.3212 10.2043 20.7997 9.5924C20.5922 9.34887 20.4884 9.22711 20.4013 9.09706C20.2015 8.79896 20.0628 8.46417 19.9933 8.1121C19.963 7.95851 19.9502 7.79903 19.9248 7.48008C19.8608 6.6787 19.8288 6.278 19.7108 5.94371C19.4377 5.17051 18.8295 4.56233 18.0563 4.28923C17.722 4.17115 17.3213 4.13918 16.5199 4.07522C16.201 4.04977 16.0415 4.03705 15.8879 4.00672C15.5358 3.93721 15.201 3.79854 14.9029 3.59874C14.7729 3.51158 14.6511 3.40781 14.4076 3.20027C13.7957 2.67883 13.4898 2.41811 13.1699 2.26522C12.43 1.91159 11.57 1.91159 10.8301 2.26522C10.5102 2.4181 10.2043 2.67883 9.5924 3.20027ZM15.8309 8.16959C16.1487 8.48742 16.1487 9.00273 15.8309 9.32056L9.32003 15.8314C9.0022 16.1493 8.48689 16.1493 8.16906 15.8314C7.85123 15.5136 7.85123 14.9983 8.16906 14.6805L14.6799 8.16959C14.9978 7.85176 15.5131 7.85176 15.8309 8.16959ZM15.798 14.7134C15.798 15.3127 15.3122 15.7985 14.7129 15.7985C14.1135 15.7985 13.6277 15.3127 13.6277 14.7134C13.6277 14.1141 14.1135 13.6282 14.7129 13.6282C15.3122 13.6282 15.798 14.1141 15.798 14.7134ZM9.28712 10.3728C9.88643 10.3728 10.3723 9.88696 10.3723 9.28765C10.3723 8.68834 9.88643 8.2025 9.28712 8.2025C8.68781 8.2025 8.20197 8.68834 8.20197 9.28765C8.20197 9.88696 8.68781 10.3728 9.28712 10.3728Z" fill="currentColor" />
    </symbol>

    <symbol id="arrow-left" width="100%" height="100%" viewBox="0 0 24 24">
      <path d="M9.76777 12L15.8839 5.88388C16.372 5.39573 16.372 4.60427 15.8839 4.11612C15.3957 3.62796 14.6043 3.62796 14.1161 4.11612L7.11612 11.1161C6.62796 11.6043 6.62796 12.3957 7.11612 12.8839L14.1161 19.8839C14.6043 20.372 15.3957 20.372 15.8839 19.8839C16.372 19.3957 16.372 18.6043 15.8839 18.1161L9.76777 12Z" fill="currentColor" />
    </symbol>

    <symbol id="arrow-right" width="100%" height="100%" viewBox="0 0 24 24">
      <path d="M14.2322 12L8.11612 5.88388C7.62796 5.39573 7.62796 4.60427 8.11612 4.11612C8.60427 3.62796 9.39573 3.62796 9.88388 4.11612L16.8839 11.1161C17.372 11.6043 17.372 12.3957 16.8839 12.8839L9.88388 19.8839C9.39573 20.372 8.60427 20.372 8.11612 19.8839C7.62796 19.3957 7.62796 18.6043 8.11612 18.1161L14.2322 12Z" fill="currentColor" />
    </symbol>

    <symbol id="clock" width="100%" height="100%" viewBox="0 0 24 24">
      <circle cx="12" cy="12" r="10" fill="transparent" stroke="currentColor" stroke-width="2" />
      <path d="M12 8V12L14.5 14.5" fill="transparent" stroke="currentColor" stroke-width="2" stroke-linecap="round" stroke-linejoin="round" />
    </symbol>

  </defs>
</svg>