<?xml version="1.0"?>
<svg xmlns="http://www.w3.org/2000/svg" xmlns:xlink="http://www.w3.org/1999/xlink" version="1.1" xml:space="preserve">
  <defs>

    <symbol id="logo" width="100%" height="100%" viewBox="0 0 50 47">
      <path d="M20.8536 0.97374C19.5131 1.07914 18.626 1.23244 17.1376 1.60612C8.92692 3.66614 2.75658 10.4403 1.59348 18.6804C1.38648 20.0888 1.38648 22.7717 1.59348 24.1801C2.54958 30.9543 6.81757 36.7415 13.1358 39.8171C16.0928 41.2544 19.0301 41.9251 22.4307 41.9251C24.8456 41.9347 26.817 41.6376 29.015 40.9669L29.8332 40.7082L29.774 40.1717C29.705 39.5489 29.6262 39.1081 29.5769 39.1081C29.567 39.1081 29.0939 39.2518 28.5321 39.4339C27.5267 39.7501 25.7032 40.1621 25.2892 40.1621H25.0723L25.1216 36.4445C25.1808 32.0561 25.1709 32.1232 26.3636 29.0188C27.2803 26.6617 27.3 26.5659 27.2211 26.1156C27.1324 25.6653 26.541 25.052 26.0876 24.9275C25.8904 24.8796 25.1118 24.7646 24.3528 24.688C22.8644 24.5251 21.5239 24.2568 20.6565 23.9406C20.3608 23.8352 19.0301 23.2986 17.6995 22.7429C16.3688 22.1872 15.1071 21.7177 14.8903 21.6985C14.3679 21.641 14.0229 21.8327 12.2881 23.1357C11.4404 23.7585 10.8391 24.2855 10.7406 24.4772C10.5336 24.8508 10.5139 25.4449 10.6913 25.8569C10.8194 26.1635 13.6483 28.7888 15.3831 30.2069C16.9701 31.51 17.6995 32.3819 18.2317 33.6275C18.9808 35.3617 19.04 37.1918 18.3993 39.0219C18.0642 39.98 18.1627 39.9609 16.3688 39.386C10.1984 37.393 5.45733 32.5256 3.70283 26.3647C3.21985 24.6496 2.88472 21.3632 3.08185 20.1942L3.1607 19.7247L7.69483 18.9199C10.1886 18.4791 12.3472 18.0767 12.4852 18.0192C12.6331 17.9617 12.8598 17.7989 12.9978 17.6647C13.1358 17.521 13.9342 16.0263 14.772 14.3399C16.5955 10.6798 16.4871 10.7948 18.005 10.5936C18.5669 10.5169 19.2273 10.3924 19.4737 10.3157C20.6466 9.93244 21.7407 9.00303 22.2927 7.92033C22.687 7.13464 22.7757 6.67473 22.9236 4.85425C22.9728 4.11647 23.0517 3.28288 23.0813 3.00502L23.1404 2.48761L23.8895 2.55469C24.9935 2.65051 25.8017 2.76548 26.8958 3.00502L27.8519 3.20623V5.08421C27.8519 7.06757 27.9209 7.56581 28.2166 7.95865C28.5912 8.43773 28.8573 8.54313 30.6513 8.87848C31.6172 9.06052 32.5043 9.27132 32.6226 9.33839C32.7409 9.41504 33.4999 10.0666 34.3081 10.7948C35.1263 11.5134 35.9641 12.1841 36.1809 12.2799C36.4471 12.3949 37.0385 12.4907 37.9551 12.5674C39.9166 12.7207 39.7294 12.6344 40.2123 13.6501C40.7249 14.704 41.5529 17.1569 41.5529 17.5881C41.5529 17.6168 40.8432 17.6455 39.9758 17.6455C38.862 17.6455 38.3001 17.6072 38.0734 17.5114C37.896 17.4443 36.8315 16.8215 35.7078 16.1317C34.5743 15.4322 33.4999 14.8478 33.3027 14.8094C32.5241 14.6657 31.5778 15.2598 31.4398 15.9879C31.3511 16.4574 31.8439 19.6768 32.1495 20.6158C32.6719 22.2063 34.0321 23.6052 35.6979 24.2376L36.1809 24.4293L37.1666 23.8544C38.0537 23.337 40.9023 21.9381 42.854 21.0661L43.6031 20.7308L43.5637 20.1176C43.2482 16.0167 41.8289 12.3087 39.3252 9.05095C38.5663 8.06405 36.6935 6.19566 35.6388 5.38123C32.7409 3.13916 29.0939 1.60612 25.5257 1.12704C24.1458 0.944996 22.0463 0.877926 20.8536 0.97374Z" fill="currentColor" />
      <path d="M49.0047 18.2298C48.2851 19.7054 47.2403 20.4144 43.0808 22.2445C38.7339 24.1512 35.9839 25.7417 34.4364 27.2364C32.327 29.2773 31.1738 32.1709 31.0456 35.7544L30.9963 37.1437L31.361 36.473C32.1693 34.9783 33.1155 33.8381 34.4166 32.7841C34.9095 32.3913 35.905 31.5864 36.6443 30.9924C38.4086 29.5743 40.4884 27.6101 41.6515 26.2591C43.3666 24.2662 43.5342 24.1608 44.1354 24.7357C44.6381 25.2339 44.4706 25.5693 42.7358 27.5047C41.208 29.2198 39.1085 31.1361 36.5457 33.1482C34.7715 34.5471 33.9337 35.3424 33.2634 36.2622C31.8539 38.1977 31.223 40.2769 31.1935 43.0172C31.1836 44.2244 31.1935 44.3107 31.4103 44.531C31.706 44.8376 32.2186 44.8376 32.5241 44.5406C32.7213 44.349 32.7607 44.1861 32.8198 43.2184C32.8593 42.6147 32.948 41.8291 33.017 41.465C33.1747 40.6793 33.2831 40.5739 34.5546 39.9319C35.7079 39.3474 36.1613 39.1941 38.6452 38.4947C39.8379 38.1593 41.2375 37.7186 41.7501 37.527C44.648 36.4155 46.6686 34.9591 47.5754 33.3398C48.9751 30.8295 49.6848 27.9359 49.9509 23.6721C50.1086 20.9989 49.8721 18.0286 49.4581 17.6262C49.3891 17.5591 49.2511 17.7412 49.0047 18.2298Z" fill="currentColor" />
      <path d="M0.282476 34.4608C-0.0822251 34.7099 -0.0920819 35.0932 0.243049 35.7352C0.657034 36.5304 1.89899 38.3222 2.12569 38.4372C2.33269 38.5425 2.7171 38.5617 2.96352 38.4755C3.13109 38.4084 3.40708 37.9581 3.40708 37.7377C3.40708 37.6611 3.12123 37.182 2.76638 36.6646C2.41154 36.1568 1.96799 35.4573 1.77085 35.122C1.57371 34.777 1.33715 34.4608 1.23858 34.4129C0.97245 34.2692 0.528895 34.2979 0.282476 34.4608Z" fill="currentColor" />
      <path d="M4.42254 39.4437C4.06769 39.5874 3.8607 40.0473 3.9987 40.3922C4.09726 40.6605 5.15194 41.5899 6.23618 42.3756C6.80788 42.7972 7.08387 42.9409 7.33029 42.9409C7.93155 42.9409 8.32582 42.3085 8.03998 41.7911C7.99069 41.6953 7.7147 41.4558 7.42885 41.2546C7.14301 41.0438 6.51217 40.5551 6.01934 40.1527C5.53635 39.7599 5.04351 39.4053 4.92523 39.3766C4.80695 39.3479 4.58025 39.3766 4.42254 39.4437Z" fill="currentColor" />
      <path d="M9.56758 43.2758C9.0846 43.7453 9.27188 44.2532 10.09 44.6556C10.987 45.0963 12.9189 45.8149 13.185 45.8149C13.5892 45.8149 13.9539 45.47 13.9539 45.0867C13.9539 44.5406 13.8159 44.416 12.8006 44.0424C12.2683 43.8412 11.5094 43.5345 11.1052 43.3525C10.2378 42.9692 9.89286 42.9501 9.56758 43.2758Z" fill="currentColor" />
      <path d="M25.2104 44.8568C24.8654 44.9527 24.1558 45.106 23.6334 45.1922C22.4703 45.3838 22.1943 45.5467 22.1548 46.0833C22.0957 46.869 22.6181 47.0223 24.2543 46.7252C25.9694 46.409 26.6298 46.1695 26.8269 45.7958C27.0044 45.4509 26.9452 45.1251 26.6495 44.8568C26.3834 44.6173 26.0384 44.6173 25.2104 44.8568Z" fill="currentColor" />
      <path d="M15.9549 45.1541C15.4424 45.4128 15.4325 46.1505 15.9254 46.4955C16.2014 46.6871 17.9756 46.9554 19.2077 46.9937C19.9469 47.0129 19.9962 47.0033 20.2229 46.7446C20.5186 46.4092 20.5285 46.093 20.2328 45.7577C20.0159 45.5181 19.9075 45.4894 18.4783 45.3265C17.6404 45.2307 16.7829 45.1253 16.5661 45.0966C16.3492 45.0774 16.0732 45.0966 15.9549 45.1541Z" fill="currentColor" />
    </symbol>

    <symbol id="preloader" width="100%" height="100%" viewBox="0 0 24 24">
      <path d="M12.5621 5.61427C14.1125 5.61427 15.3694 4.35747 15.3694 2.80713C15.3694 1.2568 14.1125 0 12.5621 0C11.0117 0 9.75488 1.2568 9.75488 2.80713C9.75488 4.35747 11.0117 5.61427 12.5621 5.61427Z" fill="currentColor" />
      <path d="M12.5621 24C13.4922 24 14.2463 23.246 14.2463 22.3159C14.2463 21.3858 13.4922 20.6318 12.5621 20.6318C11.632 20.6318 10.8779 21.3858 10.8779 22.3159C10.8779 23.246 11.632 24 12.5621 24Z" fill="currentColor" />
      <path d="M5.66439 8.19005C7.05985 8.19005 8.19109 7.05885 8.19109 5.66344C8.19109 4.26804 7.05985 3.13684 5.66439 3.13684C4.26894 3.13684 3.1377 4.26804 3.1377 5.66344C3.1377 7.05885 4.26894 8.19005 5.66439 8.19005Z" fill="currentColor" />
      <path d="M19.4603 20.8613C20.2355 20.8613 20.8639 20.2329 20.8639 19.4578C20.8639 18.6826 20.2355 18.0542 19.4603 18.0542C18.6851 18.0542 18.0566 18.6826 18.0566 19.4578C18.0566 20.2329 18.6851 20.8613 19.4603 20.8613Z" fill="currentColor" />
      <path d="M2.80677 14.8072C4.04679 14.8072 5.05202 13.802 5.05202 12.562C5.05202 11.322 4.04679 10.3168 2.80677 10.3168C1.56675 10.3168 0.561523 11.322 0.561523 12.562C0.561523 13.802 1.56675 14.8072 2.80677 14.8072Z" fill="currentColor" />
      <path d="M22.3165 13.6832C22.9363 13.6832 23.4387 13.1808 23.4387 12.5611C23.4387 11.9414 22.9363 11.439 22.3165 11.439C21.6967 11.439 21.1943 11.9414 21.1943 12.5611C21.1943 13.1808 21.6967 13.6832 22.3165 13.6832Z" fill="currentColor" />
      <path d="M4.2751 18.0706C3.50726 18.8384 3.50726 20.0808 4.2751 20.8486C5.04204 21.6164 6.28626 21.6164 7.0532 20.8486C7.82105 20.0808 7.82105 18.8384 7.0532 18.0706C6.28626 17.3019 5.04295 17.2946 4.2751 18.0706Z" fill="currentColor" />
      <path d="M19.4588 6.50503C19.9236 6.50503 20.3004 6.12823 20.3004 5.66343C20.3004 5.19863 19.9236 4.82184 19.4588 4.82184C18.994 4.82184 18.6172 5.19863 18.6172 5.66343C18.6172 6.12823 18.994 6.50503 19.4588 6.50503Z" fill="currentColor" />
    </symbol>

    <symbol id="loader" width="100%" height="100%" viewBox="22 22 44 44">
      <circle cx="44" cy="44" r="20.2" fill="transparent" stroke="currentColor" stroke-width="4"></circle>
    </symbol>

    <symbol id="search" width="100%" height="100%" viewBox="0 0 25 24">
      <circle cx="11.8334" cy="11.5" r="9.5" fill="transparent" stroke="currentColor" stroke-width="1.5" />
      <path d="M20.3334 20L22.3334 22" fill="transparent" stroke="currentColor" stroke-width="1.5" stroke-linecap="round" />
    </symbol>

    <symbol id="burger" width="100%" height="100%" viewBox="0 0 24 24">
      <path fill-rule="evenodd" clip-rule="evenodd" d="M20.75 7C20.75 7.41421 20.4142 7.75 20 7.75L4 7.75C3.58579 7.75 3.25 7.41421 3.25 7C3.25 6.58579 3.58579 6.25 4 6.25L20 6.25C20.4142 6.25 20.75 6.58579 20.75 7Z" fill="currentColor" stroke="currentColor" />
      <path fill-rule="evenodd" clip-rule="evenodd" d="M20.75 12C20.75 12.4142 20.4142 12.75 20 12.75L4 12.75C3.58579 12.75 3.25 12.4142 3.25 12C3.25 11.5858 3.58579 11.25 4 11.25L20 11.25C20.4142 11.25 20.75 11.5858 20.75 12Z" fill="currentColor" stroke="currentColor" />
      <path fill-rule="evenodd" clip-rule="evenodd" d="M20.75 17C20.75 17.4142 20.4142 17.75 20 17.75L4 17.75C3.58579 17.75 3.25 17.4142 3.25 17C3.25 16.5858 3.58579 16.25 4 16.25L20 16.25C20.4142 16.25 20.75 16.5858 20.75 17Z" fill="currentColor" stroke="currentColor" />
    </symbol>

    <symbol id="close" width="100%" height="100%" viewBox="0 0 24 24">
      <path d="M18 6L6 18M6 6L18 18" fill="currentColor" stroke="currentColor" stroke-width="1.5" stroke-linecap="round" stroke-linejoin="round" />
    </symbol>

    <symbol id="user-fade" width="100%" height="100%" viewBox="0 0 30 31">
      <circle cx="15" cy="8" r="5" fill="transparent" stroke="currentColor" stroke-width="2" />
      <path d="M25 22.375C25 25.4816 25 28 15 28C5 28 5 25.4816 5 22.375C5 19.2684 9.47715 16.75 15 16.75C20.5228 16.75 25 19.2684 25 22.375Z" fill="transparent" stroke="currentColor" stroke-width="2" />
    </symbol>

    <symbol id="basket" width="100%" height="100%" viewBox="0 0 24 24">
      <path d="M2.55657 2.07026C2.0589 2.24468 1.84063 2.88169 2.12875 3.35186C2.30337 3.64762 2.43434 3.68554 3.39475 3.73862L4.21547 3.77654L6.14503 9.88123C7.20148 13.2407 8.11824 16.0618 8.17936 16.1528C8.38017 16.4713 8.99135 16.8504 9.45409 16.9339C9.75968 16.9945 11.4797 17.0097 14.9634 16.9945C19.7043 16.9718 20.0448 16.9642 20.333 16.8277C20.7171 16.6533 21.1799 16.2741 21.337 16.0163C21.4069 15.9101 22.0268 14.1659 22.734 12.1411C23.6071 9.59306 24 8.35696 24 8.09912C24 7.62894 23.7381 7.1436 23.319 6.84784C22.6729 6.38525 22.865 6.39284 14.6491 6.39284H7.15783L6.98321 5.87716C6.88717 5.59657 6.65143 4.87614 6.45061 4.26946C6.25853 3.66279 6.04899 3.07886 5.9966 2.96511C5.86564 2.66177 5.21081 2.16884 4.82664 2.07784C4.42501 1.97926 2.8185 1.97167 2.55657 2.07026Z" fill="currentColor" />
      <path d="M9.88287 18.4128C9.08577 18.5613 8.53092 19.1943 8.48403 20.0227C8.43714 20.6791 8.60907 21.1245 9.05451 21.5153C9.64061 22.031 10.3283 22.1326 11.0082 21.8122C11.4771 21.5934 11.6881 21.3746 11.8991 20.9057C12.1882 20.2649 12.0788 19.5381 11.6177 19.0224C11.1332 18.491 10.5628 18.2878 9.88287 18.4128Z" fill="currentColor" />
      <path d="M18.1427 18.413C17.1268 18.6084 16.4391 19.8822 16.8376 20.8512C17.1112 21.4999 17.8536 22 18.5334 22C19.2602 22 20.0417 21.4295 20.2449 20.7575C20.6512 19.3899 19.5494 18.1551 18.1427 18.413Z" fill="currentColor" />
    </symbol>

    <symbol id="basket-fade" width="100%" height="100%" viewBox="0 0 30 31">
      <path d="M2.5 4.25L2.83114 4.36038C4.48119 4.9104 5.30621 5.1854 5.77811 5.84012C6.25 6.49484 6.25 7.36449 6.25 9.1038V12.375C6.25 15.9105 6.25 17.6783 7.34835 18.7767C8.4467 19.875 10.2145 19.875 13.75 19.875H23.75" fill="transparent" stroke="currentColor" stroke-width="2" stroke-linecap="round" />
      <path d="M9.375 23C10.4105 23 11.25 23.8395 11.25 24.875C11.25 25.9105 10.4105 26.75 9.375 26.75C8.33947 26.75 7.5 25.9105 7.5 24.875C7.5 23.8395 8.33947 23 9.375 23Z" fill="transparent" stroke="currentColor" stroke-width="2" />
      <path d="M20.625 23.0001C21.6605 23.0001 22.5 23.8396 22.5 24.8751C22.5 25.9106 21.6605 26.7501 20.625 26.7501C19.5895 26.7501 18.75 25.9106 18.75 24.8751C18.75 23.8396 19.5895 23.0001 20.625 23.0001Z" fill="transparent" stroke="currentColor" stroke-width="2" />
      <path d="M6.25 8H20.563C23.1317 8 24.4161 8 24.9718 8.84283C25.5276 9.68566 25.0216 10.8662 24.0098 13.2272L23.4741 14.4772C23.0016 15.5795 22.7654 16.1307 22.2958 16.4403C21.8262 16.75 21.2265 16.75 20.0273 16.75H6.25" fill="transparent" stroke="currentColor" stroke-width="2" />
    </symbol>

    <symbol id="heart" width="100%" height="100%" viewBox="0 0 31 31">
      <path d="M11.7022 24.1384L12.3212 23.3531L11.7022 24.1384ZM15.5 7.37561L14.7795 8.06908C14.968 8.26494 15.2282 8.37561 15.5 8.37561C15.7718 8.37561 16.032 8.26494 16.2205 8.06908L15.5 7.37561ZM19.2978 24.1384L19.9169 24.9237L19.2978 24.1384ZM12.3212 23.3531C10.423 21.8566 8.35824 20.4032 6.71959 18.558C5.11522 16.7515 4 14.6484 4 11.9212H2C2 15.2726 3.39692 17.8285 5.22416 19.8861C7.01712 21.905 9.30348 23.5208 11.0831 24.9237L12.3212 23.3531ZM4 11.9212C4 9.25599 5.5059 7.0242 7.55643 6.0869C9.54392 5.17841 12.223 5.413 14.7795 8.06908L16.2205 6.68214C13.1522 3.49426 9.58128 2.9623 6.72497 4.26792C3.9317 5.54474 2 8.50772 2 11.9212H4ZM11.0831 24.9237C11.7228 25.428 12.4135 25.9691 13.1145 26.3787C13.8151 26.7881 14.6211 27.1248 15.5 27.1248V25.1248C15.1289 25.1248 14.6849 24.9799 14.1235 24.6519C13.5626 24.3241 12.9794 23.8719 12.3212 23.3531L11.0831 24.9237ZM19.9169 24.9237C21.6965 23.5208 23.9829 21.905 25.7758 19.8861C27.6031 17.8285 29 15.2726 29 11.9212H27C27 14.6484 25.8848 16.7515 24.2804 18.558C22.6418 20.4032 20.577 21.8566 18.6787 23.3531L19.9169 24.9237ZM29 11.9212C29 8.50772 27.0683 5.54474 24.275 4.26792C21.4187 2.9623 17.8478 3.49426 14.7795 6.68214L16.2205 8.06908C18.777 5.413 21.4561 5.17841 23.4436 6.0869C25.4941 7.0242 27 9.25599 27 11.9212H29ZM18.6787 23.3531C18.0206 23.8719 17.4374 24.3241 16.8765 24.6519C16.3151 24.9799 15.8711 25.1248 15.5 25.1248V27.1248C16.3789 27.1248 17.1849 26.7881 17.8855 26.3787C18.5865 25.9691 19.2772 25.428 19.9169 24.9237L18.6787 23.3531Z" fill="currentColor" />
    </symbol>

    <symbol id="like" width="100%" height="100%" viewBox="0 0 32 32">
      <path d="M11.9489 25.2145L10.7108 26.7852L10.7108 26.7852L11.9489 25.2145ZM16 7.33418L14.559 8.72111C14.936 9.11283 15.4563 9.33418 16 9.33418C16.5436 9.33418 17.0639 9.11283 17.4409 8.72111L16 7.33418ZM20.051 25.2145L18.8128 23.6439L20.051 25.2145ZM13.1871 23.6439C11.1069 22.004 9.00795 20.5294 7.33205 18.6423C5.72473 16.8324 4.66663 14.8006 4.66663 12.1828H0.666626C0.666626 16.0489 2.28814 18.9866 4.3412 21.2984C6.3257 23.533 8.8679 25.3324 10.7108 26.7852L13.1871 23.6439ZM4.66663 12.1828C4.66663 9.68911 6.07422 7.64976 7.91483 6.80841C9.62937 6.02469 12.071 6.13614 14.559 8.72111L17.4409 5.94724C13.9292 2.29866 9.7041 1.59246 6.25191 3.17046C2.92581 4.69083 0.666626 8.19257 0.666626 12.1828H4.66663ZM10.7108 26.7852C11.3846 27.3163 12.1715 27.9349 12.9845 28.41C13.7969 28.8847 14.8256 29.3333 16 29.3333V25.3333C15.841 25.3333 15.5363 25.2682 15.0026 24.9564C14.4696 24.6449 13.8977 24.204 13.1871 23.6439L10.7108 26.7852ZM21.2892 26.7852C23.132 25.3324 25.6742 23.533 27.6587 21.2984C29.7118 18.9866 31.3333 16.0489 31.3333 12.1828H27.3333C27.3333 14.8006 26.2752 16.8324 24.6679 18.6423C22.992 20.5294 20.893 22.004 18.8128 23.6439L21.2892 26.7852ZM31.3333 12.1828C31.3333 8.19257 29.0741 4.69083 25.748 3.17046C22.2958 1.59246 18.0707 2.29866 14.559 5.94724L17.4409 8.72111C19.929 6.13614 22.3706 6.02469 24.0851 6.80841C25.9257 7.64976 27.3333 9.68911 27.3333 12.1828H31.3333ZM18.8128 23.6439C18.1022 24.204 17.5303 24.6449 16.9973 24.9564C16.4636 25.2682 16.1589 25.3333 16 25.3333V29.3333C17.1744 29.3333 18.203 28.8847 19.0154 28.41C19.8284 27.9349 20.6154 27.3163 21.2892 26.7852L18.8128 23.6439Z" fill="white" />
      <path d="M2.66663 12.1828C2.66663 18.6667 8.02586 22.1219 11.9489 25.2145C13.3333 26.3058 14.6666 27.3333 16 27.3333C17.3333 27.3333 18.6666 26.3058 20.051 25.2145C23.9741 22.1219 29.3333 18.6667 29.3333 12.1828C29.3333 5.69888 21.9997 1.10062 16 7.33418C10.0002 1.10062 2.66663 5.69888 2.66663 12.1828Z" />
      <path d="M11.9489 25.2145L11.3299 25.9998L11.9489 25.2145ZM16 7.33418L15.2795 8.02764C15.468 8.2235 15.7281 8.33418 16 8.33418C16.2718 8.33418 16.5319 8.2235 16.7204 8.02764L16 7.33418ZM20.051 25.2145L19.4319 24.4292L20.051 25.2145ZM12.568 24.4292C10.5471 22.8361 8.33738 21.2803 6.58434 19.3064C4.86558 17.371 3.66663 15.1127 3.66663 12.1828H1.66663C1.66663 15.7368 3.14729 18.4481 5.08892 20.6344C6.99626 22.7821 9.42765 24.5003 11.3299 25.9998L12.568 24.4292ZM3.66663 12.1828C3.66663 9.31497 5.28712 6.91003 7.4991 5.89892C9.64805 4.91663 12.5355 5.17677 15.2795 8.02764L16.7204 6.64071C13.4646 3.25803 9.68542 2.70052 6.66764 4.07995C3.71291 5.43056 1.66663 8.56671 1.66663 12.1828H3.66663ZM11.3299 25.9998C12.0128 26.5382 12.746 27.1124 13.4891 27.5466C14.2318 27.9806 15.0794 28.3333 16 28.3333V26.3333C15.5872 26.3333 15.1015 26.1723 14.4981 25.8198C13.8951 25.4674 13.2694 24.9821 12.568 24.4292L11.3299 25.9998ZM20.6701 25.9998C22.5723 24.5003 25.0037 22.7821 26.911 20.6344C28.8526 18.4481 30.3333 15.7368 30.3333 12.1828H28.3333C28.3333 15.1127 27.1343 17.371 25.4156 19.3064C23.6625 21.2803 21.4528 22.8361 19.4319 24.4292L20.6701 25.9998ZM30.3333 12.1828C30.3333 8.56671 28.287 5.43056 25.3323 4.07995C22.3145 2.70052 18.5353 3.25803 15.2795 6.64071L16.7204 8.02764C19.4644 5.17677 22.3519 4.91663 24.5008 5.89892C26.7128 6.91003 28.3333 9.31497 28.3333 12.1828H30.3333ZM19.4319 24.4292C18.7305 24.9821 18.1049 25.4674 17.5018 25.8198C16.8984 26.1723 16.4128 26.3333 16 26.3333V28.3333C16.9205 28.3333 17.7681 27.9806 18.5109 27.5466C19.2539 27.1124 19.9871 26.5382 20.6701 25.9998L19.4319 24.4292Z" fill="currentColor" />
    </symbol>

    <symbol id="sale" width="100%" height="100%" viewBox="0 0 24 24">
      <path fill-rule="evenodd" clip-rule="evenodd" d="M9.5924 3.20027C9.34888 3.4078 9.22711 3.51158 9.09706 3.59874C8.79896 3.79854 8.46417 3.93721 8.1121 4.00672C7.95851 4.03705 7.79903 4.04977 7.48008 4.07522C6.6787 4.13918 6.278 4.17115 5.94371 4.28923C5.17051 4.56233 4.56233 5.17051 4.28923 5.94371C4.17115 6.278 4.13918 6.6787 4.07522 7.48008C4.04977 7.79903 4.03705 7.95851 4.00672 8.1121C3.93721 8.46417 3.79854 8.79896 3.59874 9.09706C3.51158 9.22711 3.40781 9.34887 3.20027 9.5924C2.67883 10.2043 2.4181 10.5102 2.26522 10.8301C1.91159 11.57 1.91159 12.43 2.26522 13.1699C2.41811 13.4898 2.67883 13.7957 3.20027 14.4076C3.40778 14.6511 3.51158 14.7729 3.59874 14.9029C3.79854 15.201 3.93721 15.5358 4.00672 15.8879C4.03705 16.0415 4.04977 16.201 4.07522 16.5199C4.13918 17.3213 4.17115 17.722 4.28923 18.0563C4.56233 18.8295 5.17051 19.4377 5.94371 19.7108C6.278 19.8288 6.6787 19.8608 7.48008 19.9248C7.79903 19.9502 7.95851 19.963 8.1121 19.9933C8.46417 20.0628 8.79896 20.2015 9.09706 20.4013C9.22711 20.4884 9.34887 20.5922 9.5924 20.7997C10.2043 21.3212 10.5102 21.5819 10.8301 21.7348C11.57 22.0884 12.43 22.0884 13.1699 21.7348C13.4898 21.5819 13.7957 21.3212 14.4076 20.7997C14.6511 20.5922 14.7729 20.4884 14.9029 20.4013C15.201 20.2015 15.5358 20.0628 15.8879 19.9933C16.0415 19.963 16.201 19.9502 16.5199 19.9248C17.3213 19.8608 17.722 19.8288 18.0563 19.7108C18.8295 19.4377 19.4377 18.8295 19.7108 18.0563C19.8288 17.722 19.8608 17.3213 19.9248 16.5199C19.9502 16.201 19.963 16.0415 19.9933 15.8879C20.0628 15.5358 20.2015 15.201 20.4013 14.9029C20.4884 14.7729 20.5922 14.6511 20.7997 14.4076C21.3212 13.7957 21.5819 13.4898 21.7348 13.1699C22.0884 12.43 22.0884 11.57 21.7348 10.8301C21.5819 10.5102 21.3212 10.2043 20.7997 9.5924C20.5922 9.34887 20.4884 9.22711 20.4013 9.09706C20.2015 8.79896 20.0628 8.46417 19.9933 8.1121C19.963 7.95851 19.9502 7.79903 19.9248 7.48008C19.8608 6.6787 19.8288 6.278 19.7108 5.94371C19.4377 5.17051 18.8295 4.56233 18.0563 4.28923C17.722 4.17115 17.3213 4.13918 16.5199 4.07522C16.201 4.04977 16.0415 4.03705 15.8879 4.00672C15.5358 3.93721 15.201 3.79854 14.9029 3.59874C14.7729 3.51158 14.6511 3.40781 14.4076 3.20027C13.7957 2.67883 13.4898 2.41811 13.1699 2.26522C12.43 1.91159 11.57 1.91159 10.8301 2.26522C10.5102 2.4181 10.2043 2.67883 9.5924 3.20027ZM15.8309 8.16959C16.1487 8.48742 16.1487 9.00273 15.8309 9.32056L9.32003 15.8314C9.0022 16.1493 8.48689 16.1493 8.16906 15.8314C7.85123 15.5136 7.85123 14.9983 8.16906 14.6805L14.6799 8.16959C14.9978 7.85176 15.5131 7.85176 15.8309 8.16959ZM15.798 14.7134C15.798 15.3127 15.3122 15.7985 14.7129 15.7985C14.1135 15.7985 13.6277 15.3127 13.6277 14.7134C13.6277 14.1141 14.1135 13.6282 14.7129 13.6282C15.3122 13.6282 15.798 14.1141 15.798 14.7134ZM9.28712 10.3728C9.88643 10.3728 10.3723 9.88696 10.3723 9.28765C10.3723 8.68834 9.88643 8.2025 9.28712 8.2025C8.68781 8.2025 8.20197 8.68834 8.20197 9.28765C8.20197 9.88696 8.68781 10.3728 9.28712 10.3728Z" fill="currentColor" />
    </symbol>

    <symbol id="arrow-left" width="100%" height="100%" viewBox="0 0 24 24">
      <path d="M9.76777 12L15.8839 5.88388C16.372 5.39573 16.372 4.60427 15.8839 4.11612C15.3957 3.62796 14.6043 3.62796 14.1161 4.11612L7.11612 11.1161C6.62796 11.6043 6.62796 12.3957 7.11612 12.8839L14.1161 19.8839C14.6043 20.372 15.3957 20.372 15.8839 19.8839C16.372 19.3957 16.372 18.6043 15.8839 18.1161L9.76777 12Z" fill="currentColor" />
    </symbol>

    <symbol id="arrow-right" width="100%" height="100%" viewBox="0 0 24 24">
      <path d="M14.2322 12L8.11612 5.88388C7.62796 5.39573 7.62796 4.60427 8.11612 4.11612C8.60427 3.62796 9.39573 3.62796 9.88388 4.11612L16.8839 11.1161C17.372 11.6043 17.372 12.3957 16.8839 12.8839L9.88388 19.8839C9.39573 20.372 8.60427 20.372 8.11612 19.8839C7.62796 19.3957 7.62796 18.6043 8.11612 18.1161L14.2322 12Z" fill="currentColor" />
    </symbol>

    <symbol id="arrow-back" width="100%" height="100%" viewBox="0 0 24 24">
      <path d="M20 12H4M4 12L10 6M4 12L10 18" fill="transparent" stroke="currentColor" stroke-width="1.5" stroke-linecap="round" stroke-linejoin="round" />
    </symbol>

    <symbol id="clock" width="100%" height="100%" viewBox="0 0 24 24">
      <circle cx="12" cy="12" r="10" fill="transparent" stroke="currentColor" stroke-width="2" />
      <path d="M12 8V12L14.5 14.5" fill="transparent" stroke="currentColor" stroke-width="2" stroke-linecap="round" stroke-linejoin="round" />
    </symbol>

    <symbol id="alert" width="100%" height="100%" viewBox="0 0 24 24">
      <path d="M12 21C16.9706 21 21 16.9706 21 12C21 7.02944 16.9706 3 12 3C7.02944 3 3 7.02944 3 12C3 16.9706 7.02944 21 12 21Z" fill="transparent" stroke="currentColor" stroke-width="2" stroke-linecap="round" stroke-linejoin="round" />
      <path d="M12 8V12" fill="transparent" stroke="currentColor" stroke-width="2" stroke-linecap="round" stroke-linejoin="round" />
      <path d="M12 16H12.01" fill="transparent" stroke="currentColor" stroke-width="2" stroke-linecap="round" stroke-linejoin="round" />
    </symbol>

    <symbol id="question" width="100%" height="100%" viewBox="0 0 24 24">
      <path fill-rule="evenodd" clip-rule="evenodd" d="M12 1C5.925 1 1 5.925 1 12C1 18.075 5.925 23 12 23C18.075 23 23 18.075 23 12C23 5.925 18.075 1 12 1ZM10.892 8.935C11.122 8.482 11.292 8.267 11.433 8.155C11.539 8.071 11.683 8 12 8C12.625 8 13 8.47 13 8.978C13 9.256 12.946 9.394 12.798 9.57C12.591 9.816 12.208 10.115 11.45 10.616C11.1691 10.8008 11 11.1144 11 11.4506V13C11 13.2652 11.1054 13.5196 11.2929 13.7071C11.4804 13.8946 11.7348 14 12 14C12.2652 14 12.5196 13.8946 12.7071 13.7071C12.8946 13.5196 13 13.2652 13 13C13 12.3632 13.3272 11.7842 13.8112 11.3703C14.006 11.2037 14.179 11.0348 14.327 10.859C14.804 10.293 15 9.689 15 8.978C15 7.508 13.867 6 12 6C11.316 6 10.711 6.176 10.192 6.587C9.708 6.97 9.378 7.497 9.108 8.032C9.04526 8.14947 9.00661 8.27828 8.99433 8.41089C8.98205 8.54349 8.99637 8.67722 9.03647 8.80421C9.07657 8.9312 9.14163 9.04891 9.22783 9.15042C9.31403 9.25193 9.41964 9.3352 9.53846 9.39534C9.65728 9.45548 9.78691 9.49128 9.91975 9.50065C10.0526 9.51001 10.186 9.49275 10.3121 9.44987C10.4381 9.40699 10.5544 9.33936 10.654 9.25094C10.7536 9.16253 10.8345 9.05511 10.892 8.935ZM13 16.5C13 16.2348 12.8946 15.9804 12.7071 15.7929C12.5196 15.6054 12.2652 15.5 12 15.5C11.7348 15.5 11.4804 15.6054 11.2929 15.7929C11.1054 15.9804 11 16.2348 11 16.5V17C11 17.2652 11.1054 17.5196 11.2929 17.7071C11.4804 17.8946 11.7348 18 12 18C12.2652 18 12.5196 17.8946 12.7071 17.7071C12.8946 17.5196 13 17.2652 13 17V16.5Z" fill="currentColor" />
    </symbol>

    <symbol id="winter-hat" width="100%" height="100%" viewBox="0 0 30 31">
      <path fill-rule="evenodd" clip-rule="evenodd" d="M27.5 20.5V23H27H24H21H18H15H12H9H6H3H2.5V20.5C2.5 18.975 2.775 17.365 3.275 15.785L3.29 15.79L5.5 18L7.5 16L9.5 18L11.5 16L13.5 18L15.5 16L17.5 18L19.5 16L21.5 18L23.5 16L25.5 18L26.92 16.58L26.955 16.57C27.31 17.895 27.5 19.225 27.5 20.5ZM17.5 3.5C17.5 4.16 17.24 4.755 16.82 5.2C16.075 5.01 15 5 15 5C14.32 5 13.655 5.085 13.005 5.24C13.005 5.24 12.5 4.895 12.5 3.5C12.5 2.105 13.62 1 15 1C16.38 1 17.5 2.12 17.5 3.5Z" fill="#CCEEFF" />
      <path fill-rule="evenodd" clip-rule="evenodd" d="M26.9551 16.57L26.9201 16.58L25.5001 18L23.5001 16L21.5001 18L19.5001 16L17.5001 18L15.5001 16L13.5001 18L11.5001 16L9.50009 18L7.50009 16L5.50009 18L3.29009 15.79L3.27509 15.785C4.81509 10.92 8.51009 6.325 13.0051 5.24C13.6551 5.085 14.3201 5 15.0001 5C15.0001 5 16.0751 5.01 16.8201 5.2C21.6601 6.235 25.5751 11.345 26.9551 16.57Z" fill="#FF5959" />
      <path fill-rule="evenodd" clip-rule="evenodd" d="M29.5 24V29C29.5 29.55 29.05 30 28.5 30H1.5C0.95 30 0.5 29.55 0.5 29V24C0.5 23.45 0.95 23 1.5 23H28.5C29.05 23 29.5 23.45 29.5 24Z" fill="#CCEEFF" />
      <path d="M3.289 15.789L5.5 18L7.5 16L9.5 18L11.5 16L13.5 18L15.5 16L17.5 18L19.5 16L21.5 18L23.5 16L25 17.5M6 25V30M3 25V30M12 25V30M9 25V30M27 25V30M24 25V30M21 25V30M18 25V30M15 25V30M27.5 23V20.5C27.5 14.197 22.887 6.4975 16.8215 5.2025C17.239 4.7555 17.5 4.16 17.5 3.5C17.5 2.1195 16.381 1 15 1C13.6195 1 12.5 2.1195 12.5 3.5M4.5 23H28.5C29.052 23 29.5 23.4475 29.5 24V29C29.5 29.552 29.052 30 28.5 30H1.5C0.9475 30 0.5 29.552 0.5 29V24C0.5 23.4475 0.9475 23 1.5 23H2.5V20.5C2.5 13.5965 8.0965 5 15 5" fill="transparent" stroke="#12131A" stroke-linecap="round" stroke-linejoin="round" />
    </symbol>

    <symbol id="crystal-ball" width="100%" height="100%" viewBox="0 0 30 31">
      <path fill-rule="evenodd" clip-rule="evenodd" d="M21.5937 15.9687H20.1875V17.914V17.9328C20.6375 17.8765 21.1063 17.8437 21.5938 17.8437C22.0016 17.8437 22.4844 17.8765 23 17.9421V17.9234V17.9422C24.4578 18.1203 26.1781 18.5563 27.2188 19.25L27.2563 19.2641C27.8375 17.8109 28.1562 16.2219 28.1562 14.5625C28.1562 7.57344 22.4891 1.90625 15.5 1.90625C8.51094 1.90625 2.84375 7.57344 2.84375 14.5625C2.84375 16.7797 3.41562 18.8656 4.41875 20.675L4.44688 20.6563C4.44688 20.6563 5.47344 20.0328 7.0625 19.5031C8.22969 19.1188 9.69219 18.7813 11.2812 18.7813V11.75L11.0469 11.5156L15.5 7.0625L20.4219 11.9844L20.1875 12.2188L21.5937 15.9687ZM23 16.9461V17.9234V17.9234V16.9461Z" fill="#CCEEFF" />
      <path fill-rule="evenodd" clip-rule="evenodd" d="M16.9062 14.0938V18.7812C16.2312 19.0531 15.7109 19.325 15.3922 19.5031C14.975 19.3578 14.5156 19.2219 14.0187 19.1047L14.0937 18.7812V14.0938H16.9062Z" fill="white" />
      <path fill-rule="evenodd" clip-rule="evenodd" d="M20.2814 26.2812L22.0626 29.0938H8.93762L10.7095 26.2812H10.7189H20.1876H20.2814Z" fill="#FF5959" />
      <path fill-rule="evenodd" clip-rule="evenodd" d="M7.0625 13.1562L8.46875 16.9062H7.0625H5.65625L7.0625 13.1562ZM20.1875 12.2188L21.5938 15.9688H20.1875H18.7812L20.1875 12.2188ZM23 12.2188L24.4062 15.9688H23H21.5938L23 12.2188Z" fill="#29CC5F" />
      <path fill-rule="evenodd" clip-rule="evenodd" d="M15.3922 19.5031C15.7109 19.325 16.2313 19.0531 16.9063 18.7812C17.7734 18.4344 18.8984 18.0875 20.1875 17.9328C20.6375 17.8766 21.1063 17.8438 21.5938 17.8438C22.0016 17.8438 22.4844 17.8766 23 17.9422C24.4578 18.1203 26.1781 18.5562 27.2188 19.25L27.2563 19.2641C25.9813 22.4422 23.45 24.9875 20.2813 26.2812H20.1875H10.7188C8.03282 25.1844 5.81095 23.1922 4.41876 20.675L4.44689 20.6562C4.44689 20.6562 5.47345 20.0328 7.06251 19.5031C8.2297 19.1188 9.6922 18.7812 11.2813 18.7812C12.2703 18.7812 13.1938 18.9125 14.0188 19.1047C14.5156 19.2219 14.975 19.3578 15.3922 19.5031Z" fill="white" />
      <path fill-rule="evenodd" clip-rule="evenodd" d="M20.4219 11.9844L20.1875 12.2188L18.7812 15.9688H20.1875V17.9141V17.9328C18.8984 18.0875 17.7734 18.4344 16.9062 18.7812V14.0938H14.0938V18.7812L14.0188 19.1047C13.1938 18.9125 12.2703 18.7812 11.2812 18.7812V11.75L11.0469 11.5156L15.5 7.0625L20.4219 11.9844Z" fill="#FF5959" />
      <path d="M16.9062 16.9062V14.0938H14.0938V17.375M19.25 10.8125L15.5 7.0625L9.875 12.6875M20.7341 13.625L20.1875 12.2188L18.7812 15.9688H20.1875V17.9122M25.6114 18.5516C24.5347 18.1705 23.1641 17.8438 21.5938 17.8438C18.6364 17.8438 16.2617 19.0095 15.3898 19.5027M17.8438 20.6562C17.8438 20.6562 15.0312 18.7812 11.2812 18.7812C7.53125 18.7812 4.44734 20.6562 4.44734 20.6562M11.2812 16.9062V11.75V16.9062ZM23 17.922V15.9688V17.922ZM21.5938 15.9688H24.4062L23 12.2188L21.5938 15.9688ZM7.0625 19.5041V16.9062V19.5041ZM5.65625 16.9062H8.46875L7.0625 13.1562L5.65625 16.9062ZM10.7178 26.2812C6.09922 24.3945 2.84375 19.8598 2.84375 14.5625C2.84375 7.5725 8.50953 1.90625 15.5 1.90625C22.49 1.90625 28.1562 7.5725 28.1562 14.5625C28.1562 19.8598 24.9003 24.3945 20.2817 26.2812L22.0625 29.0938H8.9375L10.7098 26.2812H18.3125H10.7178Z" fill="transparent" stroke="#12131A" stroke-linecap="round" stroke-linejoin="round" />
    </symbol>

    <symbol id="christmas-gift" width="100%" height="100%" viewBox="0 0 30 31">
      <path fill-rule="evenodd" clip-rule="evenodd" d="M5.85938 7.53125H2.34375C1.82812 7.53125 1.40625 7.95312 1.40625 8.46875V14.0938C1.40625 14.6094 1.82812 15.0312 2.34375 15.0312H3.28125H12.6562V7.53125H12.4219L5.85938 7.53125V7.53125ZM12.6562 15.0312V29.0938H5.15625C4.12031 29.0938 3.28125 28.2547 3.28125 27.2188V15.0312H12.6562ZM17.8125 7.53125H20.625H27.6562C28.1719 7.53125 28.5938 7.95312 28.5938 8.46875V14.0938C28.5938 14.6094 28.1719 15.0312 27.6562 15.0312H26.7188H17.3438V7.53125H17.8125ZM26.7188 15.0312V27.2188C26.7188 28.2547 25.8797 29.0938 24.8438 29.0938H17.3438V15.0312H26.7188Z" fill="#CCEEFF" />
      <path fill-rule="evenodd" clip-rule="evenodd" d="M12.6562 29.0938H17.3438V7.53125H12.6562V29.0938Z" fill="#FF5959" />
      <path d="M6.5625 4.71875C6.5625 6.27172 7.82203 7.53125 9.375 7.53125M20.625 7.53125C22.178 7.53125 23.4375 6.27172 23.4375 4.71875M26.7188 16.9062V27.2188C26.7188 28.2542 25.8792 29.0938 24.8438 29.0938H5.15625C4.12078 29.0938 3.28125 28.2542 3.28125 27.2188V16.9062M21.5625 27.2188L20.8589 26L21.5625 27.2188ZM21.5625 27.2188L22.2656 26.0005L21.5625 27.2188ZM20.1562 27.2188H22.9688H20.1562ZM3.93844 11.5156L6.375 10.1094L3.93844 11.5156ZM3.93844 10.1094L6.37453 11.5156L3.93844 10.1094ZM5.15625 9.40625V12.2188V9.40625ZM22.5 13.1562L21.7964 11.9375L22.5 13.1562ZM22.5 13.1562L23.2031 11.938L22.5 13.1562ZM21.0938 13.1562H23.9062H21.0938ZM5.15625 20.1875L6.375 19.4844L5.15625 20.1875ZM5.15625 20.1875L6.37453 20.8906L5.15625 20.1875ZM5.15625 18.7812V21.5938V18.7812ZM8.62594 25.5781L11.0625 24.1719L8.62594 25.5781ZM8.62594 24.1719L11.062 25.5781L8.62594 24.1719ZM9.84375 23.4688V26.2812V23.4688ZM21.7509 21.8281L24.1875 20.4219L21.7509 21.8281ZM21.7509 20.4219L24.187 21.8281L21.7509 20.4219ZM22.9688 19.7188V22.5312V19.7188ZM15 4.71875C15 3.16578 13.7405 1.90625 12.1875 1.90625C10.6345 1.90625 9.375 3.16578 9.375 4.71875C9.375 6.27172 10.6345 7.53125 12.1875 7.53125C13.7405 7.53125 15 6.27172 15 4.71875ZM20.625 4.71875C20.625 3.16578 19.3655 1.90625 17.8125 1.90625C16.2595 1.90625 15 3.16578 15 4.71875C15 6.27172 16.2595 7.53125 17.8125 7.53125C19.3655 7.53125 20.625 6.27172 20.625 4.71875ZM17.3438 9.40625V15.0312V9.40625ZM12.6562 9.40625V15.0312V9.40625ZM17.3438 16.9062V29.0938V16.9062ZM12.6562 16.9062V29.0938V16.9062ZM28.5938 8.46875C28.5938 7.95125 28.1737 7.53125 27.6562 7.53125H2.34375C1.82625 7.53125 1.40625 7.95125 1.40625 8.46875V14.0938C1.40625 14.6112 1.82625 15.0312 2.34375 15.0312H27.6562C28.1737 15.0312 28.5938 14.6112 28.5938 14.0938V8.46875Z" fill="transparent" stroke="#12131A" stroke-linecap="round" stroke-linejoin="round" />
    </symbol>

  </defs>
</svg>