<?xml version="1.0" standalone="no"?>
<!DOCTYPE svg PUBLIC "-//W3C//DTD SVG 20010904//EN"
 "http://www.w3.org/TR/2001/REC-SVG-20010904/DTD/svg10.dtd">
<svg version="1.0" xmlns="http://www.w3.org/2000/svg"
 width="260.000000pt" height="260.000000pt" viewBox="0 0 260.000000 260.000000"
 preserveAspectRatio="xMidYMid meet">
<metadata>
Created by potrace 1.14, written by Peter Selinger 2001-2017
</metadata>
<g transform="translate(0.000000,260.000000) scale(0.100000,-0.100000)"
fill="#000000" stroke="none">
<path d="M1013 2365 c-416 -75 -738 -396 -804 -799 -15 -96 -7 -288 17 -376
92 -347 351 -603 709 -702 146 -40 412 -33 550 15 37 13 40 16 37 48 -2 19 -5
35 -5 35 -1 1 -48 -10 -104 -24 -57 -14 -106 -23 -109 -19 -3 3 -2 95 4 204
10 197 10 198 51 306 23 59 41 120 41 136 0 47 -34 66 -145 80 -69 8 -129 24
-204 52 -58 23 -134 52 -169 65 l-63 24 -37 -19 c-20 -11 -63 -40 -94 -66 -50
-39 -58 -50 -58 -78 0 -29 12 -45 83 -113 45 -43 117 -109 159 -147 106 -93
133 -149 133 -272 0 -55 -5 -103 -14 -123 -13 -32 -16 -33 -50 -27 -47 8 -178
65 -248 107 -80 47 -211 175 -268 259 -61 91 -110 202 -129 295 -19 89 -30
245 -19 261 5 7 108 31 228 52 168 31 223 44 233 58 8 10 41 72 74 138 85 169
95 180 165 193 76 13 102 24 142 57 51 43 71 95 83 209 5 55 13 104 16 108 7
6 186 -17 201 -26 5 -3 11 -52 14 -108 7 -126 15 -135 138 -162 74 -16 91 -24
138 -64 109 -96 117 -100 197 -107 41 -4 81 -13 88 -21 15 -14 76 -176 76
-200 0 -11 -17 -14 -78 -14 l-78 0 -109 65 c-61 35 -120 65 -133 65 -28 0 -72
-42 -72 -68 0 -48 33 -201 51 -239 23 -48 86 -109 133 -128 32 -14 38 -11 202
70 93 47 173 86 178 88 15 5 -15 173 -48 271 -18 52 -53 129 -77 172 -49 85
-161 212 -250 280 -212 163 -514 237 -776 189z"/>
<path d="M2415 1553 c-29 -53 -93 -95 -283 -182 -303 -139 -416 -222 -480
-350 -33 -67 -59 -170 -65 -266 -3 -47 -2 -56 7 -41 46 78 108 145 222 238 71
58 177 155 235 216 58 62 112 112 121 112 9 0 21 -7 29 -16 11 -13 10 -21 -6
-51 -29 -53 -194 -215 -343 -337 -186 -153 -239 -241 -257 -424 -10 -96 -2
-124 33 -120 26 3 27 6 37 84 6 45 17 89 25 99 24 29 121 71 255 110 268 77
384 159 443 313 69 178 98 455 66 625 -7 36 -15 34 -39 -10z"/>
<path d="M137 798 c-6 -19 9 -53 53 -118 42 -62 71 -76 89 -42 15 27 -81 172
-114 172 -13 0 -25 -6 -28 -12z"/>
<path d="M336 567 c-28 -20 -13 -49 52 -99 66 -52 81 -59 105 -46 31 16 18 37
-59 98 -41 33 -76 60 -78 60 -1 0 -10 -6 -20 -13z"/>
<path d="M575 390 c-16 -27 9 -50 85 -79 91 -35 108 -37 117 -15 10 27 -8 44
-82 75 -72 30 -109 36 -120 19z"/>
<path d="M1269 310 c-90 -20 -99 -25 -99 -51 0 -28 23 -33 95 -21 69 11 116
30 122 48 4 12 -23 45 -35 43 -4 -1 -41 -9 -83 -19z"/>
<path d="M872 298 c-16 -16 -15 -33 1 -46 15 -13 171 -34 192 -26 21 8 19 51
-2 58 -14 4 -164 26 -177 26 -1 0 -7 -5 -14 -12z"/>
</g>
</svg>
